<svg width="160" height="32" viewBox="0 0 160 32" fill="none" xmlns="http://www.w3.org/2000/svg"><path fill="#fff" d="M0 0h160v32H0z"/><path d="M20.034 13.233V14h-2.949v-.767h2.95zm-2.788-6.342V14h-.898V6.89h.898zm7.68 6.342V14h-3.085v-.767h3.086zm-2.924-6.342V14h-.898V6.89h.898zm2.51 3.056v.767H21.84v-.767h2.67zm.366-3.056v.771H21.84v-.771h3.037zm3.15 6.03l1.708-6.03h.977L28.506 14h-.689l.21-1.08zm-1.534-6.03l1.695 6.03.224 1.079h-.688l-2.207-7.11h.976zm9.009 6.342V14h-3.086v-.767h3.086zm-2.925-6.342V14h-.898V6.89h.898zm2.51 3.056v.767h-2.671v-.767h2.67zm.366-3.056v.771h-3.037v-.771h3.037zm1.201 0h1.988c.462 0 .85.081 1.162.244.315.163.553.403.713.722.162.316.244.705.244 1.167 0 .326-.054.624-.161.894a1.86 1.86 0 01-.47.684 1.966 1.966 0 01-.746.415l-.244.102h-1.773l-.01-.767h1.275c.273 0 .501-.058.683-.175a1.12 1.12 0 00.41-.484c.092-.201.137-.424.137-.669 0-.273-.04-.512-.122-.717a.953.953 0 00-.39-.474c-.176-.114-.412-.17-.708-.17h-1.09V14h-.898V6.89zM40.068 14l-1.416-3.223.933-.004 1.445 3.168V14h-.962zm4.2-6.48L42.324 14h-.918l2.29-7.11h.577l-.005.63zM45.84 14l-1.944-6.48-.01-.63h.582l2.29 7.11h-.918zm0-2.632v.772h-3.428v-.772h3.428zm6.289-.908v2.651a3.665 3.665 0 01-.356.391 2.071 2.071 0 01-.66.415c-.283.12-.654.18-1.113.18-.368 0-.705-.061-1.01-.185a2.118 2.118 0 01-.787-.557 2.646 2.646 0 01-.508-.932 4.3 4.3 0 01-.18-1.314V9.776c0-.498.05-.934.151-1.308.1-.375.25-.685.45-.933a1.89 1.89 0 01.746-.556c.3-.124.648-.186 1.045-.186.46 0 .85.086 1.172.259.322.172.571.421.747.747.18.325.28.716.303 1.172h-.898a2.09 2.09 0 00-.186-.752 1.094 1.094 0 00-.43-.484c-.185-.114-.421-.17-.708-.17-.273 0-.504.045-.693.136a1.146 1.146 0 00-.464.41 1.986 1.986 0 00-.259.689 5.279 5.279 0 00-.078.967v1.342c0 .378.038.707.112.987.075.28.181.51.318.693.14.182.307.32.503.41.195.088.415.132.659.132.277 0 .495-.03.654-.088.16-.058.282-.125.366-.2l.21-.18v-1.641h-1.303v-.762h2.197zm5.278 2.773V14h-3.086v-.767h3.086zm-2.925-6.342V14h-.898V6.89h.898zm2.51 3.056v.767h-2.67v-.767h2.67zm.366-3.056v.771h-3.037v-.771h3.037zM60.166 14h-1.21l.009-.767h1.201c.426 0 .773-.081 1.04-.244.267-.166.464-.41.59-.732.128-.326.191-.728.191-1.206V9.835c0-.378-.035-.703-.107-.977a1.757 1.757 0 00-.322-.673 1.286 1.286 0 00-.542-.391 2.043 2.043 0 00-.767-.132h-1.318v-.771h1.318c.4 0 .762.063 1.084.19.322.124.599.31.83.562.231.247.407.555.527.922.124.368.186.795.186 1.28v1.206c0 .485-.062.911-.186 1.28-.12.367-.297.675-.532.922-.234.247-.519.434-.854.562a3.245 3.245 0 01-1.138.185zm-.713-7.11V14h-.898V6.89h.898zm9.2 0V14h-.89V6.89h.89zm1.87 0v.772h-4.625v-.771h4.624zm1.054 0h1.987c.463 0 .85.082 1.163.245.315.163.553.403.712.722.163.316.245.705.245 1.167 0 .326-.054.624-.162.894a1.86 1.86 0 01-.468.684 1.967 1.967 0 01-.747.415l-.245.102H72.29l-.01-.767h1.275c.273 0 .501-.058.683-.175a1.12 1.12 0 00.41-.484c.092-.201.137-.424.137-.669 0-.273-.04-.512-.122-.717a.953.953 0 00-.39-.474c-.176-.114-.412-.17-.709-.17h-1.088V14h-.899V6.89zM74.99 14l-1.416-3.223.933-.004 1.445 3.168V14h-.962zm4.2-6.48L77.245 14h-.918l2.29-7.11h.576l-.005.63zM80.761 14l-1.944-6.48-.01-.63h.582L81.68 14h-.918zm0-2.632v.772h-3.428v-.772h3.428zM84.268 14h-1.211l.01-.767h1.2c.427 0 .774-.081 1.04-.244.267-.166.465-.41.591-.732.127-.326.19-.728.19-1.206V9.835c0-.378-.035-.703-.107-.977a1.757 1.757 0 00-.322-.673 1.286 1.286 0 00-.542-.391 2.043 2.043 0 00-.766-.132h-1.319v-.771h1.319c.4 0 .761.063 1.084.19.322.124.599.31.83.562.23.247.406.555.527.922.124.368.186.795.186 1.28v1.206c0 .485-.062.911-.186 1.28a2.41 2.41 0 01-.532.922c-.235.247-.52.434-.855.562a3.245 3.245 0 01-1.137.185zm-.713-7.11V14h-.899V6.89h.899zm5.752 0V14h-.899V6.89h.899zm6.21 0V14h-.903l-2.846-5.483V14h-.899V6.89h.899l2.86 5.499V6.89h.89zm6.006 3.57v2.651a3.697 3.697 0 01-.356.391 2.069 2.069 0 01-.659.415c-.283.12-.654.18-1.114.18-.367 0-.704-.061-1.01-.185a2.117 2.117 0 01-.786-.557 2.646 2.646 0 01-.508-.932 4.3 4.3 0 01-.18-1.314V9.776c0-.498.05-.934.15-1.308.102-.375.251-.685.45-.933.202-.247.45-.433.747-.556.3-.124.648-.186 1.045-.186.459 0 .849.086 1.172.259a1.8 1.8 0 01.747.747c.179.325.28.716.302 1.172h-.898a2.093 2.093 0 00-.186-.752 1.09 1.09 0 00-.429-.484c-.186-.114-.422-.17-.708-.17-.274 0-.505.045-.694.136a1.147 1.147 0 00-.464.41 1.988 1.988 0 00-.258.689 5.287 5.287 0 00-.078.967v1.342c0 .378.037.707.112.987.075.28.18.51.317.693.14.182.308.32.503.41.196.088.415.132.66.132.276 0 .494-.03.654-.088.159-.058.281-.125.366-.2l.21-.18v-1.641h-1.304v-.762h2.197zm4.688-3.57V14h-.899V6.89h.899zm6.211 0V14h-.903l-2.847-5.483V14h-.899V6.89h.899l2.861 5.499V6.89h.889zm3.506 6.03l1.709-6.03h.976L116.406 14h-.688l.21-1.08zm-1.533-6.03l1.694 6.03.224 1.08h-.688l-2.207-7.11h.977zm9.741 2.94v1.235c0 .502-.056.943-.166 1.324a2.604 2.604 0 01-.474.947 1.977 1.977 0 01-.752.571c-.293.127-.623.19-.991.19-.355 0-.679-.063-.972-.19a2.025 2.025 0 01-.757-.571 2.726 2.726 0 01-.493-.947 4.627 4.627 0 01-.171-1.324V9.83c0-.501.057-.94.171-1.318.114-.381.277-.699.489-.952.211-.254.463-.445.756-.572.293-.13.617-.195.972-.195.368 0 .698.065.991.195.296.127.547.318.752.572.209.253.368.57.479.952.11.377.166.817.166 1.318zm-.889 1.235V9.82c0-.39-.032-.726-.098-1.006a1.941 1.941 0 00-.288-.693 1.163 1.163 0 00-.468-.395 1.494 1.494 0 00-.645-.132c-.231 0-.439.044-.625.132a1.213 1.213 0 00-.469.395 2 2 0 00-.302.693c-.069.28-.103.616-.103 1.006v1.245c0 .394.034.733.103 1.016.071.28.172.511.302.693.134.18.293.313.479.4.185.085.392.128.62.128.244 0 .459-.043.644-.127a1.15 1.15 0 00.469-.4c.127-.183.222-.414.283-.694.066-.283.098-.622.098-1.016zm5.967 2.168V14h-2.949v-.767h2.949zm-2.788-6.342V14h-.899V6.89h.899zm4.951 6.03l1.709-6.03h.976L131.855 14h-.688l.21-1.08zm-1.533-6.03l1.694 6.03.225 1.079h-.689l-2.207-7.11h.977zm9.009 6.342V14h-3.086v-.767h3.086zm-2.925-6.342V14h-.899V6.89h.899zm2.51 3.056v.767h-2.671v-.767h2.671zm.366-3.056v.771h-3.037v-.771h3.037zm4.306 5.312c0-.166-.019-.312-.058-.44a.885.885 0 00-.205-.35 1.608 1.608 0 00-.41-.299 5.13 5.13 0 00-.669-.288 5.82 5.82 0 01-.796-.347 2.77 2.77 0 01-.611-.444 1.785 1.785 0 01-.385-.571 1.858 1.858 0 01-.137-.737c0-.277.047-.533.141-.767a1.837 1.837 0 011.055-1.02 2.3 2.3 0 01.84-.147c.462 0 .851.103 1.167.308.319.201.56.467.723.795.162.326.244.674.244 1.045h-.899a1.8 1.8 0 00-.131-.708 1.027 1.027 0 00-.401-.488c-.179-.12-.413-.18-.703-.18-.26 0-.475.05-.645.15a.945.945 0 00-.371.411 1.42 1.42 0 00-.117.59c0 .15.026.287.078.411.052.12.132.233.24.337.11.104.247.2.41.288.166.088.361.172.586.254.348.114.646.24.893.38.248.14.449.299.606.474.156.173.27.37.341.591.075.218.113.466.113.742 0 .29-.049.552-.147.787a1.606 1.606 0 01-.415.6 1.914 1.914 0 01-.659.386 2.677 2.677 0 01-.869.132c-.28 0-.555-.046-.825-.137a2.268 2.268 0 01-.728-.41 2.018 2.018 0 01-.522-.674 2.138 2.138 0 01-.196-.938h.899c0 .245.036.455.107.63a1.173 1.173 0 00.733.684c.166.052.343.078.532.078.26 0 .478-.045.654-.137a.896.896 0 00.401-.39c.091-.17.136-.37.136-.6zm-115.107 11c0-.166-.02-.312-.059-.44a.878.878 0 00-.205-.35 1.59 1.59 0 00-.41-.299 5.11 5.11 0 00-.669-.288 5.852 5.852 0 01-.796-.346 2.756 2.756 0 01-.61-.445 1.79 1.79 0 01-.386-.571 1.872 1.872 0 01-.137-.737c0-.277.048-.533.142-.767a1.833 1.833 0 011.055-1.02c.25-.098.53-.147.84-.147.462 0 .85.102 1.167.308.319.201.56.467.722.796.163.325.244.673.244 1.044h-.898c0-.267-.044-.502-.132-.708a1.022 1.022 0 00-.4-.488c-.18-.12-.414-.18-.703-.18-.26 0-.476.05-.645.15a.94.94 0 00-.371.411c-.078.172-.117.37-.117.59 0 .15.026.287.078.411.052.12.132.233.24.337.11.104.247.2.41.288.165.088.36.172.585.254.349.114.646.24.894.38.247.14.449.299.605.474.157.173.27.37.342.591.075.218.112.466.112.742 0 .29-.049.552-.146.787a1.619 1.619 0 01-.415.6 1.915 1.915 0 01-.66.386 2.678 2.678 0 01-.869.132c-.28 0-.555-.046-.825-.137a2.268 2.268 0 01-.727-.41 2.02 2.02 0 01-.523-.674 2.135 2.135 0 01-.195-.938h.898c0 .245.036.455.108.63.072.173.17.316.298.43.127.114.271.199.434.254.166.052.344.078.532.078.26 0 .479-.046.655-.137a.894.894 0 00.4-.39c.091-.17.137-.37.137-.6zm3.013-5.312V25h-.899v-7.11h.899zm6.015 3.569v2.651a3.665 3.665 0 01-.356.391 2.07 2.07 0 01-.66.415c-.283.12-.654.18-1.113.18-.367 0-.704-.061-1.01-.185a2.117 2.117 0 01-.787-.556 2.645 2.645 0 01-.507-.933 4.297 4.297 0 01-.181-1.314v-1.333c0-.498.05-.934.151-1.308.101-.375.251-.685.45-.933.201-.247.45-.433.747-.556.3-.124.647-.186 1.045-.186.459 0 .85.086 1.171.259.323.172.572.421.747.747.18.325.28.716.303 1.172h-.898a2.09 2.09 0 00-.186-.752 1.094 1.094 0 00-.43-.484c-.185-.114-.421-.17-.707-.17-.274 0-.505.045-.694.136a1.146 1.146 0 00-.464.41 1.988 1.988 0 00-.258.689 5.278 5.278 0 00-.079.967v1.342c0 .378.038.707.113.987.075.28.18.51.317.693.14.182.308.32.503.41.195.088.415.132.66.132.276 0 .494-.03.654-.088.159-.058.281-.125.366-.2l.21-.18v-1.641h-1.304v-.762h2.197zm6.104-3.57V25h-.904l-2.846-5.483V25h-.899v-7.11h.899l2.861 5.499V17.89h.889zm2.49 0V25h-.898v-7.11h.898zm2.46 0V25h-.898v-7.11h.899zm2.398 3.199v.771h-2.568v-.771h2.568zm.406-3.198v.771h-2.974v-.771h2.974zm2.05 0V25h-.898v-7.11h.899zm5.123 4.848h.898c-.023.488-.122.91-.298 1.265a1.843 1.843 0 01-.757.81c-.328.19-.74.284-1.235.284-.355 0-.675-.07-.962-.21a2.11 2.11 0 01-.737-.6 2.862 2.862 0 01-.464-.948 4.422 4.422 0 01-.161-1.24v-1.314c0-.456.053-.867.16-1.235.111-.368.27-.682.474-.943.209-.263.461-.465.757-.605.3-.14.638-.21 1.016-.21.462 0 .853.093 1.172.278.322.183.57.451.742.806.176.352.273.783.293 1.294h-.898c-.023-.374-.082-.679-.176-.913a1.02 1.02 0 00-.42-.523c-.183-.114-.42-.17-.713-.17-.26 0-.487.051-.679.156a1.288 1.288 0 00-.468.449c-.121.192-.212.425-.274.698-.059.27-.088.573-.088.908V22.1c0 .312.025.603.073.874.053.27.134.507.245.712a1.3 1.3 0 00.444.474c.182.114.404.171.664.171.329 0 .59-.054.781-.161a.96.96 0 00.425-.513c.094-.234.156-.54.186-.918zm4.419-4.219L60.536 25h-.918l2.29-7.11h.576l-.005.63zM64.052 25l-1.944-6.48-.01-.63h.582L64.97 25h-.918zm0-2.632v.772h-3.428v-.772h3.428zm6.543-4.477V25h-.904l-2.846-5.483V25h-.899v-7.11h.899l2.861 5.499V17.89h.889zm3.691 0V25h-.889v-7.11h.89zm1.87 0v.771h-4.624v-.771h4.624zm3.154 0H81.3c.462 0 .85.081 1.162.244.316.162.553.403.713.722.163.316.244.705.244 1.167 0 .326-.054.624-.161.894a1.859 1.859 0 01-.469.684 1.967 1.967 0 01-.747.415l-.244.102h-1.773l-.01-.767h1.275c.273 0 .501-.058.684-.175a1.12 1.12 0 00.41-.484c.091-.202.136-.424.136-.669 0-.273-.04-.512-.122-.717a.953.953 0 00-.39-.474c-.176-.114-.412-.17-.708-.17H80.21V25h-.898v-7.11zM82.725 25l-1.416-3.223.932-.005 1.445 3.17V25h-.961zm2.832-7.11V25h-.899v-7.11h.899zm4.672 5.313c0-.166-.019-.312-.058-.44a.879.879 0 00-.205-.35 1.59 1.59 0 00-.41-.299 5.106 5.106 0 00-.67-.288 5.862 5.862 0 01-.795-.346 2.755 2.755 0 01-.61-.445 1.792 1.792 0 01-.386-.571 1.874 1.874 0 01-.137-.737c0-.277.047-.533.142-.767a1.833 1.833 0 011.054-1.02c.25-.098.53-.147.84-.147.462 0 .851.102 1.167.308.32.201.56.467.723.796.162.325.244.673.244 1.044h-.898c0-.267-.044-.502-.132-.708a1.023 1.023 0 00-.4-.488c-.18-.12-.414-.18-.704-.18-.26 0-.475.05-.644.15a.942.942 0 00-.371.411c-.079.172-.118.37-.118.59 0 .15.026.287.078.411.053.12.132.233.24.337.11.104.247.2.41.288.166.088.361.172.586.254.348.114.646.24.893.38.248.14.45.299.606.474.156.173.27.37.342.591.075.218.112.466.112.742 0 .29-.049.552-.147.787a1.618 1.618 0 01-.415.6 1.915 1.915 0 01-.659.386 2.677 2.677 0 01-.869.132c-.28 0-.555-.046-.825-.137a2.268 2.268 0 01-.728-.41 2.02 2.02 0 01-.522-.674 2.135 2.135 0 01-.195-.938h.898c0 .245.036.455.107.63.072.173.171.316.298.43.127.114.272.199.435.254.166.052.343.078.532.078.26 0 .479-.046.654-.137a.894.894 0 00.4-.39c.092-.17.138-.37.138-.6zm2.974-5.312V25h-.898v-7.11h.898zm3.574 0l-2.446 3.315-1.43 1.724-.162-1.006 1.05-1.377 1.914-2.656h1.074zM95.884 25l-2.095-3.467.532-.747L96.953 25h-1.07zm8.799-4.17v1.235c0 .502-.056.943-.166 1.324a2.604 2.604 0 01-.474.947 1.977 1.977 0 01-.752.571c-.293.127-.623.19-.991.19-.355 0-.679-.063-.972-.19a2.025 2.025 0 01-.757-.571 2.726 2.726 0 01-.493-.947 4.634 4.634 0 01-.17-1.324V20.83c0-.501.056-.94.17-1.318.114-.381.277-.698.488-.952.212-.254.464-.445.757-.572.293-.13.617-.195.972-.195.368 0 .698.065.991.195.296.127.547.318.752.572.208.254.368.57.479.952.11.377.166.817.166 1.318zm-.889 1.235V20.82a4.5 4.5 0 00-.098-1.006 1.94 1.94 0 00-.288-.693 1.159 1.159 0 00-.469-.395 1.486 1.486 0 00-.644-.132c-.231 0-.44.044-.625.132a1.206 1.206 0 00-.469.395c-.13.18-.231.41-.303.694-.068.28-.102.615-.102 1.005v1.245c0 .394.034.733.102 1.016.072.28.173.511.303.693.134.18.293.313.479.4.185.085.392.128.62.128.244 0 .459-.043.644-.127.189-.088.345-.222.469-.4.127-.183.221-.414.283-.694.065-.283.098-.622.098-1.016zm3.179-4.174V25h-.899v-7.11h.899zm2.397 3.198v.771h-2.568v-.771h2.568zm.405-3.198v.771h-2.973v-.771h2.973zm7.095 6.342V25h-2.949v-.767h2.949zm-2.788-6.342V25h-.898v-7.11h.898zm8.159 2.94v1.234c0 .502-.055.943-.166 1.324a2.588 2.588 0 01-.473.947 1.985 1.985 0 01-.752.571c-.293.127-.624.19-.992.19-.354 0-.678-.063-.971-.19a2.017 2.017 0 01-.757-.571 2.71 2.71 0 01-.493-.947 4.627 4.627 0 01-.171-1.324V20.83c0-.501.057-.94.171-1.318.114-.381.276-.698.488-.952.212-.254.464-.445.757-.572.293-.13.617-.195.972-.195.367 0 .698.065.991.195.296.127.547.318.752.572.208.254.368.57.478.952.111.377.166.817.166 1.318zm-.888 1.234V20.82a4.5 4.5 0 00-.098-1.006 1.94 1.94 0 00-.288-.693 1.159 1.159 0 00-.469-.395 1.49 1.49 0 00-.644-.132c-.232 0-.44.044-.625.132a1.2 1.2 0 00-.469.395c-.13.18-.231.41-.303.694-.068.28-.103.615-.103 1.005v1.245c0 .394.035.733.103 1.016.072.28.173.511.303.693.133.18.293.313.478.4.186.085.393.128.62.128.245 0 .459-.043.645-.127.189-.088.345-.222.469-.4.127-.183.221-.414.283-.694.065-.283.098-.622.098-1.016zm5.39 1.138c0-.166-.019-.312-.058-.44a.876.876 0 00-.206-.35 1.573 1.573 0 00-.41-.299 5.012 5.012 0 00-.669-.288 5.875 5.875 0 01-.796-.346 2.762 2.762 0 01-.61-.445 1.805 1.805 0 01-.386-.571 1.876 1.876 0 01-.136-.737c0-.277.047-.533.141-.767a1.85 1.85 0 01.41-.61 1.88 1.88 0 01.645-.41c.251-.098.531-.147.84-.147.462 0 .851.102 1.167.308.319.201.56.467.722.796.163.325.245.673.245 1.044h-.899c0-.267-.044-.502-.132-.708a1.02 1.02 0 00-.4-.488c-.179-.12-.413-.18-.703-.18-.261 0-.475.05-.645.15a.945.945 0 00-.371.411 1.42 1.42 0 00-.117.59c0 .15.026.287.078.411.052.12.132.233.239.337.111.104.248.2.411.288.166.088.361.172.585.254.349.114.647.24.894.38s.449.299.606.474c.156.173.27.37.341.591.075.218.113.466.113.742 0 .29-.049.552-.147.787a1.617 1.617 0 01-.415.6 1.914 1.914 0 01-.659.386 2.677 2.677 0 01-.869.132c-.28 0-.555-.046-.825-.137a2.268 2.268 0 01-.728-.41 2.018 2.018 0 01-.522-.674 2.124 2.124 0 01-.196-.938h.899c0 .245.035.455.107.63a1.173 1.173 0 00.733.684c.166.052.343.078.532.078.26 0 .478-.046.654-.137a.889.889 0 00.4-.39c.092-.17.137-.37.137-.6zm5.186 0c0-.166-.02-.312-.059-.44a.874.874 0 00-.205-.35 1.59 1.59 0 00-.41-.299 5.13 5.13 0 00-.669-.288 5.875 5.875 0 01-.796-.346 2.739 2.739 0 01-.61-.445 1.79 1.79 0 01-.386-.571 1.876 1.876 0 01-.137-.737c0-.277.047-.533.142-.767a1.82 1.82 0 011.055-1.02c.25-.098.53-.147.839-.147.463 0 .852.102 1.167.308.319.201.56.467.723.796.163.325.244.673.244 1.044h-.898c0-.267-.044-.502-.132-.708a1.021 1.021 0 00-.401-.488c-.179-.12-.413-.18-.703-.18-.26 0-.475.05-.644.15a.939.939 0 00-.371.411 1.42 1.42 0 00-.117.59c0 .15.026.287.078.411.052.12.132.233.239.337.111.104.247.2.41.288.166.088.361.172.586.254.348.114.646.24.894.38.247.14.449.299.605.474.156.173.27.37.342.591.075.218.112.466.112.742 0 .29-.049.552-.146.787a1.629 1.629 0 01-.415.6 1.918 1.918 0 01-.66.386 2.673 2.673 0 01-.869.132c-.28 0-.555-.046-.825-.137a2.263 2.263 0 01-.727-.41 2.008 2.008 0 01-.523-.674 2.138 2.138 0 01-.195-.938h.898c0 .245.036.455.108.63.071.173.171.316.298.43.126.114.271.199.434.254.166.052.344.078.532.078.261 0 .479-.046.655-.137a.894.894 0 00.4-.39c.091-.17.137-.37.137-.6zm2.011 1.319c0-.153.048-.282.142-.386.098-.108.238-.161.42-.161s.321.053.415.16a.54.54 0 01.146.386c0 .15-.048.277-.146.381-.094.104-.233.157-.415.157-.182 0-.322-.053-.42-.157a.549.549 0 01-.142-.38z" fill="#000"/></svg>