<svg width="127" height="19" viewBox="0 0 127 19" fill="none" xmlns="http://www.w3.org/2000/svg"><path d="M34.86 9.443c0-.182-.003-.362-.01-.54h2.166l.575-1.65h-2.917C33.874 2.74 30.524 0 25.464 0c-5.691 0-9.37 3.754-9.37 9.557 0 5.86 3.564 9.471 9.37 9.443 4.73 0 8.088-2.578 9.087-6.798h1.977l.603-1.65h-2.318c.031-.36.047-.73.048-1.109zm-9.282 6.941c-2.932 0-4.081-3.074-4.081-6.884 0-3.81.92-6.855 3.88-6.883 2.329 0 3.532 1.921 3.93 4.636h-2.52l-.576 1.65h3.238a21.456 21.456 0 01-.015 1.65h-3.109l-.603 1.65h3.545c-.399 2.471-1.47 4.18-3.689 4.18v.001zM0 .427h14.657v4.408h-9.57v3.072h8.65v4.181h-8.65v6.457H0V.427zm39.23 0v18.118h5.086v-5.49h2.242l3.678 5.49H56.1l-4.368-6.315c2.27-.967 3.764-2.816 3.764-5.575V6.6c0-1.764-.545-3.186-1.61-4.21C52.65 1.166 50.696.427 47.908.427H39.23zm5.086 8.704V4.75h3.334c1.724 0 2.758.74 2.758 2.16v.057c0 1.337-1.005 2.161-2.729 2.161l-3.363.003zm13.766 9.414H72.94v-4.268h-9.829v-2.871h8.794V7.452H63.11V4.693h9.716V.427H58.082v18.118zm16.525 0h5.72l3.534-5.461 3.506 5.46h5.834l-6.293-9.272L92.913.427h-5.69l-3.275 5.091-3.25-5.09h-5.833L80.9 9.328l-6.294 9.216zm23.566-8.589a3.655 3.655 0 001.12 2.678 3.758 3.758 0 002.73 1.05c1.611 0 2.559-.655 3.249-1.65l-1.724-1.224c-.403.456-.805.74-1.409.74-.862 0-1.465-.711-1.465-1.65v-.028c0-.882.603-1.594 1.437-1.594a1.58 1.58 0 011.35.769l1.754-1.28a3.512 3.512 0 00-1.346-1.228 3.547 3.547 0 00-1.787-.393 3.845 3.845 0 00-2.773 1.084c-.365.356-.653.78-.848 1.25a3.737 3.737 0 00-.288 1.478m7.76 0c0 2.047 1.696 3.754 4.023 3.754 2.357 0 4.053-1.735 4.053-3.783v-.027c0-2.048-1.696-3.755-4.024-3.755-2.356 0-4.052 1.736-4.052 3.812m5.575 0c0 .853-.575 1.593-1.523 1.593a1.595 1.595 0 01-1.119-.488 1.566 1.566 0 01-.433-1.132v-.027a1.505 1.505 0 01.418-1.119 1.543 1.543 0 011.105-.475 1.6 1.6 0 011.128.502 1.58 1.58 0 01.424 1.148m3.736-3.669v7.218h2.558V9.585c0-.768.431-1.194 1.035-1.194.604 0 1.006.398 1.006 1.194v3.925h2.529V9.585c0-.768.46-1.194 1.064-1.194.605 0 1.006.398 1.006 1.194v3.954H127v-4.75c0-1.678-.949-2.645-2.5-2.645a3.121 3.121 0 00-1.358.304 3.09 3.09 0 00-1.085.862c-.374-.74-1.121-1.166-2.098-1.166-.43.002-.852.106-1.232.304s-.707.484-.951.834v-.996h-2.532v.006zM94.61 12.174a1.105 1.105 0 00.402.938 1.398 1.398 0 001.897 0 1.326 1.326 0 00.408-.943 1.315 1.315 0 00-.393-.949 1.341 1.341 0 00-.959-.389 1.354 1.354 0 00-.953.404 1.331 1.331 0 00-.402.939z" fill="#fff"/></svg>