<?xml version="1.0" encoding="utf-8"?>
<!-- Generator: Adobe Illustrator 27.3.1, SVG Export Plug-In . SVG Version: 6.00 Build 0)  -->
<svg version="1.1" id="Layer_1" xmlns="http://www.w3.org/2000/svg" xmlns:xlink="http://www.w3.org/1999/xlink" x="0px" y="0px"
	 viewBox="0 0 119 28" style="enable-background:new 0 0 119 28;" xml:space="preserve">
<style type="text/css">
	.st0{fill:#14944F;}
	.st1{fill:#FFFFFF;}
</style>
<g>
	<g>
		<path class="st0" d="M13.54,0.4h91c7.46,0,13.5,6.04,13.5,13.5l0,0c0,7.46-6.04,13.5-13.5,13.5h-91c-7.46,0-13.5-6.04-13.5-13.5
			l0,0C0.04,6.45,6.09,0.4,13.54,0.4z"/>
	</g>
	<g>
		<path class="st1" d="M36.61,13.72c0,0.89-0.28,1.58-0.82,2.09c-0.54,0.5-1.24,0.75-2.12,0.75c-0.87,0-1.55-0.26-2.07-0.78
			c-0.51-0.51-0.76-1.2-0.76-2.07c0-0.43,0.06-0.82,0.2-1.17h-0.8c-0.98,0-1.47,0.64-1.47,1.91v4.15h-1.73v-4.43
			c0-1.08,0.31-1.92,0.93-2.51c0.56-0.55,1.29-0.83,2.2-0.83h3.58c0.87,0,1.57,0.26,2.08,0.79C36.35,12.16,36.61,12.85,36.61,13.72z
			 M34.88,13.67c0-0.39-0.09-0.71-0.28-0.97c-0.21-0.29-0.5-0.43-0.88-0.43c-0.39,0-0.68,0.15-0.89,0.45
			c-0.19,0.26-0.28,0.6-0.28,0.99s0.09,0.7,0.25,0.97c0.2,0.31,0.48,0.46,0.83,0.46h0.12C34.5,15.15,34.88,14.66,34.88,13.67z"/>
		<path class="st1" d="M45.05,16.53H43.4c-0.2,1.38-1.15,2.07-2.86,2.07h-0.19v-1.4h0.15c0.68,0,1.08-0.25,1.22-0.74
			c-0.14,0.05-0.49,0.08-1.08,0.08c-1.64,0-2.85-1.19-2.85-2.86c0-1.69,1.18-2.83,2.85-2.83c1.61,0,2.78,1.2,2.78,2.87v1.14h1.63
			V16.53z M41.67,14.85v-1.22c0-0.74-0.44-1.22-1.08-1.22c-0.66,0-1.02,0.51-1.02,1.18c0,0.71,0.43,1.25,1.08,1.25H41.67z"/>
		<path class="st1" d="M46.01,18.61h-1.55v-1.46h1.55V18.61z M50.39,16.53h-5.64v-1.68h1.15c0.59,0,0.88-0.4,0.88-1.2v-2.8h1.77
			v2.73c0,0.46-0.06,0.88-0.2,1.27h2.04V16.53z M48.37,18.61h-1.56v-1.46h1.56V18.61z"/>
		<path class="st1" d="M53.8,14.11c0,0.67-0.19,1.22-0.55,1.66c-0.41,0.51-0.99,0.76-1.73,0.76h-1.66v-1.68h1.29
			c0.59,0,0.89-0.41,0.89-1.23V8.45h1.76V14.11z"/>
		<path class="st1" d="M56.83,16.53h-1.76V8.44h1.76V16.53z"/>
		<path class="st1" d="M68.31,14.34c0,2.47-1.62,4.26-3.96,4.26c-2.21,0-3.96-1.86-3.96-4.26V13.1h1.74v1.08
			c0,1.63,0.87,2.8,2.23,2.8c1.38,0,2.18-1.08,2.18-2.8V8.45h1.77V14.34z"/>
		<path class="st1" d="M75.1,16.28c0,1.54-0.95,2.32-2.87,2.32h-0.18v-1.4h0.11c0.7,0,1.39-0.49,1.39-1.17
			c-0.24,0.39-0.65,0.58-1.24,0.58c-1.62,0-2.82-1.23-2.82-2.91c0-1.72,1.18-2.87,2.82-2.87c1.62,0,2.78,1.24,2.78,2.9V16.28z
			 M73.34,13.72c0-0.76-0.44-1.3-1.07-1.3c-0.62,0-1.03,0.53-1.03,1.27c0,0.7,0.4,1.29,1.09,1.29
			C72.97,14.97,73.34,14.48,73.34,13.72z"/>
		<path class="st1" d="M78.15,16.53h-1.76V8.44h1.76V16.53z"/>
		<path class="st1" d="M87.63,16.53H79.5v-1.68h4.55c0-1.76-0.95-2.53-3.19-2.53v-1.47c1.1,0,1.88,0.08,2.35,0.24
			c1.73,0.61,2.6,1.86,2.6,3.75h1.82V16.53z"/>
		<path class="st1" d="M88.56,9.89h-1.56V8.45h1.56V9.89z M91.04,14.11c0,0.67-0.19,1.22-0.55,1.66c-0.41,0.51-0.99,0.76-1.72,0.76
			h-1.49v-1.68h1.12c0.59,0,0.89-0.41,0.89-1.23v-2.77h1.76V14.11z M90.93,9.89h-1.57V8.45h1.57V9.89z"/>
	</g>
</g>
<g>
	<g>
		<path class="st0" d="M14,0.5h91c7.46,0,13.5,6.04,13.5,13.5l0,0c0,7.46-6.04,13.5-13.5,13.5H14C6.54,27.5,0.5,21.46,0.5,14l0,0
			C0.5,6.54,6.54,0.5,14,0.5z"/>
	</g>
	<g>
		<path class="st1" d="M37.07,13.82c0,0.89-0.28,1.58-0.82,2.09c-0.54,0.5-1.24,0.75-2.12,0.75c-0.87,0-1.55-0.26-2.07-0.78
			c-0.51-0.51-0.76-1.2-0.76-2.07c0-0.43,0.06-0.82,0.2-1.17h-0.8c-0.98,0-1.47,0.64-1.47,1.91v4.15H27.5v-4.43
			c0-1.08,0.31-1.92,0.93-2.51c0.56-0.55,1.29-0.83,2.2-0.83h3.58c0.87,0,1.57,0.26,2.08,0.79C36.8,12.26,37.07,12.95,37.07,13.82z
			 M35.34,13.77c0-0.39-0.09-0.71-0.28-0.97c-0.21-0.29-0.5-0.43-0.88-0.43c-0.39,0-0.68,0.15-0.89,0.45
			c-0.19,0.26-0.28,0.6-0.28,0.99s0.09,0.7,0.25,0.97c0.2,0.31,0.48,0.46,0.83,0.46h0.12C34.96,15.25,35.34,14.76,35.34,13.77z"/>
		<path class="st1" d="M45.51,16.62h-1.66C43.65,18,42.7,18.69,41,18.69h-0.19v-1.4h0.15c0.68,0,1.08-0.25,1.22-0.74
			c-0.14,0.05-0.49,0.08-1.08,0.08c-1.64,0-2.85-1.19-2.85-2.86c0-1.69,1.18-2.83,2.85-2.83c1.61,0,2.78,1.2,2.78,2.87v1.14h1.63
			V16.62z M42.12,14.94v-1.22c0-0.74-0.44-1.22-1.08-1.22c-0.66,0-1.02,0.51-1.02,1.18c0,0.71,0.43,1.25,1.08,1.25H42.12z"/>
		<path class="st1" d="M46.46,18.71h-1.55v-1.46h1.55V18.71z M50.84,16.62H45.2v-1.68h1.15c0.59,0,0.88-0.4,0.88-1.2v-2.8H49v2.73
			c0,0.46-0.06,0.88-0.2,1.27h2.04V16.62z M48.82,18.71h-1.56v-1.46h1.56V18.71z"/>
		<path class="st1" d="M54.26,14.2c0,0.67-0.19,1.22-0.55,1.66c-0.41,0.51-0.99,0.76-1.73,0.76h-1.66v-1.68h1.29
			c0.59,0,0.89-0.41,0.89-1.23V8.55h1.76V14.2z"/>
		<path class="st1" d="M57.29,16.62h-1.76V8.54h1.76V16.62z"/>
		<path class="st1" d="M68.77,14.44c0,2.47-1.62,4.26-3.96,4.26c-2.21,0-3.96-1.86-3.96-4.26V13.2h1.74v1.08
			c0,1.63,0.87,2.8,2.23,2.8c1.38,0,2.18-1.08,2.18-2.8V8.55h1.77V14.44z"/>
		<path class="st1" d="M75.56,16.37c0,1.54-0.95,2.32-2.87,2.32h-0.18v-1.4h0.11c0.7,0,1.39-0.49,1.39-1.17
			c-0.24,0.39-0.65,0.58-1.24,0.58c-1.62,0-2.82-1.23-2.82-2.91c0-1.72,1.18-2.87,2.82-2.87c1.62,0,2.78,1.24,2.78,2.9V16.37z
			 M73.8,13.82c0-0.76-0.44-1.3-1.07-1.3c-0.62,0-1.03,0.53-1.03,1.27c0,0.7,0.4,1.29,1.09,1.29C73.42,15.07,73.8,14.58,73.8,13.82z
			"/>
		<path class="st1" d="M78.61,16.62h-1.76V8.54h1.76V16.62z"/>
		<path class="st1" d="M88.09,16.62h-8.13v-1.68h4.55c0-1.76-0.95-2.53-3.19-2.53v-1.47c1.1,0,1.88,0.08,2.35,0.24
			c1.73,0.61,2.6,1.86,2.6,3.75h1.82V16.62z"/>
		<path class="st1" d="M89.02,9.99h-1.56V8.55h1.56V9.99z M91.5,14.2c0,0.67-0.19,1.22-0.55,1.66c-0.41,0.51-0.99,0.76-1.72,0.76
			h-1.49v-1.68h1.12c0.59,0,0.89-0.41,0.89-1.23v-2.77h1.76V14.2z M91.39,9.99h-1.57V8.55h1.57V9.99z"/>
	</g>
</g>
</svg>
