<svg width="129" height="45" viewBox="0 0 129 45" fill="none" xmlns="http://www.w3.org/2000/svg"><path d="M85.774 17.574h-6.656C77.293 7.12 69.653.772 58.102.772c-12.983 0-21.377 8.695-21.377 22.131 0 13.437 8.132 21.938 21.377 21.869 10.797 0 18.456-5.968 20.736-15.745h4.508l1.376-3.822h-5.287a31.31 31.31 0 00.081-3.822h4.944l1.314-3.822v.013zm-18.612 7.644H60.07l-1.377 3.822h8.09c-.91 5.723-3.357 9.683-8.42 9.683-6.687 0-9.309-7.118-9.309-15.938S51.153 6.909 57.91 6.846c5.311 0 8.057 4.448 8.967 10.734h-5.754l-1.314 3.822h7.385c.013.457.025.913.025 1.383 0 .831-.019 1.645-.056 2.44v-.007zM.005 43.72h11.607V28.77h19.74v-9.682h-19.74v-7.119H33.45V1.761H.005v41.96zM118.042 29.096c5.181-2.24 8.587-6.524 8.587-12.91v-.132c0-4.085-1.246-7.375-3.674-9.752-2.815-2.834-7.279-4.541-13.637-4.541H89.517v41.96h11.607V31.004h5.112l8.394 12.717h13.375l-9.969-14.625h.006zm-3.02-12.191c0 3.096-2.292 5.004-6.227 5.004h-7.678v-10.14h7.61c3.935 0 6.295 1.714 6.295 5.004v.132z" fill="#fff"/></svg>