<?xml version="1.0" encoding="utf-8"?>
<!-- Generator: Adobe Illustrator 27.3.1, SVG Export Plug-In . SVG Version: 6.00 Build 0)  -->
<svg version="1.1" id="Layer_1" xmlns="http://www.w3.org/2000/svg" xmlns:xlink="http://www.w3.org/1999/xlink" x="0px" y="0px"
	 viewBox="0 0 160 32" style="enable-background:new 0 0 160 32;" xml:space="preserve">
<style type="text/css">
	.st0{fill:#FFFFFF;}
</style>
<g>
	<path class="st0" d="M0,0h160v32H0V0z"/>
	<g>
		<path d="M42.73,13.31h-1.14c-0.65,0-1.1-0.33-1.36-0.99c-0.2,0.32-0.59,0.48-1.15,0.48c-0.97,0-1.59-0.84-1.59-1.95
			c0-1.2,0.61-1.98,1.67-1.98c0-0.01,0.72-0.01,2.16-0.01v2.54c0,0.53,0.27,0.82,0.82,0.82h0.58V13.31z M39.4,8.11h-1V7.17h1V8.11z
			 M40.16,10.75V9.69h-0.74c-0.46,0-0.8,0.51-0.8,1.14c0,0.57,0.32,1.03,0.77,1.03C39.87,11.86,40.16,11.42,40.16,10.75z
			 M40.92,8.11h-1V7.17h1V8.11z"/>
		<path d="M49.31,13.31h-2.08c-0.47,0-0.89-0.19-1.25-0.57c-0.19,0.16-0.44,0.3-0.76,0.4c-0.34,0.1-0.67,0.16-1,0.16h-1.78v-1.08
			h1.76c0.4,0,0.75-0.09,1.05-0.27c-0.12-0.17-0.33-0.34-0.61-0.52c-0.34-0.21-0.67-0.35-0.98-0.4V10.1
			c0.73-0.44,1.48-0.65,2.24-0.65c0.9,0,1.73,0.3,2.49,0.89c-0.09,0.22-0.29,0.51-0.59,0.86c-0.33,0.38-0.64,0.65-0.93,0.83
			c0.15,0.14,0.35,0.2,0.61,0.2h1.84V13.31z M46.99,10.63c-0.35-0.18-0.69-0.27-1.02-0.27c-0.32,0-0.65,0.07-0.96,0.23
			c0.24,0.1,0.44,0.22,0.58,0.32c0.15,0.11,0.31,0.27,0.5,0.48c0.16-0.07,0.34-0.2,0.52-0.37C46.79,10.88,46.92,10.75,46.99,10.63z"
			/>
		<path d="M53.8,11.46c0,0.55-0.17,0.99-0.51,1.33c-0.33,0.34-0.78,0.51-1.34,0.51H49v-1.08h1.21c-0.09-0.23-0.13-0.48-0.13-0.75
			c0-1.12,0.7-1.83,1.82-1.83c0.56,0,1.03,0.16,1.37,0.48C53.62,10.44,53.8,10.89,53.8,11.46z M52.68,11.5
			c0-0.64-0.24-0.95-0.72-0.95h-0.08c-0.23,0-0.4,0.1-0.53,0.3c-0.1,0.17-0.16,0.38-0.16,0.61c0,0.27,0.06,0.48,0.18,0.65
			c0.14,0.19,0.33,0.29,0.58,0.29c0.23,0,0.42-0.09,0.56-0.27C52.62,11.95,52.68,11.75,52.68,11.5z M52.37,9.03h-1V8.1h1V9.03z"/>
		<path d="M55.75,13.31h-1.13V8.1h1.13V13.31z"/>
		<path d="M59.98,13.31h-1.25c-0.19,0.89-0.91,1.33-2.2,1.33v-0.91c0.74,0,1.11-0.36,1.11-1.07V9.65h1.14v2.57h1.19V13.31z"/>
		<path d="M62.08,11.75c0,0.43-0.12,0.78-0.36,1.07c-0.27,0.33-0.64,0.49-1.11,0.49h-1.07v-1.08h0.83c0.38,0,0.57-0.27,0.57-0.79
			V8.11h1.13V11.75z"/>
		<path d="M65.34,13.31h-1.07c-0.86,0-1.36-0.5-1.36-1.33V8.1h1.13v3.29c0,0.55,0.14,0.84,0.97,0.84h0.33V13.31z"/>
		<path d="M67.59,11.75c0,0.43-0.12,0.78-0.35,1.07c-0.27,0.33-0.64,0.49-1.11,0.49h-0.96v-1.08h0.72c0.38,0,0.57-0.27,0.57-0.79
			V9.65h1.13V11.75z M67.52,14.65h-1v-0.94h1V14.65z"/>
		<path d="M74.86,11.9c0,1.59-1.04,2.74-2.55,2.74c-1.42,0-2.55-1.19-2.55-2.74v-0.8h1.12v0.69c0,1.05,0.56,1.8,1.44,1.8
			c0.89,0,1.4-0.69,1.4-1.8V8.11h1.14V11.9z"/>
		<path d="M79.22,13.14c0,0.99-0.61,1.49-1.85,1.49h-0.11v-0.9h0.07c0.45,0,0.9-0.31,0.9-0.75c-0.15,0.25-0.42,0.37-0.8,0.37
			c-1.04,0-1.82-0.79-1.82-1.87c0-1.11,0.76-1.85,1.82-1.85c1.04,0,1.79,0.8,1.79,1.87V13.14z M78.09,11.5
			c0-0.49-0.28-0.84-0.69-0.84c-0.4,0-0.66,0.34-0.66,0.82c0,0.45,0.26,0.83,0.7,0.83C77.85,12.3,78.09,11.99,78.09,11.5z"/>
		<path d="M81.18,13.31h-1.13V8.1h1.13V13.31z"/>
		<path d="M87.28,13.31h-5.23v-1.08h2.93c0-1.13-0.61-1.63-2.05-1.63V9.65c0.71,0,1.21,0.05,1.51,0.15c1.11,0.4,1.67,1.19,1.67,2.41
			h1.17V13.31z"/>
		<path d="M87.9,9.04h-1V8.11h1V9.04z M90.69,13.31h-3.64v-1.08h0.74c0.38,0,0.57-0.26,0.57-0.77v-1.8h1.14v1.76
			c0,0.3-0.05,0.56-0.14,0.81h1.32V13.31z M89.41,9.04h-1V8.11h1V9.04z"/>
		<path d="M92.88,11.75c0,0.43-0.12,0.78-0.36,1.07c-0.27,0.33-0.64,0.49-1.11,0.49h-1.07v-1.08h0.83c0.38,0,0.57-0.27,0.57-0.79
			V8.11h1.13V11.75z"/>
		<path d="M94.83,13.31h-1.13V8.1h1.13V13.31z"/>
		<path d="M103.43,13.31h-1.56c-0.44,0.84-1.26,1.34-2.2,1.34c-1.42,0-2.55-1.19-2.55-2.74v-0.8h1.13v0.69c0,1.06,0.52,1.8,1.43,1.8
			c0.89,0,1.41-0.67,1.41-1.8V8.11h1.13v4.12h1.21V13.31z"/>
		<path d="M108.75,13.31h-1.29c-0.33,0.46-0.84,0.69-1.51,0.69c-0.69,0-1.2-0.23-1.53-0.69h-1.24v-1.08h0.9
			c0-1.16,0.66-1.89,1.83-1.89c1.18,0,1.89,0.7,1.89,1.89h0.94V13.31z M106.68,12.2c0-0.64-0.24-0.96-0.72-0.96h-0.08
			c-0.41,0-0.69,0.39-0.69,0.91c0,0.54,0.27,0.93,0.75,0.93C106.41,13.08,106.68,12.74,106.68,12.2z"/>
		<path d="M109.34,9.04h-1V8.11h1V9.04z M112.13,13.31h-3.64v-1.08h0.74c0.38,0,0.57-0.26,0.57-0.77v-1.8h1.14v1.76
			c0,0.3-0.05,0.56-0.14,0.81h1.32V13.31z M110.86,9.04h-1V8.11h1V9.04z"/>
		<path d="M120.27,13.31h-8.47v-1.08h1.02c0.37,0,0.57-0.2,0.57-0.77V9.65h1.14v1.76c0,0.3-0.05,0.57-0.14,0.81h0.72
			c0.38,0,0.57-0.24,0.57-0.73V9.65h1.13v1.76c0,0.3-0.05,0.57-0.14,0.81h0.72c0.38,0,0.57-0.24,0.57-0.73V9.65h1.14v1.75
			c0,0.3-0.05,0.57-0.15,0.82h1.32V13.31z M115.95,9.04h-1.01V8.11h1.01V9.04z M116.69,7.7h-1V6.78h1V7.7z M117.47,9.04h-1V8.11h1
			V9.04z"/>
		<path d="M120.9,14.65h-1v-0.94h1V14.65z M122.5,11.75c0,0.43-0.12,0.78-0.36,1.07c-0.27,0.33-0.64,0.49-1.11,0.49h-0.96v-1.08
			h0.72c0.38,0,0.57-0.27,0.57-0.79V9.65h1.13V11.75z M122.43,14.65h-1.01v-0.94h1.01V14.65z"/>
		<path d="M18.02,22.98h-0.99v-1.07h0.99V22.98z"/>
		<path d="M22.54,21.04c0,0.59-0.18,1.06-0.53,1.41c-0.35,0.36-0.83,0.53-1.42,0.53c-0.6,0-1.07-0.18-1.44-0.52
			c-0.35-0.35-0.53-0.82-0.53-1.41c0-0.59,0.18-1.07,0.52-1.41c0.35-0.35,0.81-0.53,1.4-0.53c0.6,0,1.08,0.17,1.44,0.52
			C22.36,19.97,22.54,20.44,22.54,21.04z M20.3,18.48h-1v-0.93h1V18.48z M21.46,21.08c0-0.74-0.3-1.11-0.9-1.11
			c-0.59,0-0.88,0.37-0.88,1.11c0,0.3,0.07,0.55,0.22,0.73c0.15,0.21,0.38,0.31,0.66,0.31c0.3,0,0.52-0.1,0.69-0.31
			C21.39,21.63,21.46,21.38,21.46,21.08z M21.82,18.48h-1v-0.93h1V18.48z"/>
		<path d="M25.47,22.25c0,0.74-0.19,1.28-0.56,1.61c-0.35,0.32-0.91,0.47-1.69,0.47v-0.91c0.74,0,1.11-0.36,1.11-1.07v-3.01h1.14
			V22.25z"/>
		<path d="M28.72,22.99h-1.07c-0.86,0-1.36-0.5-1.36-1.33v-3.87h1.13v3.29c0,0.55,0.14,0.84,0.97,0.84h0.33V22.99z"/>
		<path d="M36.85,22.99h-8.31v-1.08h0.86c0.37,0,0.57-0.2,0.57-0.77v-1.81h1.14v1.76c0,0.3-0.05,0.57-0.14,0.81h0.72
			c0.38,0,0.57-0.24,0.57-0.73v-1.85h1.13v1.76c0,0.3-0.05,0.57-0.14,0.81h0.72c0.38,0,0.57-0.24,0.57-0.73v-1.85h1.14v1.75
			c0,0.3-0.05,0.57-0.15,0.82h1.32V22.99z"/>
		<path d="M43.21,22.99h-6.59v-1.08h4.58c-0.02-0.43-0.18-0.79-0.46-1.1c-0.31-0.35-0.73-0.52-1.24-0.52
			c-0.48,0-1.03,0.25-1.35,0.58c-0.11-0.15-0.3-0.4-0.57-0.77c0.55-0.57,1.21-0.86,1.99-0.86c0.48,0,0.9,0.09,1.26,0.26
			c0.86,0.41,1.37,1.21,1.51,2.41h0.86V22.99z M40.07,18.72h-1v-0.93h1V18.72z"/>
		<path d="M45.39,21.43c0,0.43-0.12,0.78-0.36,1.07c-0.27,0.33-0.64,0.49-1.11,0.49h-1.07v-1.08h0.83c0.38,0,0.57-0.27,0.57-0.79
			v-3.33h1.13V21.43z"/>
		<path d="M48.64,22.99h-1.07c-0.86,0-1.36-0.5-1.36-1.33v-3.87h1.13v3.29c0,0.55,0.14,0.84,0.97,0.84h0.33V22.99z"/>
		<path d="M50.89,21.43c0,0.43-0.12,0.78-0.35,1.07c-0.27,0.33-0.64,0.49-1.11,0.49h-0.96v-1.08h0.72c0.38,0,0.57-0.27,0.57-0.79
			v-1.78h1.13V21.43z M50.83,24.33h-1v-0.94h1V24.33z"/>
		<path d="M56.99,21.04c0,0.59-0.18,1.06-0.53,1.41c-0.35,0.36-0.83,0.53-1.42,0.53c-0.6,0-1.07-0.18-1.44-0.52
			c-0.35-0.35-0.53-0.82-0.53-1.41c0-0.59,0.18-1.07,0.52-1.41c0.35-0.35,0.81-0.53,1.4-0.53c0.6,0,1.08,0.17,1.44,0.52
			C56.8,19.97,56.99,20.44,56.99,21.04z M54.74,18.48h-1v-0.93h1V18.48z M55.91,21.08c0-0.74-0.3-1.11-0.9-1.11
			c-0.59,0-0.88,0.37-0.88,1.11c0,0.3,0.07,0.55,0.22,0.73c0.15,0.21,0.38,0.31,0.66,0.31c0.3,0,0.52-0.1,0.69-0.31
			C55.83,21.63,55.91,21.38,55.91,21.08z M56.27,18.48h-1v-0.93h1V18.48z"/>
		<path d="M61.11,22.99h-1.25c-0.19,0.89-0.91,1.33-2.2,1.33v-0.91c0.74,0,1.11-0.36,1.11-1.07v-3.01h1.14v2.57h1.19V22.99z"/>
		<path d="M61.7,24.33h-1v-0.94h1V24.33z M64.52,22.99h-3.63v-1.08h0.74c0.38,0,0.56-0.26,0.56-0.77v-1.8h1.14v1.76
			c0,0.3-0.04,0.56-0.13,0.81h1.32V22.99z M63.22,24.33h-1v-0.94h1V24.33z"/>
		<path d="M67.98,22.99h-3.64v-1.08h0.74c0.38,0,0.57-0.26,0.57-0.77v-1.8h1.14v1.76c0,0.3-0.05,0.56-0.14,0.81h1.32V22.99z
			 M66.69,24.33h-1v-0.94h1V24.33z"/>
		<path d="M73.42,22.99h-5.88v-1.08h4.65c-0.11-0.88-0.78-1.54-1.64-1.54h-2.03l1.61-2.58h1.34l-1.02,1.53h0.62
			c1.54,0.16,2.34,1.35,2.34,3.25V22.99z"/>
		<path d="M79.19,22.99h-1.25c-0.19,0.89-0.91,1.33-2.2,1.33v-0.91c0.74,0,1.11-0.36,1.11-1.07v-3.01H78v2.57h1.19V22.99z"/>
		<path d="M85.71,22.99h-7.1v-1.08h1.66v-4.12h1.12l-0.11,2.64c0.73-0.76,1.45-1.11,2.25-1.11c1.45,0,2.22,1.12,2.22,2.93
			C85.75,22.49,85.74,22.74,85.71,22.99z M84.57,21.91c0.01-0.06,0.01-0.1,0.01-0.16c0-0.84-0.42-1.44-1.12-1.44
			c-0.83,0-1.57,0.54-2.2,1.61H84.57z"/>
		<path d="M89.01,22.99h-1.07c-0.86,0-1.36-0.5-1.36-1.33v-3.87h1.13v3.29c0,0.55,0.14,0.84,0.97,0.84h0.33V22.99z"/>
		<path d="M95.4,22.99h-6.59v-1.08h4.58c-0.02-0.43-0.18-0.79-0.46-1.1c-0.31-0.35-0.73-0.52-1.24-0.52c-0.48,0-1.03,0.25-1.35,0.58
			c-0.11-0.15-0.3-0.4-0.57-0.77c0.55-0.57,1.21-0.86,1.99-0.86c0.48,0,0.9,0.09,1.26,0.26c0.86,0.41,1.37,1.21,1.51,2.41h0.86
			V22.99z M92.26,18.72h-1v-0.93h1V18.72z"/>
		<path d="M99.97,21.84c0,1.08-0.73,1.84-1.86,1.84c-0.69,0-1.2-0.23-1.53-0.69h-1.45v-1.08h1.12c0-1.15,0.66-1.89,1.82-1.89
			C99.24,20.02,99.97,20.74,99.97,21.84z M98.85,21.88c0-0.64-0.24-0.96-0.72-0.96h-0.08c-0.41,0-0.69,0.38-0.69,0.91
			c0,0.55,0.27,0.93,0.76,0.93C98.56,22.76,98.85,22.41,98.85,21.88z"/>
		<path d="M109.25,22.99h-0.06c-0.65,0-1.14-0.16-1.45-0.48c-0.25,1.09-1.4,1.82-2.71,1.82c-1.62,0-2.89-1.19-2.89-2.75v-0.97h1.13
			v0.86c0,1.08,0.64,1.81,1.78,1.81c0.87,0,1.7-0.55,1.7-1.3c0-0.43-0.36-0.71-0.75-0.71c-0.06,0-0.13,0.01-0.19,0.02v-0.98
			c0-0.01,0.16-0.01,0.49-0.01c0.81,0,1.42,0.37,1.81,1.11c0.19,0.37,0.48,0.49,0.96,0.49h0.18V22.99z"/>
		<path d="M112.77,22.99h-3.67v-1.08h0.77c0.38,0,0.57-0.26,0.57-0.77v-3.34h1.14v3.3c0,0.3-0.05,0.56-0.14,0.81h1.32V22.99z"/>
		<path d="M117.11,22.99h-4.54v-1.08h1.28c-0.1-0.28-0.16-0.54-0.16-0.77c0-0.52,0.17-0.98,0.51-1.35c0.35-0.37,0.78-0.56,1.32-0.56
			c0.69,0,1.27,0.39,1.55,1.03l-0.93,0.43c-0.1-0.31-0.31-0.48-0.65-0.48c-0.23,0-0.4,0.09-0.52,0.27c-0.11,0.15-0.17,0.36-0.17,0.6
			c0,0.43,0.15,0.71,0.45,0.83h1.87V22.99z"/>
		<path d="M124.52,22.99h-1.14c-0.65,0-1.1-0.33-1.36-0.99c-0.2,0.32-0.59,0.48-1.15,0.48c-0.97,0-1.59-0.84-1.59-1.95
			c0-1.2,0.6-1.98,1.67-1.98c0-0.01,0.72-0.01,2.16-0.01v2.54c0,0.53,0.27,0.82,0.82,0.82h0.58V22.99z M121.19,17.79h-1v-0.94h1
			V17.79z M121.95,20.44v-1.07h-0.74c-0.46,0-0.8,0.51-0.8,1.14c0,0.57,0.32,1.03,0.78,1.03C121.66,21.54,121.95,21.1,121.95,20.44z
			 M122.71,17.79h-1v-0.94h1V17.79z"/>
		<path d="M125.13,24.33h-1v-0.94h1V24.33z M127.94,22.99h-3.63v-1.08h0.74c0.38,0,0.56-0.26,0.56-0.77v-1.8h1.14v1.76
			c0,0.3-0.04,0.56-0.13,0.81h1.32V22.99z M126.64,24.33h-1v-0.94h1V24.33z"/>
		<path d="M130.14,21.43c0,0.43-0.12,0.78-0.36,1.07c-0.27,0.33-0.64,0.49-1.11,0.49h-1.07v-1.08h0.83c0.38,0,0.57-0.27,0.57-0.79
			v-3.33h1.13V21.43z"/>
		<path d="M133.39,22.99h-1.07c-0.86,0-1.36-0.5-1.36-1.33v-3.87h1.13v3.29c0,0.55,0.14,0.84,0.97,0.84h0.33V22.99z"/>
		<path d="M138.73,22.99h-1.29c-0.33,0.46-0.84,0.69-1.51,0.69c-0.69,0-1.2-0.23-1.53-0.69h-1.24v-1.08h0.9
			c0-1.16,0.66-1.89,1.83-1.89c1.18,0,1.89,0.7,1.89,1.89h0.94V22.99z M136.67,21.88c0-0.64-0.24-0.96-0.72-0.96h-0.08
			c-0.41,0-0.69,0.39-0.69,0.91c0,0.54,0.27,0.93,0.75,0.93C136.39,22.76,136.67,22.42,136.67,21.88z"/>
		<path d="M140.85,21.43c0,0.43-0.12,0.78-0.36,1.07c-0.27,0.33-0.64,0.49-1.11,0.49h-1.07v-1.08h0.83c0.38,0,0.57-0.27,0.57-0.79
			v-3.33h1.13V21.43z"/>
		<path d="M142.8,22.99h-1.13v-5.21h1.13V22.99z"/>
	</g>
</g>
</svg>
