<?xml version="1.0" encoding="utf-8"?>
<!-- Generator: Adobe Illustrator 27.3.1, SVG Export Plug-In . SVG Version: 6.00 Build 0)  -->
<svg version="1.1" xmlns="http://www.w3.org/2000/svg" xmlns:xlink="http://www.w3.org/1999/xlink" x="0px" y="0px"
	 viewBox="0 0 300 600" style="enable-background:new 0 0 300 600;" xml:space="preserve">
<style type="text/css">
	.st0{fill:#FFFFFF;}
</style>
<g id="Layer_1">
	<g>
		<rect y="580" class="st0" width="300" height="20"/>
		<g>
			<path d="M44.44,592.63h-0.99v-1.07h0.99V592.63z"/>
			<path d="M48.96,590.7c0,0.59-0.18,1.06-0.53,1.41c-0.35,0.36-0.83,0.53-1.42,0.53c-0.6,0-1.07-0.18-1.44-0.52
				c-0.35-0.35-0.53-0.82-0.53-1.41c0-0.59,0.18-1.06,0.52-1.41c0.35-0.35,0.81-0.52,1.4-0.52c0.6,0,1.08,0.17,1.44,0.52
				C48.77,589.62,48.96,590.09,48.96,590.7z M46.71,588.14h-1v-0.93h1V588.14z M47.87,590.74c0-0.74-0.3-1.11-0.9-1.11
				c-0.59,0-0.88,0.37-0.88,1.11c0,0.3,0.07,0.55,0.22,0.73c0.15,0.21,0.38,0.31,0.66,0.31c0.3,0,0.52-0.1,0.69-0.31
				C47.8,591.29,47.87,591.04,47.87,590.74z M48.24,588.14h-1v-0.93h1V588.14z"/>
			<path d="M51.88,591.9c0,0.74-0.19,1.28-0.56,1.61c-0.35,0.32-0.91,0.47-1.69,0.47v-0.91c0.74,0,1.11-0.36,1.11-1.06v-3.01h1.14
				V591.9z"/>
			<path d="M55.14,592.64h-1.07c-0.86,0-1.36-0.5-1.36-1.33v-3.87h1.13v3.29c0,0.55,0.14,0.84,0.97,0.84h0.33V592.64z"/>
			<path d="M63.26,592.64h-8.31v-1.08h0.86c0.37,0,0.57-0.2,0.57-0.77v-1.81h1.14v1.76c0,0.3-0.05,0.57-0.14,0.81h0.72
				c0.38,0,0.57-0.24,0.57-0.72v-1.85h1.13v1.76c0,0.3-0.05,0.57-0.14,0.81h0.72c0.38,0,0.57-0.24,0.57-0.72v-1.85h1.14v1.75
				c0,0.3-0.05,0.57-0.15,0.82h1.32V592.64z"/>
			<path d="M69.63,592.64h-6.59v-1.08h4.58c-0.02-0.43-0.18-0.79-0.46-1.1c-0.31-0.35-0.73-0.52-1.24-0.52
				c-0.48,0-1.03,0.25-1.35,0.58c-0.11-0.15-0.3-0.4-0.56-0.77c0.55-0.57,1.21-0.86,1.99-0.86c0.48,0,0.9,0.09,1.26,0.26
				c0.86,0.41,1.37,1.21,1.51,2.4h0.86V592.64z M66.49,588.37h-1v-0.93h1V588.37z"/>
			<path d="M71.81,591.08c0,0.43-0.12,0.78-0.36,1.06c-0.27,0.33-0.64,0.49-1.11,0.49h-1.07v-1.08h0.83c0.38,0,0.57-0.27,0.57-0.79
				v-3.32h1.13V591.08z"/>
			<path d="M75.06,592.64h-1.07c-0.86,0-1.36-0.5-1.36-1.33v-3.87h1.13v3.29c0,0.55,0.14,0.84,0.97,0.84h0.33V592.64z"/>
			<path d="M77.31,591.08c0,0.43-0.12,0.78-0.35,1.06c-0.27,0.33-0.64,0.49-1.11,0.49h-0.96v-1.08h0.72c0.38,0,0.57-0.27,0.57-0.79
				v-1.78h1.13V591.08z M77.24,593.98h-1v-0.94h1V593.98z"/>
			<path d="M83.4,590.7c0,0.59-0.18,1.06-0.53,1.41c-0.35,0.36-0.83,0.53-1.42,0.53c-0.6,0-1.07-0.18-1.44-0.52
				c-0.35-0.35-0.53-0.82-0.53-1.41c0-0.59,0.18-1.06,0.52-1.41c0.35-0.35,0.81-0.52,1.4-0.52c0.6,0,1.08,0.17,1.44,0.52
				C83.22,589.62,83.4,590.09,83.4,590.7z M81.16,588.14h-1v-0.93h1V588.14z M82.32,590.74c0-0.74-0.3-1.11-0.9-1.11
				c-0.59,0-0.88,0.37-0.88,1.11c0,0.3,0.07,0.55,0.22,0.73c0.15,0.21,0.38,0.31,0.66,0.31c0.3,0,0.52-0.1,0.69-0.31
				C82.25,591.29,82.32,591.04,82.32,590.74z M82.68,588.14h-1v-0.93h1V588.14z"/>
			<path d="M87.52,592.64h-1.25c-0.19,0.89-0.91,1.33-2.2,1.33v-0.91c0.74,0,1.11-0.36,1.11-1.06v-3.01h1.14v2.57h1.19V592.64z"/>
			<path d="M88.11,593.98h-1v-0.94h1V593.98z M90.93,592.64H87.3v-1.08h0.74c0.38,0,0.56-0.26,0.56-0.77v-1.8h1.14v1.76
				c0,0.3-0.04,0.56-0.13,0.81h1.32V592.64z M89.63,593.98h-1v-0.94h1V593.98z"/>
			<path d="M94.4,592.64h-3.64v-1.08h0.74c0.38,0,0.57-0.26,0.57-0.77v-1.8h1.14v1.76c0,0.3-0.05,0.56-0.14,0.81h1.32V592.64z
				 M93.1,593.98h-1v-0.94h1V593.98z"/>
			<path d="M99.84,592.64h-5.88v-1.08h4.65c-0.11-0.88-0.78-1.54-1.64-1.54h-2.03l1.61-2.57h1.34l-1.02,1.53h0.62
				c1.54,0.16,2.34,1.35,2.34,3.24V592.64z"/>
			<path d="M105.61,592.64h-1.25c-0.19,0.89-0.91,1.33-2.2,1.33v-0.91c0.74,0,1.11-0.36,1.11-1.06v-3.01h1.14v2.57h1.19V592.64z"/>
			<path d="M112.13,592.64h-7.1v-1.08h1.65v-4.12h1.12l-0.1,2.64c0.73-0.76,1.45-1.11,2.25-1.11c1.45,0,2.22,1.12,2.22,2.93
				C112.17,592.14,112.15,592.39,112.13,592.64z M110.98,591.56c0.01-0.05,0.01-0.1,0.01-0.16c0-0.84-0.42-1.45-1.12-1.45
				c-0.83,0-1.57,0.54-2.2,1.61H110.98z"/>
			<path d="M115.43,592.64h-1.07c-0.86,0-1.36-0.5-1.36-1.33v-3.87h1.13v3.29c0,0.55,0.14,0.84,0.97,0.84h0.33V592.64z"/>
			<path d="M121.81,592.64h-6.59v-1.08h4.58c-0.02-0.43-0.18-0.79-0.46-1.1c-0.31-0.35-0.73-0.52-1.24-0.52
				c-0.48,0-1.03,0.25-1.35,0.58c-0.11-0.15-0.3-0.4-0.56-0.77c0.55-0.57,1.21-0.86,1.99-0.86c0.48,0,0.9,0.09,1.26,0.26
				c0.86,0.41,1.37,1.21,1.51,2.4h0.86V592.64z M118.67,588.37h-1v-0.93h1V588.37z"/>
			<path d="M126.38,591.49c0,1.08-0.73,1.84-1.86,1.84c-0.69,0-1.2-0.23-1.53-0.7h-1.45v-1.08h1.12c0-1.15,0.66-1.89,1.82-1.89
				C125.65,589.67,126.38,590.39,126.38,591.49z M125.26,591.54c0-0.64-0.24-0.96-0.72-0.96h-0.08c-0.41,0-0.69,0.38-0.69,0.91
				c0,0.55,0.27,0.93,0.76,0.93C124.97,592.42,125.26,592.06,125.26,591.54z"/>
			<path d="M135.66,592.64h-0.06c-0.65,0-1.14-0.16-1.45-0.48c-0.25,1.09-1.4,1.82-2.71,1.82c-1.61,0-2.89-1.19-2.89-2.75v-0.97
				h1.13v0.86c0,1.08,0.64,1.81,1.78,1.81c0.87,0,1.7-0.55,1.7-1.3c0-0.43-0.36-0.71-0.75-0.71c-0.06,0-0.13,0.01-0.19,0.02v-0.98
				c0-0.01,0.16-0.01,0.49-0.01c0.82,0,1.42,0.37,1.81,1.11c0.19,0.37,0.48,0.49,0.96,0.49h0.18V592.64z"/>
			<path d="M139.18,592.64h-3.66v-1.08h0.77c0.38,0,0.57-0.26,0.57-0.77v-3.34h1.14v3.3c0,0.3-0.05,0.56-0.14,0.81h1.32V592.64z"/>
			<path d="M143.52,592.64h-4.54v-1.08h1.27c-0.1-0.28-0.16-0.54-0.16-0.77c0-0.53,0.17-0.98,0.51-1.35
				c0.35-0.37,0.78-0.56,1.32-0.56c0.69,0,1.27,0.39,1.55,1.03l-0.93,0.43c-0.11-0.31-0.32-0.48-0.65-0.48
				c-0.23,0-0.4,0.09-0.52,0.28c-0.11,0.15-0.17,0.36-0.17,0.6c0,0.43,0.15,0.71,0.45,0.83h1.87V592.64z"/>
			<path d="M150.93,592.64h-1.14c-0.65,0-1.1-0.33-1.36-0.99c-0.2,0.31-0.59,0.48-1.15,0.48c-0.97,0-1.59-0.84-1.59-1.95
				c0-1.2,0.6-1.98,1.67-1.98c0-0.01,0.72-0.01,2.16-0.01v2.54c0,0.53,0.27,0.82,0.82,0.82h0.58V592.64z M147.6,587.44h-1v-0.94h1
				V587.44z M148.36,590.09v-1.06h-0.74c-0.46,0-0.8,0.51-0.8,1.14c0,0.57,0.32,1.03,0.78,1.03
				C148.07,591.2,148.36,590.75,148.36,590.09z M149.12,587.44h-1v-0.94h1V587.44z"/>
			<path d="M151.54,593.98h-1v-0.94h1V593.98z M154.36,592.64h-3.63v-1.08h0.74c0.38,0,0.56-0.26,0.56-0.77v-1.8h1.14v1.76
				c0,0.3-0.04,0.56-0.13,0.81h1.32V592.64z M153.06,593.98h-1v-0.94h1V593.98z"/>
			<path d="M156.55,591.08c0,0.43-0.12,0.78-0.36,1.06c-0.27,0.33-0.64,0.49-1.11,0.49h-1.07v-1.08h0.83c0.38,0,0.57-0.27,0.57-0.79
				v-3.32h1.13V591.08z"/>
			<path d="M159.8,592.64h-1.07c-0.86,0-1.36-0.5-1.36-1.33v-3.87h1.13v3.29c0,0.55,0.14,0.84,0.97,0.84h0.33V592.64z"/>
			<path d="M165.15,592.64h-1.29c-0.33,0.46-0.84,0.7-1.51,0.7c-0.69,0-1.2-0.23-1.53-0.7h-1.24v-1.08h0.9
				c0-1.16,0.66-1.89,1.83-1.89c1.18,0,1.89,0.7,1.89,1.89h0.94V592.64z M163.08,591.54c0-0.64-0.24-0.96-0.72-0.96h-0.08
				c-0.41,0-0.69,0.39-0.69,0.91c0,0.54,0.27,0.93,0.75,0.93C162.81,592.42,163.08,592.08,163.08,591.54z"/>
			<path d="M167.26,591.08c0,0.43-0.12,0.78-0.36,1.06c-0.27,0.33-0.64,0.49-1.11,0.49h-1.07v-1.08h0.83c0.38,0,0.57-0.27,0.57-0.79
				v-3.32h1.13V591.08z"/>
			<path d="M169.21,592.64h-1.13v-5.21h1.13V592.64z"/>
			<path d="M176.73,592.64h-1.14c-0.65,0-1.1-0.33-1.36-0.99c-0.2,0.31-0.59,0.48-1.15,0.48c-0.97,0-1.59-0.84-1.59-1.95
				c0-1.2,0.61-1.98,1.67-1.98c0-0.01,0.72-0.01,2.16-0.01v2.54c0,0.53,0.27,0.82,0.82,0.82h0.58V592.64z M173.4,587.44h-1v-0.94h1
				V587.44z M174.16,590.09v-1.06h-0.74c-0.46,0-0.8,0.51-0.8,1.14c0,0.57,0.32,1.03,0.78,1.03
				C173.87,591.2,174.16,590.75,174.16,590.09z M174.92,587.44h-1v-0.94h1V587.44z"/>
			<path d="M183.31,592.64h-2.08c-0.47,0-0.89-0.19-1.25-0.56c-0.19,0.16-0.44,0.3-0.76,0.4c-0.34,0.1-0.67,0.16-1,0.16h-1.78v-1.08
				h1.76c0.4,0,0.75-0.09,1.05-0.27c-0.12-0.17-0.33-0.34-0.61-0.52c-0.34-0.21-0.67-0.35-0.99-0.4v-0.93
				c0.73-0.44,1.49-0.65,2.24-0.65c0.9,0,1.73,0.3,2.49,0.89c-0.09,0.22-0.29,0.51-0.59,0.86c-0.33,0.38-0.64,0.65-0.93,0.83
				c0.15,0.14,0.35,0.2,0.61,0.2h1.84V592.64z M180.99,589.97c-0.35-0.18-0.69-0.27-1.02-0.27c-0.32,0-0.65,0.07-0.96,0.23
				c0.24,0.1,0.44,0.22,0.58,0.32s0.31,0.27,0.5,0.48c0.16-0.07,0.34-0.2,0.52-0.37C180.78,590.22,180.91,590.09,180.99,589.97z"/>
			<path d="M187.8,590.8c0,0.55-0.17,0.99-0.51,1.33c-0.33,0.34-0.78,0.51-1.34,0.51h-2.96v-1.08h1.21
				c-0.09-0.23-0.13-0.48-0.13-0.75c0-1.12,0.7-1.83,1.82-1.83c0.57,0,1.03,0.16,1.37,0.48C187.62,589.78,187.8,590.23,187.8,590.8z
				 M186.67,590.83c0-0.64-0.24-0.95-0.72-0.95h-0.08c-0.23,0-0.4,0.1-0.53,0.3c-0.11,0.17-0.16,0.38-0.16,0.61
				c0,0.27,0.06,0.48,0.18,0.64c0.14,0.2,0.33,0.29,0.58,0.29c0.23,0,0.42-0.09,0.56-0.27
				C186.62,591.29,186.67,591.08,186.67,590.83z M186.37,588.36h-1v-0.93h1V588.36z"/>
			<path d="M189.75,592.64h-1.13v-5.21h1.13V592.64z"/>
			<path d="M193.98,592.64h-1.25c-0.19,0.89-0.91,1.33-2.2,1.33v-0.91c0.74,0,1.11-0.36,1.11-1.06v-3.01h1.14v2.57h1.19V592.64z"/>
			<path d="M196.08,591.08c0,0.43-0.12,0.78-0.36,1.06c-0.27,0.33-0.64,0.49-1.11,0.49h-1.07v-1.08h0.83c0.38,0,0.57-0.27,0.57-0.79
				v-3.32h1.13V591.08z"/>
			<path d="M199.33,592.64h-1.07c-0.86,0-1.36-0.5-1.36-1.33v-3.87h1.13v3.29c0,0.55,0.14,0.84,0.97,0.84h0.33V592.64z"/>
			<path d="M201.58,591.08c0,0.43-0.12,0.78-0.36,1.06c-0.27,0.33-0.64,0.49-1.11,0.49h-0.96v-1.08h0.72c0.38,0,0.57-0.27,0.57-0.79
				v-1.78h1.13V591.08z M201.52,593.98h-1v-0.94h1V593.98z"/>
			<path d="M208.86,591.24c0,1.59-1.04,2.74-2.55,2.74c-1.42,0-2.55-1.19-2.55-2.74v-0.8h1.12v0.69c0,1.05,0.56,1.8,1.44,1.8
				c0.89,0,1.4-0.69,1.4-1.8v-3.69h1.14V591.24z"/>
			<path d="M213.22,592.48c0,0.99-0.61,1.49-1.85,1.49h-0.11v-0.9h0.07c0.45,0,0.9-0.31,0.9-0.75c-0.15,0.25-0.42,0.37-0.8,0.37
				c-1.04,0-1.82-0.79-1.82-1.87c0-1.11,0.76-1.85,1.82-1.85c1.04,0,1.79,0.8,1.79,1.87V592.48z M212.09,590.83
				c0-0.49-0.28-0.84-0.69-0.84c-0.4,0-0.66,0.34-0.66,0.81c0,0.45,0.26,0.83,0.7,0.83C211.85,591.64,212.09,591.33,212.09,590.83z"
				/>
			<path d="M215.18,592.64h-1.13v-5.21h1.13V592.64z"/>
			<path d="M221.28,592.64h-5.23v-1.08h2.93c0-1.13-0.61-1.63-2.05-1.63v-0.95c0.71,0,1.21,0.05,1.51,0.15
				c1.11,0.39,1.67,1.19,1.67,2.41h1.17V592.64z"/>
			<path d="M221.89,588.37h-1v-0.93h1V588.37z M224.69,592.64h-3.64v-1.08h0.74c0.38,0,0.57-0.26,0.57-0.77v-1.8h1.14v1.76
				c0,0.3-0.05,0.56-0.14,0.81h1.32V592.64z M223.41,588.37h-1v-0.93h1V588.37z"/>
			<path d="M226.88,591.08c0,0.43-0.12,0.78-0.36,1.06c-0.27,0.33-0.64,0.49-1.11,0.49h-1.07v-1.08h0.83c0.38,0,0.57-0.27,0.57-0.79
				v-3.32h1.13V591.08z"/>
			<path d="M228.83,592.64h-1.13v-5.21h1.13V592.64z"/>
			<path d="M237.43,592.64h-1.56c-0.44,0.84-1.26,1.34-2.2,1.34c-1.42,0-2.55-1.19-2.55-2.74v-0.8h1.13v0.69
				c0,1.06,0.52,1.8,1.43,1.8c0.89,0,1.41-0.67,1.41-1.8v-3.69h1.13v4.12h1.21V592.64z"/>
			<path d="M242.75,592.64h-1.29c-0.33,0.46-0.84,0.7-1.51,0.7c-0.69,0-1.2-0.23-1.53-0.7h-1.24v-1.08h0.9
				c0-1.16,0.66-1.89,1.83-1.89c1.18,0,1.89,0.7,1.89,1.89h0.94V592.64z M240.68,591.54c0-0.64-0.24-0.96-0.72-0.96h-0.08
				c-0.41,0-0.69,0.39-0.69,0.91c0,0.54,0.27,0.93,0.75,0.93C240.4,592.42,240.68,592.08,240.68,591.54z"/>
			<path d="M243.34,588.37h-1v-0.93h1V588.37z M246.13,592.64h-3.64v-1.08h0.74c0.38,0,0.57-0.26,0.57-0.77v-1.8h1.14v1.76
				c0,0.3-0.05,0.56-0.14,0.81h1.32V592.64z M244.86,588.37h-1v-0.93h1V588.37z"/>
			<path d="M254.27,592.64h-8.48v-1.08h1.02c0.37,0,0.57-0.2,0.57-0.77v-1.81h1.14v1.76c0,0.3-0.05,0.57-0.14,0.81h0.72
				c0.38,0,0.57-0.24,0.57-0.72v-1.85h1.13v1.76c0,0.3-0.05,0.57-0.14,0.81h0.72c0.38,0,0.57-0.24,0.57-0.72v-1.85h1.14v1.75
				c0,0.3-0.05,0.57-0.15,0.82h1.32V592.64z M249.95,588.37h-1.01v-0.93h1.01V588.37z M250.69,587.04h-1v-0.93h1V587.04z
				 M251.47,588.37h-1v-0.93h1V588.37z"/>
			<path d="M254.9,593.98h-1v-0.94h1V593.98z M256.5,591.08c0,0.43-0.12,0.78-0.36,1.06c-0.27,0.33-0.64,0.49-1.11,0.49h-0.96v-1.08
				h0.72c0.38,0,0.57-0.27,0.57-0.79v-1.78h1.13V591.08z M256.43,593.98h-1.01v-0.94h1.01V593.98z"/>
		</g>
	</g>
</g>
<g id="Layer_3">
</g>
<g id="Layer_4">
</g>
</svg>
