<svg xmlns="http://www.w3.org/2000/svg" xmlns:xlink="http://www.w3.org/1999/xlink" version="1.1" x="0px" y="0px" style="enable-background:new 0 0 300 600;" xml:space="preserve" viewBox="64.62 305.28 170.76 39.08">
<style type="text/css">
	.st0{fill:#14944F;}
	.st1{fill:#FFFFFF;}
</style>
<g id="Layer_1">
</g>
<g id="Layer_3">
	<g>
		<g>
			<g>
				<path class="st0" d="M84.16,305.28h131.68c10.79,0,19.54,8.75,19.54,19.54l0,0c0,10.79-8.75,19.54-19.54,19.54H84.16      c-10.79,0-19.54-8.75-19.54-19.54l0,0C64.62,314.03,73.37,305.28,84.16,305.28z"/>
			</g>
			<g>
				<path class="st1" d="M117.54,324.55c0,1.29-0.4,2.29-1.18,3.03c-0.78,0.73-1.8,1.09-3.07,1.09c-1.25,0-2.25-0.38-3-1.13      s-1.11-1.74-1.11-3c0-0.62,0.09-1.18,0.29-1.69h-1.16c-1.42,0-2.12,0.93-2.12,2.76v6.01h-2.51v-6.41c0-1.56,0.45-2.78,1.34-3.63      c0.82-0.8,1.87-1.2,3.18-1.2h5.17c1.25,0,2.27,0.38,3.01,1.14C117.16,322.3,117.54,323.3,117.54,324.55z M115.04,324.48      c0-0.56-0.13-1.04-0.4-1.4c-0.31-0.42-0.73-0.62-1.27-0.62c-0.56,0-0.98,0.22-1.29,0.65c-0.27,0.38-0.4,0.87-0.4,1.43      s0.13,1.02,0.36,1.4c0.29,0.45,0.69,0.67,1.2,0.67h0.18C114.49,326.62,115.04,325.91,115.04,324.48z"/>
				<path class="st1" d="M129.76,328.62h-2.4c-0.29,2-1.67,3-4.14,3h-0.27v-2.03h0.22c0.98,0,1.56-0.36,1.76-1.07      c-0.2,0.07-0.71,0.11-1.56,0.11c-2.38,0-4.12-1.72-4.12-4.14c0-2.45,1.71-4.1,4.12-4.1c2.32,0,4.03,1.74,4.03,4.16v1.65h2.36      V328.62z M124.86,326.19v-1.76c0-1.07-0.64-1.76-1.56-1.76c-0.96,0-1.47,0.75-1.47,1.71c0,1.04,0.62,1.82,1.56,1.82H124.86z"/>
				<path class="st1" d="M131.14,331.63h-2.25v-2.11h2.25V331.63z M137.47,328.62h-8.17v-2.43h1.67c0.85,0,1.27-0.58,1.27-1.74      v-4.05h2.56v3.96c0,0.67-0.09,1.27-0.29,1.83h2.96V328.62z M134.55,331.63h-2.25v-2.11h2.25V331.63z"/>
				<path class="st1" d="M142.41,325.11c0,0.96-0.27,1.76-0.8,2.4c-0.6,0.74-1.43,1.11-2.51,1.11h-2.4v-2.43h1.87      c0.85,0,1.29-0.6,1.29-1.78v-7.48h2.54V325.11z"/>
				<path class="st1" d="M146.8,328.62h-2.54v-11.71h2.54V328.62z"/>
				<path class="st1" d="M163.42,325.46c0,3.58-2.34,6.17-5.74,6.17c-3.2,0-5.74-2.69-5.74-6.17v-1.8h2.52v1.56      c0,2.36,1.25,4.05,3.23,4.05c2,0,3.16-1.56,3.16-4.05v-8.3h2.56V325.46z"/>
				<path class="st1" d="M173.24,328.26c0,2.23-1.38,3.36-4.16,3.36h-0.25v-2.03h0.16c1.02,0,2.02-0.71,2.02-1.69      c-0.34,0.56-0.94,0.84-1.8,0.84c-2.34,0-4.08-1.78-4.08-4.21c0-2.49,1.71-4.16,4.08-4.16c2.34,0,4.03,1.8,4.03,4.19V328.26z       M170.7,324.55c0-1.11-0.64-1.89-1.54-1.89c-0.89,0-1.49,0.76-1.49,1.83c0,1.02,0.58,1.87,1.58,1.87      C170.15,326.37,170.7,325.66,170.7,324.55z"/>
				<path class="st1" d="M177.65,328.62h-2.54v-11.71h2.54V328.62z"/>
				<path class="st1" d="M191.38,328.62h-11.77v-2.43h6.59c0-2.54-1.38-3.67-4.61-3.67v-2.12c1.6,0,2.72,0.11,3.4,0.34      c2.5,0.89,3.76,2.69,3.76,5.43h2.63V328.62z"/>
				<path class="st1" d="M192.72,319.01h-2.25v-2.09h2.25V319.01z M196.31,325.11c0,0.96-0.27,1.76-0.8,2.4      c-0.6,0.74-1.43,1.11-2.49,1.11h-2.16v-2.43h1.62c0.85,0,1.29-0.6,1.29-1.78v-4.01h2.54V325.11z M196.15,319.01h-2.27v-2.09      h2.27V319.01z"/>
			</g>
		</g>
	</g>
</g>
<g id="Layer_4">
</g>
</svg>