<?xml version="1.0" encoding="utf-8"?>
<!-- Generator: Adobe Illustrator 27.3.1, SVG Export Plug-In . SVG Version: 6.00 Build 0)  -->
<svg version="1.1" xmlns="http://www.w3.org/2000/svg" xmlns:xlink="http://www.w3.org/1999/xlink" x="0px" y="0px"
	 viewBox="0 0 728 15" style="enable-background:new 0 0 728 15;" xml:space="preserve">
<style type="text/css">
	.st0{fill:#FFFFFF;}
</style>
<g id="Layer_1">
	<g>
		<rect class="st0" width="728" height="15"/>
		<g>
			<path d="M258.44,9.49h-0.99V8.42h0.99V9.49z"/>
			<path d="M262.96,7.55c0,0.59-0.18,1.06-0.53,1.41c-0.35,0.36-0.83,0.53-1.42,0.53c-0.6,0-1.07-0.18-1.44-0.52
				c-0.35-0.35-0.53-0.82-0.53-1.41c0-0.59,0.18-1.07,0.52-1.41c0.35-0.35,0.81-0.52,1.4-0.52c0.6,0,1.08,0.17,1.44,0.52
				C262.77,6.48,262.96,6.95,262.96,7.55z M260.71,5h-1V4.07h1V5z M261.87,7.59c0-0.74-0.3-1.11-0.9-1.11
				c-0.59,0-0.88,0.37-0.88,1.11c0,0.3,0.07,0.55,0.22,0.73c0.15,0.21,0.38,0.31,0.66,0.31c0.3,0,0.52-0.1,0.69-0.31
				C261.8,8.14,261.87,7.89,261.87,7.59z M262.24,5h-1V4.07h1V5z"/>
			<path d="M265.88,8.76c0,0.74-0.19,1.28-0.56,1.61c-0.35,0.32-0.91,0.47-1.69,0.47V9.92c0.74,0,1.11-0.36,1.11-1.07V5.84h1.14
				V8.76z"/>
			<path d="M269.14,9.5h-1.07c-0.86,0-1.36-0.5-1.36-1.33V4.29h1.13v3.29c0,0.55,0.14,0.84,0.97,0.84h0.33V9.5z"/>
			<path d="M277.26,9.5h-8.31V8.42h0.86c0.37,0,0.57-0.2,0.57-0.77V5.84h1.14V7.6c0,0.3-0.05,0.57-0.14,0.81h0.72
				c0.38,0,0.57-0.24,0.57-0.73V5.84h1.13V7.6c0,0.3-0.05,0.57-0.14,0.81h0.72c0.38,0,0.57-0.24,0.57-0.73V5.84h1.14v1.75
				c0,0.3-0.05,0.57-0.15,0.82h1.32V9.5z"/>
			<path d="M283.63,9.5h-6.59V8.42h4.58c-0.02-0.43-0.18-0.79-0.46-1.1c-0.31-0.35-0.73-0.52-1.24-0.52c-0.48,0-1.03,0.25-1.35,0.58
				c-0.11-0.15-0.3-0.4-0.56-0.77c0.55-0.57,1.21-0.86,1.99-0.86c0.48,0,0.9,0.09,1.26,0.26c0.86,0.41,1.37,1.21,1.51,2.41h0.86V9.5
				z M280.49,5.23h-1V4.3h1V5.23z"/>
			<path d="M285.81,7.94c0,0.43-0.12,0.78-0.36,1.07c-0.27,0.33-0.64,0.49-1.11,0.49h-1.07V8.42h0.83c0.38,0,0.57-0.27,0.57-0.79
				V4.3h1.13V7.94z"/>
			<path d="M289.06,9.5h-1.07c-0.86,0-1.36-0.5-1.36-1.33V4.29h1.13v3.29c0,0.55,0.14,0.84,0.97,0.84h0.33V9.5z"/>
			<path d="M291.31,7.94c0,0.43-0.12,0.78-0.35,1.07c-0.27,0.33-0.64,0.49-1.11,0.49h-0.96V8.42h0.72c0.38,0,0.57-0.27,0.57-0.79
				V5.84h1.13V7.94z M291.24,10.84h-1V9.9h1V10.84z"/>
			<path d="M297.4,7.55c0,0.59-0.18,1.06-0.53,1.41c-0.35,0.36-0.83,0.53-1.42,0.53c-0.6,0-1.07-0.18-1.44-0.52
				c-0.35-0.35-0.53-0.82-0.53-1.41c0-0.59,0.18-1.07,0.52-1.41c0.35-0.35,0.81-0.52,1.4-0.52c0.6,0,1.08,0.17,1.44,0.52
				C297.22,6.48,297.4,6.95,297.4,7.55z M295.16,5h-1V4.07h1V5z M296.32,7.59c0-0.74-0.3-1.11-0.9-1.11c-0.59,0-0.88,0.37-0.88,1.11
				c0,0.3,0.07,0.55,0.22,0.73c0.15,0.21,0.38,0.31,0.66,0.31c0.3,0,0.52-0.1,0.69-0.31C296.25,8.14,296.32,7.89,296.32,7.59z
				 M296.68,5h-1V4.07h1V5z"/>
			<path d="M301.52,9.5h-1.25c-0.19,0.89-0.91,1.33-2.2,1.33V9.92c0.74,0,1.11-0.36,1.11-1.07V5.84h1.14v2.57h1.19V9.5z"/>
			<path d="M302.11,10.84h-1V9.9h1V10.84z M304.93,9.5h-3.63V8.42h0.74c0.38,0,0.56-0.26,0.56-0.77v-1.8h1.14V7.6
				c0,0.3-0.04,0.56-0.13,0.81h1.32V9.5z M303.63,10.84h-1V9.9h1V10.84z"/>
			<path d="M308.4,9.5h-3.64V8.42h0.74c0.38,0,0.57-0.26,0.57-0.77v-1.8h1.14V7.6c0,0.3-0.05,0.56-0.14,0.81h1.32V9.5z M307.1,10.84
				h-1V9.9h1V10.84z"/>
			<path d="M313.84,9.5h-5.88V8.42h4.65c-0.11-0.88-0.78-1.54-1.64-1.54h-2.03l1.61-2.58h1.34l-1.02,1.53h0.62
				c1.54,0.16,2.34,1.35,2.34,3.25V9.5z"/>
			<path d="M319.61,9.5h-1.25c-0.19,0.89-0.91,1.33-2.2,1.33V9.92c0.74,0,1.11-0.36,1.11-1.07V5.84h1.14v2.57h1.19V9.5z"/>
			<path d="M326.13,9.5h-7.1V8.42h1.65V4.3h1.12l-0.1,2.64c0.73-0.76,1.45-1.11,2.25-1.11c1.45,0,2.22,1.12,2.22,2.93
				C326.17,9,326.15,9.25,326.13,9.5z M324.98,8.42c0.01-0.06,0.01-0.1,0.01-0.16c0-0.84-0.42-1.44-1.12-1.44
				c-0.83,0-1.57,0.54-2.2,1.61H324.98z"/>
			<path d="M329.43,9.5h-1.07C327.5,9.5,327,9,327,8.17V4.29h1.13v3.29c0,0.55,0.14,0.84,0.97,0.84h0.33V9.5z"/>
			<path d="M335.81,9.5h-6.59V8.42h4.58c-0.02-0.43-0.18-0.79-0.46-1.1c-0.31-0.35-0.73-0.52-1.24-0.52c-0.48,0-1.03,0.25-1.35,0.58
				c-0.11-0.15-0.3-0.4-0.56-0.77c0.55-0.57,1.21-0.86,1.99-0.86c0.48,0,0.9,0.09,1.26,0.26c0.86,0.41,1.37,1.21,1.51,2.41h0.86V9.5
				z M332.67,5.23h-1V4.3h1V5.23z"/>
			<path d="M340.38,8.35c0,1.08-0.73,1.84-1.86,1.84c-0.69,0-1.2-0.23-1.53-0.69h-1.45V8.42h1.12c0-1.15,0.66-1.89,1.82-1.89
				C339.65,6.53,340.38,7.25,340.38,8.35z M339.26,8.39c0-0.64-0.24-0.96-0.72-0.96h-0.08c-0.41,0-0.69,0.38-0.69,0.91
				c0,0.55,0.27,0.93,0.76,0.93C338.97,9.27,339.26,8.92,339.26,8.39z"/>
			<path d="M349.66,9.5h-0.06c-0.65,0-1.14-0.16-1.45-0.48c-0.25,1.09-1.4,1.82-2.71,1.82c-1.61,0-2.89-1.19-2.89-2.75V7.12h1.13
				v0.86c0,1.08,0.64,1.81,1.78,1.81c0.87,0,1.7-0.55,1.7-1.3c0-0.43-0.36-0.71-0.75-0.71c-0.06,0-0.13,0.01-0.19,0.02V6.82
				c0-0.01,0.16-0.01,0.49-0.01c0.82,0,1.42,0.37,1.81,1.11c0.19,0.37,0.48,0.49,0.96,0.49h0.18V9.5z"/>
			<path d="M353.18,9.5h-3.66V8.42h0.77c0.38,0,0.57-0.26,0.57-0.77V4.3h1.14v3.3c0,0.3-0.05,0.56-0.14,0.81h1.32V9.5z"/>
			<path d="M357.52,9.5h-4.54V8.42h1.27c-0.1-0.28-0.16-0.54-0.16-0.77c0-0.52,0.17-0.98,0.51-1.35c0.35-0.37,0.78-0.56,1.32-0.56
				c0.69,0,1.27,0.39,1.55,1.03l-0.93,0.43c-0.11-0.31-0.32-0.48-0.65-0.48c-0.23,0-0.4,0.09-0.52,0.27
				c-0.11,0.15-0.17,0.36-0.17,0.6c0,0.43,0.15,0.71,0.45,0.83h1.87V9.5z"/>
			<path d="M364.93,9.5h-1.14c-0.65,0-1.1-0.33-1.36-0.99c-0.2,0.32-0.59,0.48-1.15,0.48c-0.97,0-1.59-0.84-1.59-1.95
				c0-1.2,0.6-1.98,1.67-1.98c0-0.01,0.72-0.01,2.16-0.01v2.54c0,0.53,0.27,0.82,0.82,0.82h0.58V9.5z M361.6,4.3h-1V3.36h1V4.3z
				 M362.36,6.95V5.88h-0.74c-0.46,0-0.8,0.51-0.8,1.14c0,0.57,0.32,1.03,0.78,1.03C362.07,8.05,362.36,7.61,362.36,6.95z
				 M363.12,4.3h-1V3.36h1V4.3z"/>
			<path d="M365.54,10.84h-1V9.9h1V10.84z M368.36,9.5h-3.63V8.42h0.74c0.38,0,0.56-0.26,0.56-0.77v-1.8h1.14V7.6
				c0,0.3-0.04,0.56-0.13,0.81h1.32V9.5z M367.06,10.84h-1V9.9h1V10.84z"/>
			<path d="M370.55,7.94c0,0.43-0.12,0.78-0.36,1.07c-0.27,0.33-0.64,0.49-1.11,0.49h-1.07V8.42h0.83c0.38,0,0.57-0.27,0.57-0.79
				V4.3h1.13V7.94z"/>
			<path d="M373.8,9.5h-1.07c-0.86,0-1.36-0.5-1.36-1.33V4.29h1.13v3.29c0,0.55,0.14,0.84,0.97,0.84h0.33V9.5z"/>
			<path d="M379.15,9.5h-1.29c-0.33,0.46-0.84,0.69-1.51,0.69c-0.69,0-1.2-0.23-1.53-0.69h-1.24V8.42h0.9
				c0-1.16,0.66-1.89,1.83-1.89c1.18,0,1.89,0.7,1.89,1.89h0.94V9.5z M377.08,8.39c0-0.64-0.24-0.96-0.72-0.96h-0.08
				c-0.41,0-0.69,0.39-0.69,0.91c0,0.54,0.27,0.93,0.75,0.93C376.81,9.27,377.08,8.93,377.08,8.39z"/>
			<path d="M381.26,7.94c0,0.43-0.12,0.78-0.36,1.07c-0.27,0.33-0.64,0.49-1.11,0.49h-1.07V8.42h0.83c0.38,0,0.57-0.27,0.57-0.79
				V4.3h1.13V7.94z"/>
			<path d="M383.21,9.5h-1.13V4.29h1.13V9.5z"/>
			<path d="M390.73,9.5h-1.14c-0.65,0-1.1-0.33-1.36-0.99c-0.2,0.32-0.59,0.48-1.15,0.48c-0.97,0-1.59-0.84-1.59-1.95
				c0-1.2,0.61-1.98,1.67-1.98c0-0.01,0.72-0.01,2.16-0.01v2.54c0,0.53,0.27,0.82,0.82,0.82h0.58V9.5z M387.4,4.3h-1V3.36h1V4.3z
				 M388.16,6.95V5.88h-0.74c-0.46,0-0.8,0.51-0.8,1.14c0,0.57,0.32,1.03,0.78,1.03C387.87,8.05,388.16,7.61,388.16,6.95z
				 M388.92,4.3h-1V3.36h1V4.3z"/>
			<path d="M397.31,9.5h-2.08c-0.47,0-0.89-0.19-1.25-0.57c-0.19,0.16-0.44,0.3-0.76,0.4c-0.34,0.1-0.67,0.16-1,0.16h-1.78V8.42
				h1.76c0.4,0,0.75-0.09,1.05-0.27c-0.12-0.17-0.33-0.34-0.61-0.52c-0.34-0.21-0.67-0.35-0.99-0.4V6.3
				c0.73-0.44,1.49-0.65,2.24-0.65c0.9,0,1.73,0.3,2.49,0.89c-0.09,0.22-0.29,0.51-0.59,0.86c-0.33,0.38-0.64,0.65-0.93,0.83
				c0.15,0.14,0.35,0.2,0.61,0.2h1.84V9.5z M394.99,6.83c-0.35-0.18-0.69-0.27-1.02-0.27c-0.32,0-0.65,0.07-0.96,0.23
				c0.24,0.1,0.44,0.22,0.58,0.32c0.15,0.11,0.31,0.27,0.5,0.48c0.16-0.07,0.34-0.2,0.52-0.37C394.78,7.08,394.91,6.95,394.99,6.83z
				"/>
			<path d="M401.8,7.66c0,0.55-0.17,0.99-0.51,1.33c-0.33,0.34-0.78,0.51-1.34,0.51h-2.96V8.42h1.21c-0.09-0.23-0.13-0.48-0.13-0.75
				c0-1.12,0.7-1.83,1.82-1.83c0.57,0,1.03,0.16,1.37,0.48C401.62,6.63,401.8,7.09,401.8,7.66z M400.67,7.69
				c0-0.64-0.24-0.95-0.72-0.95h-0.08c-0.23,0-0.4,0.1-0.53,0.3c-0.11,0.17-0.16,0.38-0.16,0.61c0,0.27,0.06,0.48,0.18,0.65
				c0.14,0.19,0.33,0.29,0.58,0.29c0.23,0,0.42-0.09,0.56-0.27C400.62,8.14,400.67,7.94,400.67,7.69z M400.37,5.22h-1V4.29h1V5.22z"
				/>
			<path d="M403.75,9.5h-1.13V4.29h1.13V9.5z"/>
			<path d="M407.98,9.5h-1.25c-0.19,0.89-0.91,1.33-2.2,1.33V9.92c0.74,0,1.11-0.36,1.11-1.07V5.84h1.14v2.57h1.19V9.5z"/>
			<path d="M410.08,7.94c0,0.43-0.12,0.78-0.36,1.07c-0.27,0.33-0.64,0.49-1.11,0.49h-1.07V8.42h0.83c0.38,0,0.57-0.27,0.57-0.79
				V4.3h1.13V7.94z"/>
			<path d="M413.33,9.5h-1.07c-0.86,0-1.36-0.5-1.36-1.33V4.29h1.13v3.29c0,0.55,0.14,0.84,0.97,0.84h0.33V9.5z"/>
			<path d="M415.58,7.94c0,0.43-0.12,0.78-0.36,1.07c-0.27,0.33-0.64,0.49-1.11,0.49h-0.96V8.42h0.72c0.38,0,0.57-0.27,0.57-0.79
				V5.84h1.13V7.94z M415.52,10.84h-1V9.9h1V10.84z"/>
			<path d="M422.86,8.1c0,1.59-1.04,2.74-2.55,2.74c-1.42,0-2.55-1.19-2.55-2.74V7.3h1.12v0.69c0,1.05,0.56,1.8,1.44,1.8
				c0.89,0,1.4-0.69,1.4-1.8V4.3h1.14V8.1z"/>
			<path d="M427.22,9.34c0,0.99-0.61,1.49-1.85,1.49h-0.11v-0.9h0.07c0.45,0,0.9-0.31,0.9-0.75c-0.15,0.25-0.42,0.37-0.8,0.37
				c-1.04,0-1.82-0.79-1.82-1.87c0-1.11,0.76-1.85,1.82-1.85c1.04,0,1.79,0.8,1.79,1.87V9.34z M426.09,7.69
				c0-0.49-0.28-0.84-0.69-0.84c-0.4,0-0.66,0.34-0.66,0.82c0,0.45,0.26,0.83,0.7,0.83C425.85,8.5,426.09,8.18,426.09,7.69z"/>
			<path d="M429.18,9.5h-1.13V4.29h1.13V9.5z"/>
			<path d="M435.28,9.5h-5.23V8.42h2.93c0-1.13-0.61-1.63-2.05-1.63V5.84c0.71,0,1.21,0.05,1.51,0.15c1.11,0.4,1.67,1.19,1.67,2.41
				h1.17V9.5z"/>
			<path d="M435.89,5.23h-1V4.3h1V5.23z M438.69,9.5h-3.64V8.42h0.74c0.38,0,0.57-0.26,0.57-0.77v-1.8h1.14V7.6
				c0,0.3-0.05,0.56-0.14,0.81h1.32V9.5z M437.41,5.23h-1V4.3h1V5.23z"/>
			<path d="M440.88,7.94c0,0.43-0.12,0.78-0.36,1.07c-0.27,0.33-0.64,0.49-1.11,0.49h-1.07V8.42h0.83c0.38,0,0.57-0.27,0.57-0.79
				V4.3h1.13V7.94z"/>
			<path d="M442.83,9.5h-1.13V4.29h1.13V9.5z"/>
			<path d="M451.43,9.5h-1.56c-0.44,0.84-1.26,1.34-2.2,1.34c-1.42,0-2.55-1.19-2.55-2.74V7.3h1.13v0.69c0,1.06,0.52,1.8,1.43,1.8
				c0.89,0,1.41-0.67,1.41-1.8V4.3h1.13v4.12h1.21V9.5z"/>
			<path d="M456.75,9.5h-1.29c-0.33,0.46-0.84,0.69-1.51,0.69c-0.69,0-1.2-0.23-1.53-0.69h-1.24V8.42h0.9
				c0-1.16,0.66-1.89,1.83-1.89c1.18,0,1.89,0.7,1.89,1.89h0.94V9.5z M454.68,8.39c0-0.64-0.24-0.96-0.72-0.96h-0.08
				c-0.41,0-0.69,0.39-0.69,0.91c0,0.54,0.27,0.93,0.75,0.93C454.4,9.27,454.68,8.93,454.68,8.39z"/>
			<path d="M457.34,5.23h-1V4.3h1V5.23z M460.13,9.5h-3.64V8.42h0.74c0.38,0,0.57-0.26,0.57-0.77v-1.8h1.14V7.6
				c0,0.3-0.05,0.56-0.14,0.81h1.32V9.5z M458.86,5.23h-1V4.3h1V5.23z"/>
			<path d="M468.27,9.5h-8.48V8.42h1.02c0.37,0,0.57-0.2,0.57-0.77V5.84h1.14V7.6c0,0.3-0.05,0.57-0.14,0.81h0.72
				c0.38,0,0.57-0.24,0.57-0.73V5.84h1.13V7.6c0,0.3-0.05,0.57-0.14,0.81h0.72c0.38,0,0.57-0.24,0.57-0.73V5.84h1.14v1.75
				c0,0.3-0.05,0.57-0.15,0.82h1.32V9.5z M463.95,5.23h-1.01V4.3h1.01V5.23z M464.69,3.9h-1V2.97h1V3.9z M465.47,5.23h-1V4.3h1V5.23
				z"/>
			<path d="M468.9,10.84h-1V9.9h1V10.84z M470.5,7.94c0,0.43-0.12,0.78-0.36,1.07c-0.27,0.33-0.64,0.49-1.11,0.49h-0.96V8.42h0.72
				c0.38,0,0.57-0.27,0.57-0.79V5.84h1.13V7.94z M470.43,10.84h-1.01V9.9h1.01V10.84z"/>
		</g>
	</g>
</g>
<g id="Layer_2">
</g>
<g id="Layer_3">
</g>
</svg>
