<svg xmlns="http://www.w3.org/2000/svg" xml:space="preserve" style="enable-background:new 0 0 300 600" viewBox="64.62 305.28 170.76 39.08"><style>.st1{fill:#fff}</style><g id="Layer_3"><path d="M84.16 305.28h131.68c10.79 0 19.54 8.75 19.54 19.54s-8.75 19.54-19.54 19.54H84.16c-10.79 0-19.54-8.75-19.54-19.54s8.75-19.54 19.54-19.54z" style="fill:#14944f"/><path d="M117.54 324.55c0 1.29-.4 2.29-1.18 3.03-.78.73-1.8 1.09-3.07 1.09-1.25 0-2.25-.38-3-1.13s-1.11-1.74-1.11-3c0-.62.09-1.18.29-1.69h-1.16c-1.42 0-2.12.93-2.12 2.76v6.01h-2.51v-6.41c0-1.56.45-2.78 1.34-3.63.82-.8 1.87-1.2 3.18-1.2h5.17c1.25 0 2.27.38 3.01 1.14.78.78 1.16 1.78 1.16 3.03zm-2.5-.07c0-.56-.13-1.04-.4-1.4-.31-.42-.73-.62-1.27-.62-.56 0-.98.22-1.29.65-.27.38-.4.87-.4 1.43s.13 1.02.36 1.4c.29.45.69.67 1.2.67h.18c1.07.01 1.62-.7 1.62-2.13zM129.76 328.62h-2.4c-.29 2-1.67 3-4.14 3h-.27v-2.03h.22c.98 0 1.56-.36 1.76-1.07-.2.07-.71.11-1.56.11-2.38 0-4.12-1.72-4.12-4.14 0-2.45 1.71-4.1 4.12-4.1 2.32 0 4.03 1.74 4.03 4.16v1.65h2.36v2.42zm-4.9-2.43v-1.76c0-1.07-.64-1.76-1.56-1.76-.96 0-1.47.75-1.47 1.71 0 1.04.62 1.82 1.56 1.82h1.47z" class="st1"/><path d="M131.14 331.63h-2.25v-2.11h2.25v2.11zm6.33-3.01h-8.17v-2.43h1.67c.85 0 1.27-.58 1.27-1.74v-4.05h2.56v3.96c0 .67-.09 1.27-.29 1.83h2.96v2.43zm-2.92 3.01h-2.25v-2.11h2.25v2.11z" class="st1"/><path d="M142.41 325.11c0 .96-.27 1.76-.8 2.4-.6.74-1.43 1.11-2.51 1.11h-2.4v-2.43h1.87c.85 0 1.29-.6 1.29-1.78v-7.48h2.54v8.18zM146.8 328.62h-2.54v-11.71h2.54v11.71zM163.42 325.46c0 3.58-2.34 6.17-5.74 6.17-3.2 0-5.74-2.69-5.74-6.17v-1.8h2.52v1.56c0 2.36 1.25 4.05 3.23 4.05 2 0 3.16-1.56 3.16-4.05v-8.3h2.56v8.54zM173.24 328.26c0 2.23-1.38 3.36-4.16 3.36h-.25v-2.03h.16c1.02 0 2.02-.71 2.02-1.69-.34.56-.94.84-1.8.84-2.34 0-4.08-1.78-4.08-4.21 0-2.49 1.71-4.16 4.08-4.16 2.34 0 4.03 1.8 4.03 4.19v3.7zm-2.54-3.71c0-1.11-.64-1.89-1.54-1.89-.89 0-1.49.76-1.49 1.83 0 1.02.58 1.87 1.58 1.87.9.01 1.45-.7 1.45-1.81zM177.65 328.62h-2.54v-11.71h2.54v11.71zM191.38 328.62h-11.77v-2.43h6.59c0-2.54-1.38-3.67-4.61-3.67v-2.12c1.6 0 2.72.11 3.4.34 2.5.89 3.76 2.69 3.76 5.43h2.63v2.45z" class="st1"/><path d="M192.72 319.01h-2.25v-2.09h2.25v2.09zm3.59 6.1c0 .96-.27 1.76-.8 2.4-.6.74-1.43 1.11-2.49 1.11h-2.16v-2.43h1.62c.85 0 1.29-.6 1.29-1.78v-4.01h2.54v4.71zm-.16-6.1h-2.27v-2.09h2.27v2.09z" class="st1"/></g></svg>