<?xml version="1.0" encoding="utf-8"?>
<!-- Generator: Adobe Illustrator 27.3.1, SVG Export Plug-In . SVG Version: 6.00 Build 0)  -->
<svg version="1.1" id="Layer_1" xmlns="http://www.w3.org/2000/svg" xmlns:xlink="http://www.w3.org/1999/xlink" x="0px" y="0px"
	 viewBox="0 0 103 24" style="enable-background:new 0 0 103 24;" xml:space="preserve">
<style type="text/css">
	.st0{fill:#14944F;}
	.st1{fill:#FFFFFF;}
</style>
<g>
	<g>
		<path class="st0" d="M12.17,0.33h78.66c6.44,0,11.67,5.22,11.67,11.67l0,0c0,6.44-5.22,11.67-11.67,11.67H12.17
			C5.72,23.67,0.5,18.44,0.5,12l0,0C0.5,5.56,5.72,0.33,12.17,0.33z"/>
	</g>
	<g>
		<path class="st1" d="M32.11,11.84c0,0.77-0.24,1.37-0.71,1.81c-0.47,0.43-1.07,0.65-1.83,0.65c-0.75,0-1.34-0.23-1.79-0.67
			c-0.44-0.45-0.66-1.04-0.66-1.79c0-0.37,0.05-0.71,0.17-1.01H26.6c-0.85,0-1.27,0.55-1.27,1.65v3.59h-1.5v-3.83
			c0-0.93,0.27-1.66,0.8-2.17c0.49-0.48,1.12-0.72,1.9-0.72h3.09c0.75,0,1.36,0.23,1.8,0.68C31.89,10.49,32.11,11.09,32.11,11.84z
			 M30.62,11.8c0-0.34-0.08-0.62-0.24-0.83c-0.18-0.25-0.43-0.37-0.76-0.37c-0.34,0-0.59,0.13-0.77,0.39
			c-0.16,0.23-0.24,0.52-0.24,0.86c0,0.34,0.08,0.61,0.22,0.83c0.17,0.27,0.41,0.4,0.72,0.4h0.11
			C30.29,13.08,30.62,12.65,30.62,11.8z"/>
		<path class="st1" d="M39.41,14.27h-1.43c-0.17,1.19-1,1.79-2.47,1.79h-0.16v-1.21h0.13c0.59,0,0.93-0.22,1.05-0.64
			c-0.12,0.04-0.42,0.07-0.93,0.07c-1.42,0-2.46-1.03-2.46-2.47c0-1.46,1.02-2.45,2.46-2.45c1.39,0,2.41,1.04,2.41,2.48v0.99h1.41
			V14.27z M36.48,12.82v-1.05c0-0.64-0.38-1.05-0.93-1.05c-0.58,0-0.88,0.45-0.88,1.02c0,0.62,0.37,1.08,0.93,1.08H36.48z"/>
		<path class="st1" d="M40.23,16.07h-1.34v-1.26h1.34V16.07z M44.02,14.27h-4.88v-1.45h1c0.51,0,0.76-0.35,0.76-1.04V9.35h1.53v2.37
			c0,0.4-0.05,0.76-0.17,1.1h1.77V14.27z M42.27,16.07h-1.35v-1.26h1.35V16.07z"/>
		<path class="st1" d="M46.97,12.18c0,0.58-0.16,1.05-0.48,1.43c-0.36,0.45-0.86,0.66-1.5,0.66h-1.43v-1.45h1.12
			c0.51,0,0.77-0.36,0.77-1.06V7.28h1.52V12.18z"/>
		<path class="st1" d="M49.59,14.27h-1.52v-7h1.52V14.27z"/>
		<path class="st1" d="M59.52,12.38c0,2.14-1.4,3.69-3.43,3.69c-1.91,0-3.43-1.61-3.43-3.69v-1.07h1.51v0.93
			c0,1.41,0.75,2.42,1.93,2.42c1.19,0,1.89-0.93,1.89-2.42V7.28h1.53V12.38z"/>
		<path class="st1" d="M65.38,14.05c0,1.33-0.83,2.01-2.48,2.01h-0.15v-1.21h0.1c0.61,0,1.2-0.42,1.2-1.01
			c-0.21,0.34-0.56,0.5-1.07,0.5c-1.4,0-2.44-1.06-2.44-2.52c0-1.49,1.02-2.48,2.44-2.48c1.4,0,2.41,1.07,2.41,2.51V14.05z
			 M63.86,11.84c0-0.66-0.38-1.13-0.92-1.13c-0.53,0-0.89,0.46-0.89,1.1c0,0.61,0.35,1.12,0.94,1.12
			C63.54,12.92,63.86,12.5,63.86,11.84z"/>
		<path class="st1" d="M68.02,14.27H66.5v-7h1.52V14.27z"/>
		<path class="st1" d="M76.22,14.27h-7.03v-1.45h3.94c0-1.52-0.82-2.19-2.75-2.19V9.35c0.95,0,1.63,0.07,2.03,0.21
			c1.5,0.53,2.25,1.61,2.25,3.24h1.57V14.27z"/>
		<path class="st1" d="M77.02,8.53h-1.34V7.28h1.34V8.53z M79.16,12.18c0,0.58-0.16,1.05-0.48,1.43c-0.36,0.45-0.86,0.66-1.49,0.66
			h-1.29v-1.45h0.97c0.51,0,0.77-0.36,0.77-1.06v-2.4h1.52V12.18z M79.07,8.53h-1.36V7.28h1.36V8.53z"/>
	</g>
</g>
</svg>
