<svg width="300" height="21" viewBox="0 0 300 21" fill="none" xmlns="http://www.w3.org/2000/svg"><path fill="#fff" d="M0 0h300v21H0z"/><path d="M33.013 13.233V14h-2.95v-.767h2.95zm-2.788-6.342V14h-.899V6.89h.899zm7.68 6.342V14H34.82v-.767h3.086zM34.98 6.891V14h-.898V6.89h.898zm2.51 3.056v.767h-2.67v-.767h2.67zm.366-3.056v.771H34.82v-.771h3.037zm3.15 6.03l1.709-6.03h.976L41.484 14h-.688l.21-1.08zm-1.533-6.03l1.694 6.03.225 1.079h-.689l-2.207-7.11h.977zm9.008 6.342V14h-3.086v-.767h3.086zm-2.924-6.342V14h-.899V6.89h.899zm2.51 3.056v.767h-2.672v-.767h2.671zm.366-3.056v.771h-3.038v-.771h3.038zm1.2 0h1.988c.462 0 .85.081 1.162.244.316.163.554.403.713.722.163.316.244.705.244 1.167 0 .326-.053.624-.16.894a1.86 1.86 0 01-.47.684 1.967 1.967 0 01-.747.415l-.244.102h-1.772l-.01-.767h1.274c.274 0 .502-.058.684-.175a1.12 1.12 0 00.41-.484c.091-.201.137-.424.137-.669 0-.273-.04-.512-.122-.717a.953.953 0 00-.39-.474c-.177-.114-.413-.17-.709-.17h-1.089V14h-.898V6.89zM53.048 14l-1.416-3.223.932-.004 1.446 3.168V14h-.962zm4.2-6.48L55.302 14h-.918l2.29-7.11h.576l-.005.63zM58.817 14l-1.943-6.48-.01-.63h.581l2.29 7.11h-.918zm0-2.632v.772h-3.427v-.772h3.427zm6.29-.908v2.651a3.665 3.665 0 01-.357.391 2.071 2.071 0 01-.66.415c-.282.12-.653.18-1.112.18-.368 0-.705-.061-1.011-.185a2.118 2.118 0 01-.786-.557 2.646 2.646 0 01-.508-.932 4.3 4.3 0 01-.18-1.314V9.776c0-.498.05-.934.15-1.308.101-.375.251-.685.45-.933.202-.247.45-.433.747-.556.3-.124.648-.186 1.045-.186.459 0 .85.086 1.172.259.322.172.57.421.747.747.179.325.28.716.302 1.172h-.898a2.09 2.09 0 00-.186-.752 1.094 1.094 0 00-.43-.484c-.185-.114-.42-.17-.707-.17-.274 0-.505.045-.694.136a1.147 1.147 0 00-.464.41 1.988 1.988 0 00-.258.689 5.279 5.279 0 00-.078.967v1.342c0 .378.037.707.112.987.075.28.18.51.317.693.14.182.308.32.503.41.196.088.415.132.66.132.276 0 .494-.03.654-.088.16-.058.281-.125.366-.2l.21-.18v-1.641H62.91v-.762h2.197zm5.278 2.773V14H67.3v-.767h3.086zM67.46 6.891V14h-.898V6.89h.898zm2.51 3.056v.767H67.3v-.767h2.67zm.366-3.056v.771H67.3v-.771h3.037zM73.144 14h-1.21l.01-.767h1.2c.427 0 .774-.081 1.04-.244.267-.166.464-.41.591-.732.127-.326.19-.728.19-1.206V9.835c0-.378-.035-.703-.107-.977a1.755 1.755 0 00-.322-.673 1.286 1.286 0 00-.542-.391 2.043 2.043 0 00-.766-.132h-1.319v-.771h1.319c.4 0 .761.063 1.084.19.322.124.599.31.83.562.23.247.407.555.527.922.124.368.186.795.186 1.28v1.206c0 .485-.062.911-.186 1.28-.12.367-.298.675-.532.922-.235.247-.52.434-.855.562a3.245 3.245 0 01-1.138.185zm-.712-7.11V14h-.899V6.89h.899zm9.199 0V14h-.889V6.89h.889zm1.87 0v.772h-4.624v-.771h4.624zm1.055 0h1.987c.462 0 .85.082 1.162.245.316.163.553.403.713.722.163.316.244.705.244 1.167 0 .326-.054.624-.161.894a1.86 1.86 0 01-.469.684 1.967 1.967 0 01-.747.415l-.244.102h-1.772l-.01-.767h1.274c.274 0 .501-.058.684-.175a1.12 1.12 0 00.41-.484c.091-.201.137-.424.137-.669 0-.273-.041-.512-.122-.717a.953.953 0 00-.391-.474c-.176-.114-.412-.17-.708-.17h-1.089V14h-.898V6.89zM87.969 14l-1.416-3.223.932-.004 1.446 3.168V14h-.962zm4.199-6.48L90.225 14h-.918l2.29-7.11h.576l-.005.63zM93.74 14l-1.943-6.48-.01-.63h.581l2.29 7.11h-.918zm0-2.632v.772h-3.427v-.772h3.427zM97.246 14h-1.21l.009-.767h1.201c.427 0 .773-.081 1.04-.244.267-.166.464-.41.591-.732.127-.326.19-.728.19-1.206V9.835c0-.378-.035-.703-.107-.977a1.758 1.758 0 00-.322-.673 1.286 1.286 0 00-.542-.391 2.043 2.043 0 00-.767-.132h-1.318v-.771h1.318c.4 0 .762.063 1.084.19.322.124.599.31.83.562.231.247.407.555.528.922.123.368.185.795.185 1.28v1.206c0 .485-.062.911-.186 1.28-.12.367-.297.675-.532.922-.234.247-.519.434-.854.562a3.245 3.245 0 01-1.138.185zm-.713-7.11V14h-.898V6.89h.898zm5.752 0V14h-.898V6.89h.898zm6.211 0V14h-.903l-2.847-5.483V14h-.898V6.89h.898l2.861 5.499V6.89h.889zm6.006 3.57v2.651a3.697 3.697 0 01-.356.391 2.075 2.075 0 01-.66.415c-.283.12-.654.18-1.113.18-.368 0-.705-.061-1.011-.185a2.128 2.128 0 01-.786-.557 2.656 2.656 0 01-.508-.932 4.314 4.314 0 01-.18-1.314V9.776c0-.498.05-.934.151-1.308.101-.375.251-.685.449-.933.202-.247.451-.433.747-.556.3-.124.648-.186 1.045-.186.459 0 .85.086 1.172.259a1.8 1.8 0 01.747.747c.179.325.28.716.303 1.172h-.898a2.093 2.093 0 00-.186-.752 1.093 1.093 0 00-.43-.484c-.185-.114-.421-.17-.708-.17-.273 0-.504.045-.693.136a1.143 1.143 0 00-.464.41 2.004 2.004 0 00-.259.689 5.288 5.288 0 00-.078.967v1.342c0 .378.038.707.112.987.075.28.181.51.318.693.14.182.307.32.503.41.195.088.415.132.659.132.277 0 .495-.03.654-.088.16-.058.282-.125.366-.2l.21-.18v-1.641h-1.303v-.762h2.197zm4.687-3.57V14h-.898V6.89h.898zm6.211 0V14h-.903l-2.847-5.483V14h-.898V6.89h.898l2.862 5.499V6.89h.888zm3.506 6.03l1.709-6.03h.977L129.385 14h-.689l.21-1.08zm-1.533-6.03l1.694 6.03.225 1.08h-.688l-2.208-7.11h.977zm9.741 2.94v1.235c0 .502-.055.943-.166 1.324a2.588 2.588 0 01-.473.947 1.985 1.985 0 01-.752.571c-.293.127-.624.19-.992.19-.354 0-.678-.063-.971-.19a2.025 2.025 0 01-.757-.571 2.71 2.71 0 01-.493-.947 4.627 4.627 0 01-.171-1.324V9.83c0-.501.057-.94.171-1.318a2.65 2.65 0 01.488-.952c.212-.254.464-.445.757-.572.293-.13.617-.195.972-.195.367 0 .698.065.991.195.296.127.547.318.752.572.208.253.368.57.478.952.111.377.166.817.166 1.318zm-.888 1.235V9.82c0-.39-.033-.726-.098-1.006a1.941 1.941 0 00-.288-.693 1.159 1.159 0 00-.469-.395 1.486 1.486 0 00-.644-.132c-.232 0-.44.044-.625.132a1.2 1.2 0 00-.469.395 2.02 2.02 0 00-.303.693c-.068.28-.102.616-.102 1.006v1.245c0 .394.034.733.102 1.016.072.28.173.511.303.693.133.18.293.313.478.4.186.085.393.128.62.128.245 0 .459-.043.645-.127.189-.088.345-.222.469-.4.127-.183.221-.414.283-.694.065-.283.098-.622.098-1.016zm5.966 2.168V14h-2.949v-.767h2.949zm-2.788-6.342V14h-.898V6.89h.898zm4.951 6.03l1.709-6.03h.977L144.834 14h-.688l.209-1.08zm-1.533-6.03l1.695 6.03.224 1.079h-.688l-2.207-7.11h.976zm9.009 6.342V14h-3.086v-.767h3.086zm-2.925-6.342V14h-.898V6.89h.898zm2.51 3.056v.767h-2.671v-.767h2.671zm.366-3.056v.771h-3.037v-.771h3.037zm4.307 5.312c0-.166-.02-.312-.059-.44a.874.874 0 00-.205-.35 1.573 1.573 0 00-.41-.299 5.13 5.13 0 00-.669-.288 5.875 5.875 0 01-.796-.347 2.762 2.762 0 01-.61-.444 1.788 1.788 0 01-.386-.571 1.876 1.876 0 01-.137-.737c0-.277.048-.533.142-.767a1.835 1.835 0 011.055-1.02c.25-.098.53-.147.84-.147.462 0 .851.103 1.167.308.319.201.559.467.722.795.163.326.244.674.244 1.045h-.898c0-.267-.044-.503-.132-.708a1.025 1.025 0 00-.4-.488c-.179-.12-.414-.18-.703-.18-.261 0-.476.05-.645.15a.939.939 0 00-.371.411 1.42 1.42 0 00-.117.59c0 .15.026.287.078.411.052.12.132.233.239.337.111.104.247.2.41.288.166.088.362.172.586.254.348.114.646.24.894.38.247.14.449.299.605.474.156.173.27.37.342.591.075.218.112.466.112.742 0 .29-.049.552-.146.787a1.629 1.629 0 01-.415.6 1.923 1.923 0 01-.659.386 2.684 2.684 0 01-.87.132c-.279 0-.555-.046-.825-.137a2.263 2.263 0 01-.727-.41 2.02 2.02 0 01-.523-.674 2.138 2.138 0 01-.195-.938h.898c0 .245.036.455.108.63.071.173.171.316.298.43.127.114.271.199.434.254.166.052.344.078.532.078.261 0 .479-.045.655-.137a.894.894 0 00.4-.39c.091-.17.137-.37.137-.6zm7.48 0c0-.166-.019-.312-.058-.44a.885.885 0 00-.205-.35 1.608 1.608 0 00-.41-.299 5.13 5.13 0 00-.669-.288 5.82 5.82 0 01-.796-.347 2.77 2.77 0 01-.611-.444 1.785 1.785 0 01-.385-.571 1.858 1.858 0 01-.137-.737c0-.277.047-.533.141-.767a1.837 1.837 0 011.055-1.02 2.3 2.3 0 01.84-.147c.462 0 .851.103 1.167.308.319.201.56.467.723.795.162.326.244.674.244 1.045h-.899a1.8 1.8 0 00-.131-.708 1.027 1.027 0 00-.401-.488c-.179-.12-.413-.18-.703-.18-.26 0-.475.05-.645.15a.945.945 0 00-.371.411 1.42 1.42 0 00-.117.59c0 .15.026.287.078.411.052.12.132.233.24.337.11.104.247.2.41.288.166.088.361.172.586.254.348.114.646.24.893.38.248.14.449.299.606.474.156.173.27.37.341.591.075.218.113.466.113.742 0 .29-.049.552-.147.787a1.606 1.606 0 01-.415.6 1.914 1.914 0 01-.659.386 2.677 2.677 0 01-.869.132c-.28 0-.555-.046-.825-.137a2.268 2.268 0 01-.728-.41 2.018 2.018 0 01-.522-.674 2.138 2.138 0 01-.196-.938h.899c0 .245.036.455.107.63a1.173 1.173 0 00.733.684c.166.052.343.078.532.078.26 0 .478-.045.654-.137a.896.896 0 00.401-.39c.091-.17.136-.37.136-.6zm3.013-5.312V14h-.898V6.89h.898zm6.016 3.569v2.651a3.617 3.617 0 01-.357.391 2.069 2.069 0 01-.659.415c-.283.12-.654.18-1.113.18-.368 0-.705-.061-1.011-.185a2.112 2.112 0 01-.786-.557 2.656 2.656 0 01-.508-.932 4.312 4.312 0 01-.181-1.314V9.776c0-.498.051-.934.152-1.308.101-.375.25-.685.449-.933.202-.247.451-.433.747-.556.3-.124.648-.186 1.045-.186.459 0 .85.086 1.172.259a1.8 1.8 0 01.747.747c.179.325.28.716.303 1.172h-.899a2.093 2.093 0 00-.185-.752 1.093 1.093 0 00-.43-.484c-.186-.114-.422-.17-.708-.17-.273 0-.505.045-.693.136a1.143 1.143 0 00-.464.41 1.984 1.984 0 00-.259.689 5.288 5.288 0 00-.078.967v1.342c0 .378.037.707.112.987.075.28.181.51.318.693.139.182.307.32.502.41.196.088.415.132.66.132.276 0 .494-.03.654-.088.159-.058.282-.125.366-.2l.21-.18v-1.641H170.4v-.762h2.198zm6.103-3.57V14h-.903l-2.847-5.483V14h-.898V6.89h.898l2.861 5.499V6.89h.889zm2.49 0V14h-.898V6.89h.898zm2.461 0V14h-.898V6.89h.898zm2.398 3.199v.771h-2.569v-.771h2.569zm.405-3.198v.771h-2.974v-.771h2.974zm2.051 0V14h-.899V6.89h.899zm5.122 4.848h.898c-.022.488-.122.91-.297 1.265a1.846 1.846 0 01-.757.81c-.329.19-.741.284-1.236.284-.354 0-.675-.07-.962-.21a2.112 2.112 0 01-.737-.6 2.868 2.868 0 01-.464-.948 4.437 4.437 0 01-.161-1.24V9.786c0-.456.054-.867.161-1.235.111-.368.269-.682.474-.943.208-.263.46-.465.757-.605.299-.14.638-.21 1.015-.21.463 0 .853.093 1.172.278.322.183.57.451.742.806.176.352.274.783.293 1.294h-.898c-.023-.374-.081-.679-.176-.913a1.017 1.017 0 00-.42-.523c-.182-.114-.42-.17-.713-.17a1.4 1.4 0 00-.678.156 1.29 1.29 0 00-.469.449 2.225 2.225 0 00-.274.698c-.058.27-.087.573-.087.908V11.1c0 .312.024.604.073.874.052.27.133.507.244.713.114.201.262.36.444.473.183.114.404.171.664.171.329 0 .59-.054.782-.161a.958.958 0 00.424-.513c.095-.234.157-.54.186-.918zm4.419-4.218L196.104 14h-.918l2.29-7.11h.576l-.005.63zM199.619 14l-1.943-6.48-.01-.63h.581l2.29 7.11h-.918zm0-2.632v.772h-3.428v-.772h3.428zm6.543-4.477V14h-.903l-2.847-5.483V14h-.898V6.89h.898l2.861 5.499V6.89h.889zm3.692 0V14h-.889V6.89h.889zm1.87 0v.771H207.1v-.771h4.624zm3.154 0h1.987c.462 0 .85.081 1.162.244.316.163.554.403.713.722.163.316.244.705.244 1.167 0 .326-.053.624-.161.894a1.844 1.844 0 01-.469.684 1.965 1.965 0 01-.747.415l-.244.102h-1.772l-.01-.767h1.274c.274 0 .502-.058.684-.175a1.12 1.12 0 00.41-.484 1.61 1.61 0 00.137-.669c0-.273-.041-.512-.122-.717a.957.957 0 00-.391-.474c-.176-.114-.412-.17-.708-.17h-1.089V14h-.898V6.89zM218.291 14l-1.416-3.223.933-.004 1.445 3.168V14h-.962zm2.832-7.11V14h-.898V6.89h.898zm4.673 5.313c0-.166-.02-.312-.059-.44a.874.874 0 00-.205-.35 1.573 1.573 0 00-.41-.299 5.13 5.13 0 00-.669-.288 5.875 5.875 0 01-.796-.347 2.762 2.762 0 01-.61-.444 1.788 1.788 0 01-.386-.571 1.876 1.876 0 01-.137-.737c0-.277.048-.533.142-.767a1.835 1.835 0 011.055-1.02c.25-.098.53-.147.84-.147.462 0 .851.103 1.167.308.319.201.559.467.722.795.163.326.244.674.244 1.045h-.898c0-.267-.044-.503-.132-.708a1.025 1.025 0 00-.4-.488c-.179-.12-.414-.18-.703-.18-.261 0-.476.05-.645.15a.939.939 0 00-.371.411 1.42 1.42 0 00-.117.59c0 .15.026.287.078.411.052.12.132.233.239.337.111.104.248.2.41.288.166.088.362.172.586.254.349.114.646.24.894.38.247.14.449.299.605.474.156.173.27.37.342.591.075.218.112.466.112.742 0 .29-.048.552-.146.787a1.629 1.629 0 01-.415.6 1.914 1.914 0 01-.659.386 2.684 2.684 0 01-.87.132c-.279 0-.555-.046-.825-.137a2.263 2.263 0 01-.727-.41 2.033 2.033 0 01-.523-.674 2.138 2.138 0 01-.195-.938h.898c0 .245.036.455.108.63.071.173.171.316.298.43.127.114.272.199.434.254.166.052.344.078.532.078.261 0 .479-.045.655-.137a.894.894 0 00.4-.39c.091-.17.137-.37.137-.6zm2.974-5.312V14h-.899V6.89h.899zm3.574 0l-2.447 3.315-1.43 1.724-.161-1.006 1.049-1.377 1.915-2.656h1.074zM231.45 14l-2.095-3.467.533-.747L232.52 14h-1.07zm8.799-4.17v1.235c0 .502-.055.943-.166 1.324a2.574 2.574 0 01-.474.947 1.977 1.977 0 01-.752.571c-.293.127-.623.19-.991.19-.355 0-.678-.063-.971-.19a2.017 2.017 0 01-.757-.571 2.71 2.71 0 01-.493-.947 4.627 4.627 0 01-.171-1.324V9.83c0-.501.057-.94.171-1.318.113-.381.276-.699.488-.952.211-.254.464-.445.757-.572.293-.13.617-.195.971-.195.368 0 .699.065.992.195.296.127.546.318.751.572.209.253.368.57.479.952.111.377.166.817.166 1.318zm-.889 1.235V9.82c0-.39-.032-.726-.097-1.006a1.941 1.941 0 00-.288-.693 1.165 1.165 0 00-.469-.395 1.494 1.494 0 00-.645-.132c-.231 0-.439.044-.625.132a1.203 1.203 0 00-.468.395c-.131.18-.232.41-.303.693-.069.28-.103.616-.103 1.006v1.245c0 .394.034.733.103 1.016.071.28.172.511.303.693.133.18.293.313.478.4.186.085.392.128.62.128.244 0 .459-.043.645-.127.189-.088.345-.222.468-.4.127-.183.222-.414.284-.694a4.6 4.6 0 00.097-1.016zm3.179-4.174V14h-.898V6.89h.898zm2.398 3.198v.771h-2.569v-.771h2.569zm.405-3.198v.771h-2.974v-.771h2.974zm7.095 6.342V14h-2.95v-.767h2.95zm-2.789-6.342V14h-.898V6.89h.898zm8.16 2.94v1.234c0 .502-.056.943-.166 1.324a2.604 2.604 0 01-.474.947 1.977 1.977 0 01-.752.571c-.293.127-.623.19-.991.19-.355 0-.679-.063-.972-.19a2.025 2.025 0 01-.757-.571 2.726 2.726 0 01-.493-.947 4.627 4.627 0 01-.171-1.324V9.83c0-.501.057-.94.171-1.318.114-.381.277-.699.488-.952.212-.254.464-.445.757-.572.293-.13.617-.195.972-.195.368 0 .698.065.991.195.296.127.547.318.752.572.208.253.368.57.479.952.11.377.166.817.166 1.318zm-.889 1.234V9.82c0-.39-.033-.726-.098-1.006a1.941 1.941 0 00-.288-.693 1.159 1.159 0 00-.469-.395 1.486 1.486 0 00-.644-.132c-.231 0-.44.044-.625.132a1.206 1.206 0 00-.469.395 2.02 2.02 0 00-.303.693c-.068.28-.102.616-.102 1.006v1.245c0 .394.034.733.102 1.016.072.28.173.511.303.693.134.18.293.313.479.4.185.085.392.128.62.128.244 0 .459-.043.644-.127.189-.088.345-.222.469-.4.127-.183.221-.414.283-.694.065-.283.098-.622.098-1.016zm5.391 1.138c0-.166-.02-.312-.059-.44a.874.874 0 00-.205-.35 1.59 1.59 0 00-.41-.299 5.13 5.13 0 00-.669-.288 5.875 5.875 0 01-.796-.347 2.739 2.739 0 01-.61-.444 1.788 1.788 0 01-.386-.571 1.876 1.876 0 01-.137-.737c0-.277.047-.533.142-.767a1.82 1.82 0 011.054-1.02 2.3 2.3 0 01.84-.147c.462 0 .851.103 1.167.308.319.201.56.467.723.795.163.326.244.674.244 1.045h-.898c0-.267-.044-.503-.132-.708a1.021 1.021 0 00-.401-.488c-.179-.12-.413-.18-.703-.18-.26 0-.475.05-.644.15a.939.939 0 00-.371.411c-.079.173-.118.37-.118.59 0 .15.026.287.079.411.052.12.131.233.239.337.11.104.247.2.41.288.166.088.361.172.586.254.348.114.646.24.893.38.248.14.45.299.606.474.156.173.27.37.342.591.075.218.112.466.112.742 0 .29-.049.552-.146.787a1.62 1.62 0 01-.416.6 1.914 1.914 0 01-.659.386 2.677 2.677 0 01-.869.132c-.28 0-.555-.046-.825-.137a2.278 2.278 0 01-.728-.41 2.018 2.018 0 01-.522-.674 2.138 2.138 0 01-.195-.938h.898c0 .245.036.455.108.63.071.173.17.316.297.43.127.114.272.199.435.254.166.052.343.078.532.078.261 0 .479-.045.654-.137a.896.896 0 00.401-.39c.091-.17.137-.37.137-.6zm5.185 0c0-.166-.019-.312-.058-.44a.888.888 0 00-.206-.35 1.573 1.573 0 00-.41-.299 5.012 5.012 0 00-.669-.288 5.875 5.875 0 01-.796-.347 2.762 2.762 0 01-.61-.444 1.788 1.788 0 01-.386-.571 1.876 1.876 0 01-.136-.737c0-.277.047-.533.141-.767a1.85 1.85 0 01.41-.61c.179-.176.394-.313.645-.41a2.3 2.3 0 01.84-.147c.462 0 .851.103 1.167.308.319.201.56.467.722.795.163.326.245.674.245 1.045h-.899c0-.267-.044-.503-.132-.708a1.02 1.02 0 00-.4-.488c-.179-.12-.414-.18-.703-.18-.261 0-.475.05-.645.15a.945.945 0 00-.371.411 1.42 1.42 0 00-.117.59c0 .15.026.287.078.411.052.12.132.233.239.337.111.104.248.2.41.288.167.088.362.172.586.254.349.114.647.24.894.38s.449.299.605.474c.157.173.271.37.342.591.075.218.113.466.113.742 0 .29-.049.552-.147.787a1.617 1.617 0 01-.415.6 1.914 1.914 0 01-.659.386 2.677 2.677 0 01-.869.132c-.28 0-.555-.046-.825-.137a2.268 2.268 0 01-.728-.41 2.018 2.018 0 01-.522-.674 2.124 2.124 0 01-.196-.938h.899c0 .245.035.455.107.63.072.173.171.316.298.43.127.114.272.199.434.254.167.052.344.078.533.078.26 0 .478-.045.654-.137a.889.889 0 00.4-.39c.092-.17.137-.37.137-.6zm2.012 1.319c0-.154.047-.282.141-.386.098-.108.238-.161.42-.161.183 0 .321.053.415.16a.542.542 0 01.147.386c0 .15-.049.277-.147.381-.094.105-.232.157-.415.157-.182 0-.322-.052-.42-.157a.548.548 0 01-.141-.38z" fill="#000"/></svg>