<?xml version="1.0" encoding="utf-8"?>
<!-- Generator: Adobe Illustrator 27.3.1, SVG Export Plug-In . SVG Version: 6.00 Build 0)  -->
<svg version="1.1" id="Layer_1" xmlns="http://www.w3.org/2000/svg" xmlns:xlink="http://www.w3.org/1999/xlink" x="0px" y="0px"
	 viewBox="0 0 141 33" style="enable-background:new 0 0 141 33;" xml:space="preserve">
<style type="text/css">
	.st0{fill:#14944F;}
	.st1{fill:#FFFFFF;}
</style>
<g>
	<g>
		<path class="st0" d="M16.52,0.48h107.97c8.85,0,16.02,7.17,16.02,16.02l0,0c0,8.85-7.17,16.02-16.02,16.02H16.52
			C7.67,32.52,0.5,25.35,0.5,16.5l0,0C0.5,7.65,7.67,0.48,16.52,0.48z"/>
	</g>
	<g>
		<path class="st1" d="M43.88,16.28c0,1.06-0.33,1.87-0.97,2.48c-0.64,0.59-1.47,0.89-2.51,0.89c-1.03,0-1.84-0.31-2.45-0.92
			c-0.61-0.61-0.91-1.43-0.91-2.45c0-0.51,0.07-0.97,0.24-1.38h-0.95c-1.16,0-1.74,0.76-1.74,2.26v4.92h-2.05v-5.25
			c0-1.28,0.37-2.28,1.1-2.98c0.67-0.65,1.53-0.98,2.6-0.98h4.24c1.03,0,1.86,0.31,2.47,0.94C43.57,14.44,43.88,15.26,43.88,16.28z
			 M41.83,16.22c0-0.46-0.1-0.85-0.33-1.15c-0.25-0.34-0.6-0.51-1.04-0.51c-0.46,0-0.8,0.18-1.06,0.54
			c-0.22,0.31-0.33,0.71-0.33,1.18c0,0.46,0.1,0.83,0.3,1.15c0.24,0.37,0.57,0.55,0.98,0.55h0.15
			C41.38,17.98,41.83,17.4,41.83,16.22z"/>
		<path class="st1" d="M53.9,19.62h-1.96c-0.24,1.64-1.37,2.46-3.39,2.46h-0.22V20.4h0.18c0.8,0,1.28-0.3,1.44-0.88
			c-0.16,0.06-0.58,0.09-1.28,0.09c-1.95,0-3.38-1.41-3.38-3.39c0-2.01,1.4-3.36,3.38-3.36c1.9,0,3.3,1.43,3.3,3.41v1.35h1.93V19.62
			z M49.88,17.62v-1.44c0-0.88-0.52-1.44-1.28-1.44c-0.79,0-1.21,0.61-1.21,1.4c0,0.85,0.51,1.49,1.28,1.49H49.88z"/>
		<path class="st1" d="M55.03,22.08h-1.84v-1.73h1.84V22.08z M60.23,19.62h-6.7v-1.99h1.37c0.7,0,1.04-0.48,1.04-1.43v-3.32h2.1
			v3.24c0,0.55-0.07,1.04-0.24,1.5h2.42V19.62z M57.83,22.08h-1.84v-1.73h1.84V22.08z"/>
		<path class="st1" d="M64.28,16.74c0,0.79-0.22,1.44-0.65,1.96c-0.49,0.61-1.18,0.91-2.05,0.91h-1.96v-1.99h1.53
			c0.7,0,1.06-0.49,1.06-1.46v-6.13h2.08V16.74z"/>
		<path class="st1" d="M67.88,19.62H65.8v-9.6h2.08V19.62z"/>
		<path class="st1" d="M81.5,17.03c0,2.93-1.92,5.06-4.7,5.06c-2.62,0-4.7-2.2-4.7-5.06v-1.47h2.07v1.28c0,1.93,1.03,3.32,2.65,3.32
			c1.64,0,2.59-1.28,2.59-3.32v-6.8h2.1V17.03z"/>
		<path class="st1" d="M89.55,19.32c0,1.83-1.13,2.75-3.41,2.75h-0.21V20.4h0.13c0.83,0,1.65-0.58,1.65-1.38
			c-0.28,0.46-0.77,0.68-1.47,0.68c-1.92,0-3.35-1.46-3.35-3.45c0-2.04,1.4-3.41,3.35-3.41c1.92,0,3.3,1.47,3.3,3.44V19.32z
			 M87.46,16.28c0-0.91-0.52-1.55-1.26-1.55c-0.73,0-1.22,0.62-1.22,1.5c0,0.83,0.48,1.53,1.29,1.53
			C87.02,17.77,87.46,17.19,87.46,16.28z"/>
		<path class="st1" d="M93.17,19.62h-2.08v-9.6h2.08V19.62z"/>
		<path class="st1" d="M104.42,19.62h-9.64v-1.99h5.4c0-2.08-1.13-3.01-3.78-3.01v-1.74c1.31,0,2.23,0.09,2.78,0.28
			c2.05,0.73,3.08,2.2,3.08,4.45h2.16V19.62z"/>
		<path class="st1" d="M105.52,11.75h-1.84v-1.71h1.84V11.75z M108.47,16.74c0,0.79-0.22,1.44-0.65,1.96
			c-0.49,0.61-1.18,0.91-2.04,0.91H104v-1.99h1.32c0.7,0,1.06-0.49,1.06-1.46v-3.29h2.08V16.74z M108.33,11.75h-1.86v-1.71h1.86
			V11.75z"/>
	</g>
</g>
</svg>
