<?xml version="1.0" encoding="utf-8"?>
<!-- Generator: Adobe Illustrator 27.3.1, SVG Export Plug-In . SVG Version: 6.00 Build 0)  -->
<svg version="1.1" id="Layer_1" xmlns="http://www.w3.org/2000/svg" xmlns:xlink="http://www.w3.org/1999/xlink" x="0px" y="0px"
	 viewBox="0 0 160 38" style="enable-background:new 0 0 160 38;" xml:space="preserve">
<style type="text/css">
	.st0{fill:#14944F;}
	.st1{fill:#FFFFFF;}
</style>
<g>
	<g>
		<path class="st0" d="M18.69,0.81h122.62c10.05,0,18.19,8.14,18.19,18.19l0,0c0,10.05-8.14,18.19-18.19,18.19H18.69
			C8.64,37.19,0.5,29.05,0.5,19l0,0C0.5,8.95,8.64,0.81,18.69,0.81z"/>
	</g>
	<g>
		<path class="st1" d="M49.78,18.75c0,1.2-0.37,2.13-1.1,2.82c-0.73,0.68-1.67,1.01-2.86,1.01c-1.17,0-2.1-0.36-2.79-1.05
			C42.34,20.85,42,19.92,42,18.75c0-0.57,0.08-1.1,0.27-1.57h-1.08c-1.32,0-1.98,0.86-1.98,2.57v5.6h-2.33v-5.97
			c0-1.45,0.42-2.59,1.25-3.38c0.76-0.74,1.74-1.12,2.96-1.12h4.82c1.17,0,2.11,0.35,2.81,1.06C49.42,16.66,49.78,17.59,49.78,18.75
			z M47.44,18.69c0-0.52-0.12-0.96-0.37-1.3c-0.29-0.39-0.68-0.57-1.18-0.57c-0.52,0-0.91,0.2-1.2,0.61
			c-0.25,0.35-0.37,0.81-0.37,1.34s0.12,0.95,0.34,1.3c0.27,0.42,0.64,0.63,1.12,0.63h0.17C46.94,20.68,47.44,20.02,47.44,18.69z"/>
		<path class="st1" d="M61.15,22.54h-2.23c-0.27,1.86-1.56,2.79-3.85,2.79h-0.25v-1.89h0.2c0.91,0,1.45-0.34,1.64-1
			c-0.19,0.07-0.66,0.1-1.45,0.1c-2.21,0-3.84-1.61-3.84-3.85c0-2.28,1.59-3.82,3.84-3.82c2.16,0,3.75,1.62,3.75,3.87v1.54h2.2
			V22.54z M56.59,20.27v-1.64c0-1-0.59-1.64-1.45-1.64c-0.9,0-1.37,0.69-1.37,1.59c0,0.96,0.57,1.69,1.45,1.69H56.59z"/>
		<path class="st1" d="M62.44,25.35h-2.1v-1.96h2.1V25.35z M68.34,22.54h-7.61v-2.27h1.56c0.79,0,1.18-0.54,1.18-1.62v-3.77h2.38
			v3.69c0,0.63-0.08,1.18-0.27,1.71h2.76V22.54z M65.62,25.35h-2.1v-1.96h2.1V25.35z"/>
		<path class="st1" d="M72.94,19.28c0,0.9-0.25,1.64-0.74,2.23c-0.56,0.69-1.34,1.03-2.33,1.03h-2.23v-2.27h1.74
			c0.79,0,1.2-0.56,1.2-1.66v-6.97h2.37V19.28z"/>
		<path class="st1" d="M77.03,22.54h-2.37v-10.9h2.37V22.54z"/>
		<path class="st1" d="M92.49,19.6c0,3.33-2.18,5.75-5.34,5.75c-2.98,0-5.34-2.5-5.34-5.75v-1.67h2.35v1.45
			c0,2.2,1.17,3.77,3.01,3.77c1.86,0,2.94-1.45,2.94-3.77v-7.73h2.38V19.6z"/>
		<path class="st1" d="M101.64,22.2c0,2.08-1.29,3.13-3.87,3.13h-0.24v-1.89h0.15c0.95,0,1.88-0.66,1.88-1.57
			c-0.32,0.52-0.88,0.78-1.67,0.78c-2.18,0-3.8-1.66-3.8-3.92c0-2.32,1.59-3.87,3.8-3.87c2.18,0,3.75,1.67,3.75,3.91V22.2z
			 M99.27,18.75c0-1.03-0.59-1.76-1.44-1.76c-0.83,0-1.39,0.71-1.39,1.71c0,0.95,0.54,1.74,1.47,1.74
			C98.76,20.44,99.27,19.78,99.27,18.75z"/>
		<path class="st1" d="M105.75,22.54h-2.37v-10.9h2.37V22.54z"/>
		<path class="st1" d="M118.53,22.54h-10.96v-2.27h6.14c0-2.37-1.29-3.42-4.29-3.42v-1.98c1.49,0,2.54,0.1,3.16,0.32
			c2.33,0.83,3.5,2.5,3.5,5.06h2.45V22.54z"/>
		<path class="st1" d="M119.78,13.6h-2.1v-1.94h2.1V13.6z M123.12,19.28c0,0.9-0.25,1.64-0.74,2.23c-0.56,0.69-1.34,1.03-2.32,1.03
			h-2.01v-2.27h1.5c0.79,0,1.2-0.56,1.2-1.66v-3.74h2.37V19.28z M122.97,13.6h-2.11v-1.94h2.11V13.6z"/>
	</g>
</g>
</svg>
