<?xml version="1.0" encoding="utf-8"?>
<!-- Generator: Adobe Illustrator 27.3.1, SVG Export Plug-In . SVG Version: 6.00 Build 0)  -->
<svg version="1.1" id="Layer_1" xmlns="http://www.w3.org/2000/svg" xmlns:xlink="http://www.w3.org/1999/xlink" x="0px" y="0px"
	 viewBox="0 0 970 20" style="enable-background:new 0 0 970 20;" xml:space="preserve">
<style type="text/css">
	.st0{fill:#FFFFFF;}
</style>
<g>
	<rect class="st0" width="970" height="20"/>
	<g>
		<path d="M379.44,12.63h-0.99v-1.07h0.99V12.63z"/>
		<path d="M383.96,10.7c0,0.59-0.18,1.06-0.53,1.41c-0.35,0.36-0.83,0.53-1.42,0.53c-0.6,0-1.07-0.18-1.44-0.52
			c-0.35-0.35-0.53-0.82-0.53-1.41c0-0.59,0.18-1.07,0.52-1.41c0.35-0.35,0.81-0.52,1.4-0.52c0.6,0,1.08,0.17,1.44,0.52
			C383.77,9.62,383.96,10.09,383.96,10.7z M381.71,8.14h-1V7.21h1V8.14z M382.88,10.74c0-0.74-0.3-1.11-0.9-1.11
			c-0.59,0-0.88,0.37-0.88,1.11c0,0.3,0.07,0.55,0.22,0.73c0.15,0.21,0.38,0.31,0.66,0.31c0.3,0,0.52-0.1,0.69-0.31
			C382.8,11.29,382.88,11.04,382.88,10.74z M383.24,8.14h-1V7.21h1V8.14z"/>
		<path d="M386.88,11.9c0,0.74-0.19,1.28-0.56,1.61c-0.35,0.32-0.91,0.47-1.69,0.47v-0.91c0.74,0,1.11-0.36,1.11-1.06V8.98h1.14
			V11.9z"/>
		<path d="M390.14,12.64h-1.07c-0.86,0-1.36-0.5-1.36-1.33V7.44h1.13v3.29c0,0.55,0.14,0.84,0.97,0.84h0.33V12.64z"/>
		<path d="M398.26,12.64h-8.31v-1.08h0.86c0.37,0,0.57-0.2,0.57-0.77V8.98h1.14v1.76c0,0.3-0.05,0.57-0.14,0.81h0.72
			c0.38,0,0.57-0.24,0.57-0.73V8.98h1.13v1.76c0,0.3-0.05,0.57-0.14,0.81h0.72c0.38,0,0.57-0.24,0.57-0.73V8.98h1.14v1.75
			c0,0.3-0.05,0.57-0.15,0.82h1.32V12.64z"/>
		<path d="M404.63,12.64h-6.59v-1.08h4.58c-0.02-0.43-0.18-0.79-0.46-1.1c-0.31-0.35-0.73-0.52-1.24-0.52
			c-0.48,0-1.03,0.25-1.35,0.58c-0.11-0.15-0.3-0.4-0.56-0.77c0.55-0.57,1.21-0.86,1.99-0.86c0.48,0,0.9,0.09,1.26,0.26
			c0.86,0.41,1.37,1.21,1.51,2.4h0.86V12.64z M401.49,8.37h-1V7.44h1V8.37z"/>
		<path d="M406.81,11.08c0,0.43-0.12,0.78-0.36,1.06c-0.27,0.33-0.64,0.49-1.11,0.49h-1.07v-1.08h0.83c0.38,0,0.57-0.27,0.57-0.79
			V7.44h1.13V11.08z"/>
		<path d="M410.06,12.64h-1.07c-0.86,0-1.36-0.5-1.36-1.33V7.44h1.13v3.29c0,0.55,0.14,0.84,0.97,0.84h0.33V12.64z"/>
		<path d="M412.31,11.08c0,0.43-0.12,0.78-0.35,1.06c-0.27,0.33-0.64,0.49-1.11,0.49h-0.96v-1.08h0.72c0.38,0,0.57-0.27,0.57-0.79
			V8.98h1.13V11.08z M412.25,13.98h-1v-0.94h1V13.98z"/>
		<path d="M418.4,10.7c0,0.59-0.18,1.06-0.53,1.41c-0.35,0.36-0.83,0.53-1.42,0.53c-0.6,0-1.07-0.18-1.44-0.52
			c-0.35-0.35-0.53-0.82-0.53-1.41c0-0.59,0.18-1.07,0.52-1.41c0.35-0.35,0.81-0.52,1.4-0.52c0.6,0,1.08,0.17,1.44,0.52
			C418.22,9.62,418.4,10.09,418.4,10.7z M416.16,8.14h-1V7.21h1V8.14z M417.32,10.74c0-0.74-0.3-1.11-0.9-1.11
			c-0.59,0-0.88,0.37-0.88,1.11c0,0.3,0.07,0.55,0.22,0.73c0.15,0.21,0.38,0.31,0.66,0.31c0.3,0,0.52-0.1,0.69-0.31
			C417.25,11.29,417.32,11.04,417.32,10.74z M417.68,8.14h-1V7.21h1V8.14z"/>
		<path d="M422.53,12.64h-1.25c-0.19,0.89-0.91,1.33-2.2,1.33v-0.91c0.74,0,1.11-0.36,1.11-1.06V8.98h1.14v2.57h1.19V12.64z"/>
		<path d="M423.11,13.98h-1v-0.94h1V13.98z M425.93,12.64h-3.63v-1.08h0.74c0.38,0,0.56-0.26,0.56-0.77v-1.8h1.14v1.76
			c0,0.3-0.04,0.56-0.13,0.81h1.32V12.64z M424.63,13.98h-1v-0.94h1V13.98z"/>
		<path d="M429.4,12.64h-3.64v-1.08h0.74c0.38,0,0.57-0.26,0.57-0.77v-1.8h1.14v1.76c0,0.3-0.05,0.56-0.14,0.81h1.32V12.64z
			 M428.1,13.98h-1v-0.94h1V13.98z"/>
		<path d="M434.84,12.64h-5.88v-1.08h4.65c-0.11-0.88-0.78-1.54-1.64-1.54h-2.03l1.61-2.58h1.34l-1.02,1.53h0.62
			c1.54,0.16,2.34,1.35,2.34,3.24V12.64z"/>
		<path d="M440.61,12.64h-1.25c-0.19,0.89-0.91,1.33-2.2,1.33v-0.91c0.74,0,1.11-0.36,1.11-1.06V8.98h1.14v2.57h1.19V12.64z"/>
		<path d="M447.13,12.64h-7.1v-1.08h1.65V7.44h1.12l-0.1,2.64c0.73-0.76,1.45-1.11,2.25-1.11c1.45,0,2.22,1.12,2.22,2.93
			C447.17,12.14,447.15,12.39,447.13,12.64z M445.98,11.56c0.01-0.05,0.01-0.1,0.01-0.16c0-0.84-0.42-1.44-1.12-1.44
			c-0.83,0-1.57,0.54-2.2,1.6H445.98z"/>
		<path d="M450.43,12.64h-1.07c-0.86,0-1.36-0.5-1.36-1.33V7.44h1.13v3.29c0,0.55,0.14,0.84,0.97,0.84h0.33V12.64z"/>
		<path d="M456.81,12.64h-6.59v-1.08h4.58c-0.02-0.43-0.18-0.79-0.46-1.1c-0.31-0.35-0.73-0.52-1.24-0.52
			c-0.48,0-1.03,0.25-1.35,0.58c-0.11-0.15-0.3-0.4-0.56-0.77c0.55-0.57,1.21-0.86,1.99-0.86c0.48,0,0.9,0.09,1.26,0.26
			c0.86,0.41,1.37,1.21,1.51,2.4h0.86V12.64z M453.67,8.37h-1V7.44h1V8.37z"/>
		<path d="M461.39,11.49c0,1.08-0.73,1.84-1.86,1.84c-0.69,0-1.2-0.23-1.53-0.7h-1.45v-1.08h1.12c0-1.15,0.66-1.89,1.82-1.89
			C460.65,9.67,461.39,10.39,461.39,11.49z M460.26,11.54c0-0.64-0.24-0.96-0.72-0.96h-0.08c-0.41,0-0.69,0.38-0.69,0.91
			c0,0.55,0.27,0.93,0.76,0.93C459.97,12.42,460.26,12.06,460.26,11.54z"/>
		<path d="M470.67,12.64h-0.06c-0.65,0-1.14-0.16-1.45-0.48c-0.25,1.09-1.4,1.82-2.71,1.82c-1.61,0-2.89-1.19-2.89-2.75v-0.97h1.13
			v0.86c0,1.08,0.64,1.81,1.78,1.81c0.87,0,1.7-0.55,1.7-1.3c0-0.43-0.36-0.71-0.75-0.71c-0.06,0-0.13,0.01-0.19,0.02V9.96
			c0-0.01,0.16-0.01,0.49-0.01c0.82,0,1.42,0.37,1.81,1.11c0.19,0.37,0.48,0.49,0.96,0.49h0.18V12.64z"/>
		<path d="M474.18,12.64h-3.66v-1.08h0.77c0.38,0,0.57-0.26,0.57-0.77V7.44H473v3.3c0,0.3-0.05,0.56-0.14,0.81h1.32V12.64z"/>
		<path d="M478.52,12.64h-4.54v-1.08h1.27c-0.1-0.28-0.16-0.54-0.16-0.77c0-0.52,0.17-0.98,0.51-1.35c0.35-0.37,0.78-0.56,1.32-0.56
			c0.69,0,1.27,0.39,1.55,1.03l-0.93,0.43c-0.11-0.31-0.32-0.48-0.65-0.48c-0.23,0-0.4,0.09-0.52,0.27
			c-0.11,0.15-0.17,0.36-0.17,0.6c0,0.43,0.15,0.71,0.45,0.83h1.87V12.64z"/>
		<path d="M485.93,12.64h-1.14c-0.65,0-1.1-0.33-1.36-0.99c-0.2,0.31-0.59,0.48-1.15,0.48c-0.97,0-1.59-0.84-1.59-1.95
			c0-1.2,0.6-1.98,1.67-1.98c0-0.01,0.72-0.01,2.16-0.01v2.54c0,0.53,0.27,0.82,0.82,0.82h0.58V12.64z M482.6,7.44h-1V6.51h1V7.44z
			 M483.36,10.09V9.02h-0.74c-0.46,0-0.8,0.51-0.8,1.14c0,0.57,0.32,1.03,0.78,1.03C483.07,11.2,483.36,10.75,483.36,10.09z
			 M484.12,7.44h-1V6.51h1V7.44z"/>
		<path d="M486.54,13.98h-1v-0.94h1V13.98z M489.36,12.64h-3.63v-1.08h0.74c0.38,0,0.56-0.26,0.56-0.77v-1.8h1.14v1.76
			c0,0.3-0.04,0.56-0.13,0.81h1.32V12.64z M488.06,13.98h-1v-0.94h1V13.98z"/>
		<path d="M491.55,11.08c0,0.43-0.12,0.78-0.36,1.06c-0.27,0.33-0.64,0.49-1.11,0.49h-1.07v-1.08h0.83c0.38,0,0.57-0.27,0.57-0.79
			V7.44h1.13V11.08z"/>
		<path d="M494.81,12.64h-1.07c-0.86,0-1.36-0.5-1.36-1.33V7.44h1.13v3.29c0,0.55,0.14,0.84,0.97,0.84h0.33V12.64z"/>
		<path d="M500.15,12.64h-1.29c-0.33,0.46-0.84,0.7-1.51,0.7c-0.69,0-1.2-0.23-1.53-0.7h-1.24v-1.08h0.9c0-1.16,0.66-1.89,1.83-1.89
			c1.18,0,1.89,0.7,1.89,1.89h0.94V12.64z M498.08,11.54c0-0.64-0.24-0.96-0.72-0.96h-0.08c-0.41,0-0.69,0.39-0.69,0.91
			c0,0.54,0.27,0.93,0.75,0.93C497.81,12.42,498.08,12.08,498.08,11.54z"/>
		<path d="M502.26,11.08c0,0.43-0.12,0.78-0.36,1.06c-0.27,0.33-0.64,0.49-1.11,0.49h-1.07v-1.08h0.83c0.38,0,0.57-0.27,0.57-0.79
			V7.44h1.13V11.08z"/>
		<path d="M504.21,12.64h-1.13V7.44h1.13V12.64z"/>
		<path d="M511.73,12.64h-1.14c-0.65,0-1.1-0.33-1.36-0.99c-0.2,0.31-0.59,0.48-1.15,0.48c-0.97,0-1.59-0.84-1.59-1.95
			c0-1.2,0.61-1.98,1.67-1.98c0-0.01,0.72-0.01,2.16-0.01v2.54c0,0.53,0.27,0.82,0.82,0.82h0.58V12.64z M508.4,7.44h-1V6.51h1V7.44z
			 M509.16,10.09V9.02h-0.74c-0.46,0-0.8,0.51-0.8,1.14c0,0.57,0.32,1.03,0.78,1.03C508.87,11.2,509.16,10.75,509.16,10.09z
			 M509.92,7.44h-1V6.51h1V7.44z"/>
		<path d="M518.31,12.64h-2.08c-0.47,0-0.89-0.19-1.25-0.56c-0.19,0.16-0.44,0.3-0.76,0.4c-0.34,0.1-0.67,0.16-1,0.16h-1.78v-1.08
			h1.76c0.4,0,0.75-0.09,1.05-0.27c-0.12-0.17-0.33-0.34-0.61-0.52c-0.34-0.21-0.67-0.35-0.99-0.4V9.44
			c0.73-0.44,1.49-0.65,2.24-0.65c0.9,0,1.73,0.3,2.49,0.89c-0.09,0.22-0.29,0.51-0.59,0.86c-0.33,0.38-0.64,0.65-0.93,0.83
			c0.15,0.14,0.35,0.2,0.61,0.2h1.84V12.64z M515.99,9.97c-0.35-0.18-0.69-0.27-1.02-0.27c-0.32,0-0.65,0.07-0.96,0.23
			c0.24,0.1,0.44,0.22,0.58,0.32c0.15,0.11,0.31,0.27,0.5,0.48c0.16-0.07,0.34-0.2,0.52-0.37C515.78,10.22,515.91,10.09,515.99,9.97
			z"/>
		<path d="M522.8,10.8c0,0.55-0.17,0.99-0.51,1.33c-0.33,0.34-0.78,0.51-1.34,0.51h-2.96v-1.08h1.21c-0.09-0.23-0.13-0.48-0.13-0.75
			c0-1.12,0.7-1.83,1.82-1.83c0.57,0,1.03,0.16,1.37,0.48C522.62,9.78,522.8,10.23,522.8,10.8z M521.67,10.83
			c0-0.64-0.24-0.95-0.72-0.95h-0.08c-0.23,0-0.4,0.1-0.53,0.3c-0.11,0.17-0.16,0.38-0.16,0.61c0,0.27,0.06,0.48,0.18,0.65
			c0.14,0.2,0.33,0.29,0.58,0.29c0.23,0,0.42-0.09,0.56-0.27C521.62,11.29,521.67,11.08,521.67,10.83z M521.37,8.36h-1V7.44h1V8.36z
			"/>
		<path d="M524.75,12.64h-1.13V7.44h1.13V12.64z"/>
		<path d="M528.98,12.64h-1.25c-0.19,0.89-0.91,1.33-2.2,1.33v-0.91c0.74,0,1.11-0.36,1.11-1.06V8.98h1.14v2.57h1.19V12.64z"/>
		<path d="M531.08,11.08c0,0.43-0.12,0.78-0.36,1.06c-0.27,0.33-0.64,0.49-1.11,0.49h-1.07v-1.08h0.83c0.38,0,0.57-0.27,0.57-0.79
			V7.44h1.13V11.08z"/>
		<path d="M534.33,12.64h-1.07c-0.86,0-1.36-0.5-1.36-1.33V7.44h1.13v3.29c0,0.55,0.14,0.84,0.97,0.84h0.33V12.64z"/>
		<path d="M536.58,11.08c0,0.43-0.12,0.78-0.36,1.06c-0.27,0.33-0.64,0.49-1.11,0.49h-0.96v-1.08h0.72c0.38,0,0.57-0.27,0.57-0.79
			V8.98h1.13V11.08z M536.52,13.98h-1v-0.94h1V13.98z"/>
		<path d="M543.86,11.24c0,1.59-1.04,2.74-2.55,2.74c-1.42,0-2.55-1.19-2.55-2.74v-0.8h1.12v0.69c0,1.05,0.56,1.8,1.44,1.8
			c0.89,0,1.4-0.69,1.4-1.8V7.44h1.14V11.24z"/>
		<path d="M548.22,12.48c0,0.99-0.61,1.49-1.85,1.49h-0.11v-0.9h0.07c0.45,0,0.9-0.31,0.9-0.75c-0.15,0.25-0.42,0.37-0.8,0.37
			c-1.04,0-1.82-0.79-1.82-1.87c0-1.11,0.76-1.85,1.82-1.85c1.04,0,1.79,0.8,1.79,1.87V12.48z M547.09,10.83
			c0-0.49-0.28-0.84-0.69-0.84c-0.4,0-0.66,0.34-0.66,0.82c0,0.45,0.26,0.83,0.7,0.83C546.85,11.64,547.09,11.33,547.09,10.83z"/>
		<path d="M550.18,12.64h-1.13V7.44h1.13V12.64z"/>
		<path d="M556.28,12.64h-5.23v-1.08h2.93c0-1.13-0.61-1.63-2.05-1.63V8.98c0.71,0,1.21,0.05,1.51,0.15
			c1.11,0.4,1.67,1.19,1.67,2.41h1.17V12.64z"/>
		<path d="M556.89,8.37h-1V7.44h1V8.37z M559.69,12.64h-3.64v-1.08h0.74c0.38,0,0.57-0.26,0.57-0.77v-1.8h1.14v1.76
			c0,0.3-0.05,0.56-0.14,0.81h1.32V12.64z M558.41,8.37h-1V7.44h1V8.37z"/>
		<path d="M561.88,11.08c0,0.43-0.12,0.78-0.36,1.06c-0.27,0.33-0.64,0.49-1.11,0.49h-1.07v-1.08h0.83c0.38,0,0.57-0.27,0.57-0.79
			V7.44h1.13V11.08z"/>
		<path d="M563.83,12.64h-1.13V7.44h1.13V12.64z"/>
		<path d="M572.43,12.64h-1.56c-0.44,0.84-1.26,1.34-2.2,1.34c-1.42,0-2.55-1.19-2.55-2.74v-0.8h1.13v0.69c0,1.06,0.52,1.8,1.43,1.8
			c0.89,0,1.41-0.67,1.41-1.8V7.44h1.13v4.12h1.21V12.64z"/>
		<path d="M577.75,12.64h-1.29c-0.33,0.46-0.84,0.7-1.51,0.7c-0.69,0-1.2-0.23-1.53-0.7h-1.24v-1.08h0.9c0-1.16,0.66-1.89,1.83-1.89
			c1.18,0,1.89,0.7,1.89,1.89h0.94V12.64z M575.68,11.54c0-0.64-0.24-0.96-0.72-0.96h-0.08c-0.41,0-0.69,0.39-0.69,0.91
			c0,0.54,0.27,0.93,0.75,0.93C575.41,12.42,575.68,12.08,575.68,11.54z"/>
		<path d="M578.34,8.37h-1V7.44h1V8.37z M581.13,12.64h-3.64v-1.08h0.74c0.38,0,0.57-0.26,0.57-0.77v-1.8h1.14v1.76
			c0,0.3-0.05,0.56-0.14,0.81h1.32V12.64z M579.86,8.37h-1V7.44h1V8.37z"/>
		<path d="M589.27,12.64h-8.48v-1.08h1.02c0.37,0,0.57-0.2,0.57-0.77V8.98h1.14v1.76c0,0.3-0.05,0.57-0.14,0.81h0.72
			c0.38,0,0.57-0.24,0.57-0.73V8.98h1.13v1.76c0,0.3-0.05,0.57-0.14,0.81h0.72c0.38,0,0.57-0.24,0.57-0.73V8.98h1.14v1.75
			c0,0.3-0.05,0.57-0.15,0.82h1.32V12.64z M584.95,8.37h-1.01V7.44h1.01V8.37z M585.69,7.04h-1V6.11h1V7.04z M586.47,8.37h-1V7.44h1
			V8.37z"/>
		<path d="M589.9,13.98h-1v-0.94h1V13.98z M591.5,11.08c0,0.43-0.12,0.78-0.36,1.06c-0.27,0.33-0.64,0.49-1.11,0.49h-0.96v-1.08
			h0.72c0.38,0,0.57-0.27,0.57-0.79V8.98h1.13V11.08z M591.43,13.98h-1.01v-0.94h1.01V13.98z"/>
	</g>
	<rect class="st0" width="970" height="20"/>
	<g>
		<path d="M338.81,12.64h-1.37v-1.49h1.37V12.64z"/>
		<path d="M345.06,9.96c0,0.81-0.25,1.46-0.74,1.95c-0.49,0.49-1.15,0.74-1.97,0.74c-0.83,0-1.49-0.25-1.99-0.73
			c-0.49-0.48-0.74-1.14-0.74-1.96s0.25-1.47,0.73-1.96c0.48-0.48,1.13-0.73,1.94-0.73c0.83,0,1.5,0.23,2,0.71
			C344.81,8.47,345.06,9.12,345.06,9.96z M341.96,6.42h-1.38V5.13h1.38V6.42z M343.57,10.01c0-1.03-0.41-1.54-1.25-1.54
			c-0.82,0-1.22,0.51-1.22,1.54c0,0.41,0.1,0.76,0.3,1.02c0.21,0.29,0.52,0.42,0.92,0.42c0.41,0,0.73-0.13,0.95-0.42
			C343.46,10.77,343.57,10.43,343.57,10.01z M344.07,6.42h-1.38V5.13h1.38V6.42z"/>
		<path d="M349.12,11.62c0,1.03-0.26,1.76-0.78,2.22c-0.48,0.44-1.26,0.65-2.33,0.65v-1.26c1.03,0,1.54-0.49,1.54-1.47V7.59h1.58
			V11.62z"/>
		<path d="M353.62,12.65h-1.47c-1.19,0-1.89-0.69-1.89-1.84V5.45h1.56v4.55c0,0.76,0.19,1.16,1.34,1.16h0.46V12.65z"/>
		<path d="M364.87,12.65h-11.5v-1.5h1.18c0.51,0,0.79-0.28,0.79-1.06v-2.5h1.58v2.43c0,0.41-0.07,0.79-0.19,1.13h0.99
			c0.52,0,0.79-0.33,0.79-1V7.59h1.56v2.43c0,0.41-0.07,0.79-0.19,1.13h0.99c0.52,0,0.79-0.33,0.79-1V7.59h1.57v2.42
			c0,0.41-0.07,0.79-0.2,1.14h1.82V12.65z"/>
		<path d="M373.69,12.65h-9.11v-1.5h6.34c-0.03-0.59-0.25-1.09-0.64-1.52c-0.44-0.48-1.02-0.73-1.72-0.73
			c-0.67,0-1.43,0.35-1.87,0.8c-0.16-0.21-0.41-0.56-0.78-1.06c0.76-0.79,1.68-1.18,2.76-1.18c0.66,0,1.24,0.12,1.74,0.36
			c1.2,0.57,1.9,1.68,2.09,3.33h1.18V12.65z M369.34,6.74h-1.38V5.46h1.38V6.74z"/>
		<path d="M376.71,10.5c0,0.59-0.17,1.08-0.49,1.47c-0.37,0.46-0.88,0.68-1.54,0.68h-1.47v-1.5h1.15c0.52,0,0.79-0.37,0.79-1.09
			v-4.6h1.56V10.5z"/>
		<path d="M381.21,12.65h-1.47c-1.19,0-1.89-0.69-1.89-1.84V5.45h1.56v4.55c0,0.76,0.19,1.16,1.34,1.16h0.46V12.65z"/>
		<path d="M384.33,10.5c0,0.59-0.17,1.08-0.49,1.47c-0.37,0.46-0.88,0.68-1.53,0.68h-1.33v-1.5h0.99c0.52,0,0.79-0.37,0.79-1.09
			V7.59h1.56V10.5z M384.24,14.5h-1.39v-1.3h1.39V14.5z"/>
		<path d="M392.76,9.96c0,0.81-0.25,1.46-0.74,1.95c-0.49,0.49-1.15,0.74-1.97,0.74c-0.83,0-1.49-0.25-1.99-0.73
			c-0.49-0.48-0.74-1.14-0.74-1.96s0.25-1.47,0.73-1.96c0.48-0.48,1.13-0.73,1.94-0.73c0.83,0,1.5,0.23,2,0.71
			C392.51,8.47,392.76,9.12,392.76,9.96z M389.66,6.42h-1.39V5.13h1.39V6.42z M391.27,10.01c0-1.03-0.41-1.54-1.25-1.54
			c-0.82,0-1.22,0.51-1.22,1.54c0,0.41,0.1,0.76,0.3,1.02c0.21,0.29,0.52,0.42,0.92,0.42c0.41,0,0.73-0.13,0.95-0.42
			C391.17,10.77,391.27,10.43,391.27,10.01z M391.77,6.42h-1.38V5.13h1.38V6.42z"/>
		<path d="M398.47,12.65h-1.73c-0.26,1.23-1.26,1.84-3.04,1.84v-1.26c1.03,0,1.54-0.49,1.54-1.47V7.59h1.58v3.56h1.65V12.65z"/>
		<path d="M399.29,14.5h-1.38v-1.3h1.38V14.5z M403.19,12.65h-5.03v-1.5h1.03c0.52,0,0.78-0.36,0.78-1.07V7.59h1.57v2.43
			c0,0.41-0.06,0.78-0.18,1.13h1.82V12.65z M401.39,14.5h-1.39v-1.3h1.39V14.5z"/>
		<path d="M408,12.65h-5.04v-1.5h1.03c0.52,0,0.79-0.36,0.79-1.07V7.59h1.57v2.43c0,0.41-0.07,0.78-0.19,1.13H408V12.65z
			 M406.2,14.5h-1.38v-1.3h1.38V14.5z"/>
		<path d="M415.53,12.65h-8.13v-1.5h6.43c-0.16-1.22-1.08-2.13-2.27-2.13h-2.81l2.23-3.56h1.85l-1.41,2.12h0.86
			c2.13,0.22,3.24,1.87,3.24,4.49V12.65z"/>
		<path d="M423.52,12.65h-1.73c-0.26,1.23-1.26,1.84-3.04,1.84v-1.26c1.03,0,1.54-0.49,1.54-1.47V7.59h1.58v3.56h1.65V12.65z"/>
		<path d="M432.54,12.65h-9.83v-1.5H425v-5.7h1.55l-0.15,3.65c1.01-1.05,2.01-1.54,3.12-1.54c2.01,0,3.07,1.55,3.07,4.05
			C432.6,11.96,432.58,12.3,432.54,12.65z M430.96,11.15c0.01-0.08,0.01-0.14,0.01-0.22c0-1.16-0.58-2-1.55-2
			c-1.15,0-2.18,0.75-3.04,2.22H430.96z"/>
		<path d="M437.12,12.65h-1.47c-1.19,0-1.89-0.69-1.89-1.84V5.45h1.56v4.55c0,0.76,0.19,1.16,1.34,1.16h0.46V12.65z"/>
		<path d="M445.95,12.65h-9.11v-1.5h6.34c-0.03-0.59-0.25-1.09-0.64-1.52c-0.44-0.48-1.02-0.73-1.72-0.73
			c-0.67,0-1.43,0.35-1.87,0.8c-0.16-0.21-0.41-0.56-0.78-1.06c0.76-0.79,1.68-1.18,2.76-1.18c0.66,0,1.24,0.12,1.74,0.36
			c1.2,0.57,1.9,1.68,2.09,3.33h1.18V12.65z M441.61,6.74h-1.38V5.46h1.38V6.74z"/>
		<path d="M452.29,11.06c0,1.5-1.01,2.55-2.57,2.55c-0.95,0-1.66-0.32-2.12-0.96h-2.01v-1.5h1.55c0-1.6,0.92-2.61,2.52-2.61
			S452.29,9.53,452.29,11.06z M450.74,11.12c0-0.88-0.33-1.33-0.99-1.33h-0.11c-0.57,0-0.96,0.53-0.96,1.26
			c0,0.76,0.38,1.29,1.05,1.29C450.33,12.34,450.74,11.85,450.74,11.12z"/>
		<path d="M465.14,12.65h-0.08c-0.9,0-1.58-0.22-2.01-0.66c-0.35,1.51-1.93,2.51-3.75,2.51c-2.23,0-4-1.64-4-3.81V9.36h1.56v1.2
			c0,1.5,0.88,2.5,2.47,2.5c1.21,0,2.36-0.76,2.36-1.8c0-0.59-0.5-0.98-1.04-0.98c-0.09,0-0.18,0.01-0.27,0.03V8.94
			c0-0.01,0.22-0.01,0.68-0.01c1.13,0,1.97,0.51,2.5,1.54c0.27,0.51,0.66,0.68,1.33,0.68h0.25V12.65z"/>
		<path d="M470.01,12.65h-5.07v-1.5H466c0.52,0,0.79-0.36,0.79-1.07V5.46h1.57v4.57c0,0.41-0.07,0.78-0.19,1.13h1.83V12.65z"/>
		<path d="M476.02,12.65h-6.29v-1.5h1.76c-0.15-0.39-0.22-0.75-0.22-1.07c0-0.73,0.23-1.35,0.7-1.87c0.48-0.51,1.08-0.77,1.82-0.77
			c0.95,0,1.75,0.54,2.14,1.42l-1.28,0.59c-0.15-0.44-0.44-0.66-0.89-0.66c-0.31,0-0.56,0.12-0.73,0.38
			c-0.16,0.21-0.23,0.49-0.23,0.83c0,0.59,0.21,0.98,0.62,1.15h2.59V12.65z"/>
		<path d="M486.28,12.65h-1.57c-0.89,0-1.52-0.46-1.88-1.37c-0.28,0.44-0.82,0.67-1.59,0.67c-1.34,0-2.2-1.16-2.2-2.7
			c0-1.67,0.84-2.74,2.31-2.74c0-0.01,0.99-0.01,2.98-0.01v3.52c0,0.74,0.38,1.14,1.14,1.14h0.8V12.65z M481.68,5.46h-1.39V4.16
			h1.39V5.46z M482.73,9.12V7.65h-1.03c-0.64,0-1.11,0.7-1.11,1.58c0,0.78,0.45,1.43,1.07,1.43
			C482.33,10.65,482.73,10.04,482.73,9.12z M483.78,5.46h-1.38V4.16h1.38V5.46z"/>
		<path d="M487.13,14.5h-1.38v-1.3h1.38V14.5z M491.03,12.65H486v-1.5h1.03c0.53,0,0.78-0.36,0.78-1.07V7.59h1.58v2.43
			c0,0.41-0.06,0.78-0.18,1.13h1.82V12.65z M489.23,14.5h-1.38v-1.3h1.38V14.5z"/>
		<path d="M494.07,10.5c0,0.59-0.17,1.08-0.49,1.47c-0.37,0.46-0.88,0.68-1.54,0.68h-1.47v-1.5h1.15c0.53,0,0.79-0.37,0.79-1.09
			v-4.6h1.56V10.5z"/>
		<path d="M498.57,12.65h-1.47c-1.2,0-1.89-0.69-1.89-1.84V5.45h1.56v4.55c0,0.76,0.19,1.16,1.34,1.16h0.46V12.65z"/>
		<path d="M505.97,12.65h-1.79c-0.46,0.64-1.16,0.96-2.09,0.96c-0.95,0-1.65-0.32-2.12-0.96h-1.71v-1.5h1.25
			c0-1.61,0.92-2.61,2.54-2.61c1.63,0,2.61,0.97,2.61,2.61h1.31V12.65z M503.11,11.12c0-0.88-0.33-1.33-0.99-1.33H502
			c-0.57,0-0.95,0.54-0.95,1.26c0,0.75,0.38,1.29,1.04,1.29C502.73,12.34,503.11,11.87,503.11,11.12z"/>
		<path d="M508.9,10.5c0,0.59-0.17,1.08-0.49,1.47c-0.37,0.46-0.88,0.68-1.54,0.68h-1.47v-1.5h1.15c0.53,0,0.79-0.37,0.79-1.09v-4.6
			h1.56V10.5z"/>
		<path d="M511.6,12.65h-1.56v-7.2h1.56V12.65z"/>
		<path d="M522,12.65h-1.57c-0.89,0-1.52-0.46-1.88-1.37c-0.28,0.44-0.82,0.67-1.59,0.67c-1.34,0-2.2-1.16-2.2-2.7
			c0-1.67,0.84-2.74,2.31-2.74c0-0.01,0.99-0.01,2.98-0.01v3.52c0,0.74,0.38,1.14,1.14,1.14h0.8V12.65z M517.4,5.46h-1.38V4.16h1.38
			V5.46z M518.45,9.12V7.65h-1.03c-0.64,0-1.11,0.7-1.11,1.58c0,0.78,0.45,1.43,1.07,1.43C518.05,10.65,518.45,10.04,518.45,9.12z
			 M519.5,5.46h-1.38V4.16h1.38V5.46z"/>
		<path d="M531.12,12.65h-2.88c-0.65,0-1.23-0.26-1.73-0.78c-0.27,0.22-0.61,0.41-1.05,0.56c-0.47,0.15-0.93,0.22-1.38,0.22h-2.46
			v-1.5h2.43c0.55,0,1.04-0.12,1.45-0.38c-0.17-0.23-0.46-0.47-0.85-0.71c-0.47-0.29-0.93-0.48-1.36-0.56V8.22
			c1.02-0.6,2.06-0.9,3.09-0.9c1.24,0,2.39,0.41,3.45,1.23c-0.12,0.3-0.4,0.7-0.82,1.18c-0.46,0.53-0.88,0.91-1.29,1.15
			c0.2,0.19,0.48,0.28,0.84,0.28h2.55V12.65z M527.9,8.95c-0.48-0.25-0.95-0.37-1.41-0.37c-0.45,0-0.89,0.1-1.33,0.31
			c0.33,0.15,0.6,0.3,0.8,0.45c0.2,0.15,0.44,0.37,0.69,0.67c0.22-0.1,0.47-0.28,0.73-0.51C527.62,9.3,527.8,9.12,527.9,8.95z"/>
		<path d="M537.34,10.1c0,0.76-0.23,1.37-0.7,1.84c-0.46,0.47-1.08,0.7-1.85,0.7h-4.09v-1.5h1.67c-0.12-0.32-0.18-0.67-0.18-1.04
			c0-1.55,0.97-2.54,2.52-2.54c0.78,0,1.42,0.22,1.9,0.67C537.09,8.69,537.34,9.31,537.34,10.1z M535.78,10.15
			c0-0.88-0.33-1.32-0.99-1.32h-0.11c-0.31,0-0.56,0.13-0.74,0.41c-0.15,0.23-0.22,0.52-0.22,0.85c0,0.37,0.08,0.66,0.25,0.89
			c0.19,0.27,0.46,0.4,0.8,0.4c0.32,0,0.58-0.12,0.77-0.38C535.71,10.77,535.78,10.5,535.78,10.15z M535.36,6.73h-1.38V5.45h1.38
			V6.73z"/>
		<path d="M540.04,12.65h-1.56v-7.2h1.56V12.65z"/>
		<path d="M545.9,12.65h-1.73c-0.26,1.23-1.26,1.84-3.04,1.84v-1.26c1.03,0,1.54-0.49,1.54-1.47V7.59h1.57v3.56h1.65V12.65z"/>
		<path d="M548.81,10.5c0,0.59-0.17,1.08-0.49,1.47c-0.37,0.46-0.88,0.68-1.54,0.68h-1.47v-1.5h1.15c0.53,0,0.79-0.37,0.79-1.09
			v-4.6h1.56V10.5z"/>
		<path d="M553.32,12.65h-1.47c-1.2,0-1.89-0.69-1.89-1.84V5.45h1.56v4.55c0,0.76,0.19,1.16,1.34,1.16h0.46V12.65z"/>
		<path d="M556.43,10.5c0,0.59-0.17,1.08-0.49,1.47c-0.37,0.46-0.88,0.68-1.53,0.68h-1.33v-1.5h0.99c0.52,0,0.79-0.37,0.79-1.09
			V7.59h1.56V10.5z M556.34,14.5h-1.38v-1.3h1.38V14.5z"/>
		<path d="M566.5,10.71c0,2.2-1.44,3.8-3.53,3.8c-1.97,0-3.53-1.65-3.53-3.8V9.6h1.55v0.96c0,1.45,0.77,2.49,1.99,2.49
			c1.23,0,1.94-0.96,1.94-2.49v-5.1h1.58V10.71z"/>
		<path d="M572.55,12.43c0,1.37-0.85,2.07-2.56,2.07h-0.16v-1.25h0.1c0.63,0,1.24-0.44,1.24-1.04c-0.21,0.35-0.58,0.51-1.11,0.51
			c-1.44,0-2.51-1.09-2.51-2.59c0-1.53,1.05-2.56,2.51-2.56c1.44,0,2.48,1.11,2.48,2.58V12.43z M570.98,10.15
			c0-0.68-0.39-1.16-0.95-1.16c-0.55,0-0.92,0.47-0.92,1.13c0,0.62,0.36,1.15,0.97,1.15C570.65,11.27,570.98,10.83,570.98,10.15z"/>
		<path d="M575.26,12.65h-1.56v-7.2h1.56V12.65z"/>
		<path d="M583.71,12.65h-7.24v-1.5h4.05c0-1.56-0.85-2.26-2.84-2.26V7.59c0.98,0,1.67,0.07,2.09,0.21
			c1.54,0.55,2.31,1.65,2.31,3.34h1.62V12.65z"/>
		<path d="M584.56,6.74h-1.38V5.46h1.38V6.74z M588.42,12.65h-5.04v-1.5h1.03c0.53,0,0.79-0.36,0.79-1.07V7.59h1.58v2.43
			c0,0.41-0.07,0.78-0.19,1.13h1.83V12.65z M586.66,6.74h-1.38V5.46h1.38V6.74z"/>
		<path d="M591.46,10.5c0,0.59-0.17,1.08-0.49,1.47c-0.37,0.46-0.88,0.68-1.54,0.68h-1.47v-1.5h1.15c0.53,0,0.79-0.37,0.79-1.09
			v-4.6h1.56V10.5z"/>
		<path d="M594.17,12.65h-1.56v-7.2h1.56V12.65z"/>
		<path d="M606.07,12.65h-2.16c-0.61,1.16-1.74,1.85-3.05,1.85c-1.97,0-3.53-1.65-3.53-3.8V9.6h1.56v0.96
			c0,1.46,0.73,2.49,1.98,2.49c1.23,0,1.95-0.93,1.95-2.49v-5.1h1.56v5.7h1.68V12.65z"/>
		<path d="M613.43,12.65h-1.79c-0.46,0.64-1.16,0.96-2.09,0.96c-0.95,0-1.65-0.32-2.12-0.96h-1.71v-1.5h1.25
			c0-1.61,0.92-2.61,2.54-2.61c1.63,0,2.61,0.97,2.61,2.61h1.31V12.65z M610.57,11.12c0-0.88-0.33-1.33-0.99-1.33h-0.11
			c-0.57,0-0.95,0.54-0.95,1.26c0,0.75,0.38,1.29,1.04,1.29C610.19,12.34,610.57,11.87,610.57,11.12z"/>
		<path d="M614.26,6.74h-1.38V5.46h1.38V6.74z M618.12,12.65h-5.04v-1.5h1.03c0.53,0,0.79-0.36,0.79-1.07V7.59h1.58v2.43
			c0,0.41-0.07,0.78-0.19,1.13h1.83V12.65z M616.36,6.74h-1.38V5.46h1.38V6.74z"/>
		<path d="M629.39,12.65h-11.73v-1.5h1.41c0.51,0,0.79-0.28,0.79-1.06v-2.5h1.58v2.43c0,0.41-0.07,0.79-0.19,1.13h0.99
			c0.53,0,0.79-0.33,0.79-1V7.59h1.56v2.43c0,0.41-0.07,0.79-0.19,1.13h0.99c0.53,0,0.79-0.33,0.79-1V7.59h1.58v2.42
			c0,0.41-0.07,0.79-0.2,1.14h1.82V12.65z M623.41,6.74h-1.4V5.46h1.4V6.74z M624.44,4.9h-1.39V3.61h1.39V4.9z M625.51,6.74h-1.39
			V5.46h1.39V6.74z"/>
		<path d="M630.27,14.5h-1.38v-1.3h1.38V14.5z M632.48,10.5c0,0.59-0.17,1.08-0.49,1.47c-0.37,0.46-0.88,0.68-1.53,0.68h-1.33v-1.5
			h0.99c0.52,0,0.79-0.37,0.79-1.09V7.59h1.56V10.5z M632.38,14.5h-1.4v-1.3h1.4V14.5z"/>
	</g>
</g>
</svg>
