<svg width="128" height="44" viewBox="0 0 128 44" fill="none" xmlns="http://www.w3.org/2000/svg"><path d="M85.77 16.802h-6.657C77.288 6.349 69.648 0 58.097 0 45.114 0 36.72 8.695 36.72 22.131c0 13.437 8.132 21.937 21.377 21.869 10.797 0 18.456-5.968 20.735-15.745h4.509l1.376-3.822H79.43a31.311 31.311 0 00.081-3.822h4.944l1.314-3.822v.013zm-18.613 7.644h-7.092l-1.377 3.822h8.09c-.91 5.723-3.357 9.683-8.42 9.683-6.687 0-9.309-7.119-9.309-15.939s2.099-15.876 8.855-15.938c5.311 0 8.057 4.447 8.967 10.734h-5.754l-1.314 3.822h7.385c.013.457.025.913.025 1.382 0 .832-.019 1.645-.056 2.44v-.006zM0 42.949h11.607v-14.95h19.74v-9.684h-19.74v-7.118h21.838V.988H0v41.96zM118.037 28.324c5.181-2.24 8.587-6.524 8.587-12.911v-.131c0-4.085-1.246-7.375-3.674-9.752-2.815-2.834-7.279-4.542-13.637-4.542H89.512v41.96h11.607V30.233h5.112l8.394 12.717H128l-9.969-14.625h.006zm-3.02-12.192c0 3.097-2.292 5.005-6.227 5.005h-7.678v-10.14h7.61c3.935 0 6.295 1.714 6.295 5.004v.131z" fill="#fff"/></svg>