<svg width="300" height="20" viewBox="0 0 300 20" fill="none" xmlns="http://www.w3.org/2000/svg"><path fill="#fff" d="M0 0h300v20H0z"/><path d="M56.41 12.387V13h-2.36v-.613h2.36zm-2.23-5.075V13h-.72V7.312h.72zm6.144 5.075V13h-2.468v-.613h2.468zm-2.34-5.075V13h-.718V7.312h.718zm2.008 2.446v.613h-2.136v-.613h2.136zm.293-2.445v.617h-2.43v-.617h2.43zm2.52 4.824l1.367-4.825h.781L63.187 13h-.55l.168-.863zm-1.227-4.825l1.356 4.825.18.863h-.551l-1.766-5.688h.781zm7.207 5.075V13h-2.469v-.613h2.47zm-2.34-5.075V13h-.718V7.312h.718zm2.008 2.446v.613h-2.137v-.613h2.137zm.293-2.445v.617h-2.43v-.617h2.43zm.961 0h1.59c.37 0 .68.065.93.195.252.13.442.323.57.578.13.253.195.564.195.934 0 .26-.043.498-.129.714a1.488 1.488 0 01-.375.547c-.164.149-.363.26-.597.332l-.196.082h-1.418l-.008-.613h1.02a.992.992 0 00.547-.14.896.896 0 00.328-.387c.073-.162.11-.34.11-.535 0-.22-.033-.41-.098-.575a.763.763 0 00-.313-.379c-.14-.09-.33-.136-.566-.136h-.871V13h-.719V7.312zM72.437 13l-1.132-2.578.746-.004 1.156 2.535V13h-.77zm3.36-5.184L74.242 13h-.734l1.832-5.688h.46l-.003.504zM77.055 13L75.5 7.816l-.008-.503h.465L77.789 13h-.734zm0-2.105v.617h-2.743v-.617h2.743zm5.03-.727v2.121a2.936 2.936 0 01-.284.313c-.125.125-.301.235-.528.332-.226.096-.523.144-.89.144a2.14 2.14 0 01-.809-.148 1.695 1.695 0 01-.629-.446c-.174-.2-.31-.449-.406-.746-.096-.3-.145-.65-.145-1.05V9.62c0-.398.04-.747.122-1.047.08-.3.2-.548.359-.746.162-.198.36-.346.598-.445.24-.1.518-.149.836-.149.367 0 .68.07.937.207.258.138.457.338.598.598.143.26.224.573.242.938h-.719a1.672 1.672 0 00-.148-.602.876.876 0 00-.344-.387 1.067 1.067 0 00-.566-.136c-.22 0-.404.036-.555.109a.918.918 0 00-.371.328c-.094.146-.163.33-.207.55-.042.222-.063.48-.063.774v1.075c0 .302.03.565.09.789.06.223.145.408.254.554.112.146.246.255.402.328.157.07.332.106.528.106.221 0 .396-.024.523-.07a.921.921 0 00.293-.16l.168-.145v-1.313h-1.043v-.609h1.758zm4.224 2.219V13h-2.47v-.613h2.47zm-2.34-5.075V13h-.719V7.312h.719zm2.008 2.446v.613H83.84v-.613h2.137zm.292-2.445v.617h-2.43v-.617h2.43zM88.516 13h-.97l.009-.613h.96c.342 0 .62-.065.833-.196a1.17 1.17 0 00.472-.586c.102-.26.153-.582.153-.964v-.973c0-.302-.029-.563-.086-.781a1.405 1.405 0 00-.258-.54 1.029 1.029 0 00-.434-.312 1.634 1.634 0 00-.613-.105h-1.055v-.617h1.055c.32 0 .61.05.867.152.258.099.48.249.664.45.185.197.326.443.422.737.1.295.149.636.149 1.024v.965c0 .388-.05.729-.149 1.023-.096.294-.238.54-.426.738a1.81 1.81 0 01-.683.45 2.597 2.597 0 01-.91.148zm-.57-5.688V13h-.72V7.312h.72zm7.359 0V13h-.711V7.312h.71zm1.496 0v.618h-3.7v-.617h3.7zm.843 0h1.59c.37 0 .68.066.93.196.253.13.443.323.57.578.131.253.196.564.196.934 0 .26-.043.498-.129.714a1.488 1.488 0 01-.375.547c-.164.149-.364.26-.598.332l-.195.082h-1.418l-.008-.613h1.02a.992.992 0 00.546-.14.897.897 0 00.329-.387 1.3 1.3 0 00.109-.535c0-.22-.033-.41-.098-.575a.762.762 0 00-.312-.379c-.14-.09-.33-.136-.567-.136h-.87V13h-.72V7.312zM100.375 13l-1.133-2.578.746-.004 1.157 2.535V13h-.77zm3.359-5.184L102.18 13h-.735l1.832-5.688h.461l-.004.504zM104.992 13l-1.554-5.184-.008-.503h.465L105.727 13h-.735zm0-2.105v.617h-2.742v-.617h2.742zM107.797 13h-.969l.008-.613h.961c.341 0 .618-.065.832-.196.213-.132.371-.328.473-.586.101-.26.152-.582.152-.964v-.973c0-.302-.029-.563-.086-.781a1.395 1.395 0 00-.258-.54 1.026 1.026 0 00-.433-.312 1.638 1.638 0 00-.614-.105h-1.054v-.617h1.054c.321 0 .61.05.867.152.258.099.48.249.665.45.184.197.325.443.421.737.099.295.149.636.149 1.024v.965c0 .388-.05.729-.149 1.023-.096.294-.238.54-.425.738a1.816 1.816 0 01-.684.45 2.598 2.598 0 01-.91.148zm-.57-5.688V13h-.719V7.312h.719zm4.601 0V13h-.719V7.312h.719zm4.969 0V13h-.723l-2.277-4.387V13h-.719V7.312h.719l2.289 4.399V7.312h.711zm4.805 2.856v2.121a2.973 2.973 0 01-.286.313c-.125.125-.3.235-.527.332-.227.096-.523.144-.891.144-.294 0-.563-.05-.808-.148a1.696 1.696 0 01-.629-.446c-.175-.2-.31-.449-.406-.746-.097-.3-.145-.65-.145-1.05V9.62c0-.398.041-.747.121-1.047.081-.3.201-.548.36-.746.161-.198.36-.346.597-.445.24-.1.519-.149.836-.149.367 0 .68.07.938.207.258.138.457.338.597.598.144.26.224.573.243.938h-.719a1.662 1.662 0 00-.149-.602.872.872 0 00-.343-.387 1.071 1.071 0 00-.567-.136c-.219 0-.403.036-.554.109a.918.918 0 00-.372.328 1.62 1.62 0 00-.207.55c-.041.222-.062.48-.062.774v1.075c0 .302.03.565.09.789a1.6 1.6 0 00.254.554c.112.146.246.255.402.328.156.07.332.106.527.106.222 0 .396-.024.524-.07a.932.932 0 00.293-.16l.168-.145v-1.313h-1.043v-.609h1.758zm3.75-2.855V13h-.719V7.312h.719zm4.968 0V13h-.722l-2.278-4.387V13h-.718V7.312h.718l2.289 4.399V7.312h.711zm2.805 4.824l1.367-4.825h.781L133.508 13h-.551l.168-.863zm-1.227-4.825l1.356 4.825.18.863h-.551l-1.766-5.688h.781zm7.793 2.352v.988c0 .401-.044.754-.132 1.059a2.084 2.084 0 01-.379.758 1.592 1.592 0 01-.602.457 1.976 1.976 0 01-.793.152c-.284 0-.543-.05-.777-.152a1.62 1.62 0 01-.606-.457 2.185 2.185 0 01-.394-.758 3.708 3.708 0 01-.137-1.059v-.988c0-.401.046-.753.137-1.055.091-.304.221-.558.39-.761.17-.203.372-.356.606-.457a1.89 1.89 0 01.777-.157c.295 0 .559.052.793.157.237.101.438.254.602.457.166.203.294.457.383.761.088.302.132.654.132 1.055zm-.711.988v-.996c0-.312-.026-.58-.078-.804a1.564 1.564 0 00-.23-.555.934.934 0 00-.375-.317 1.193 1.193 0 00-.516-.105c-.185 0-.351.035-.5.105a.962.962 0 00-.375.317 1.604 1.604 0 00-.242.555 3.416 3.416 0 00-.082.804v.996c0 .315.027.586.082.813.057.224.138.409.242.555.107.143.235.25.383.32.149.068.314.101.496.101.195 0 .367-.033.516-.101a.925.925 0 00.375-.32c.101-.146.177-.331.226-.555.052-.227.078-.498.078-.813zm4.774 1.735V13h-2.359v-.613h2.359zm-2.231-5.075V13h-.718V7.312h.718zm3.961 4.825l1.368-4.825h.781L145.867 13h-.551l.168-.863zm-1.226-4.825l1.355 4.825.18.863h-.551l-1.765-5.688h.781zm7.207 5.075V13h-2.469v-.613h2.469zm-2.34-5.075V13h-.719V7.312h.719zm2.008 2.446v.613h-2.137v-.613h2.137zm.293-2.445v.617h-2.43v-.617h2.43zm3.445 4.25c0-.133-.016-.25-.047-.352a.701.701 0 00-.164-.281 1.263 1.263 0 00-.328-.239 4.13 4.13 0 00-.535-.23 4.631 4.631 0 01-.637-.277 2.196 2.196 0 01-.488-.356 1.43 1.43 0 01-.309-.457 1.497 1.497 0 01-.109-.59c0-.221.038-.426.113-.613a1.474 1.474 0 01.844-.816c.2-.079.424-.118.672-.118.37 0 .681.082.933.246.256.162.448.374.579.637.13.26.195.54.195.836h-.719c0-.213-.035-.402-.105-.566a.82.82 0 00-.321-.39c-.143-.097-.33-.145-.562-.145-.209 0-.38.04-.516.12a.751.751 0 00-.297.329 1.142 1.142 0 00-.093.472c0 .12.02.23.062.329a.86.86 0 00.191.27c.089.082.198.16.329.23.132.07.289.138.468.203.279.09.517.192.715.304.198.112.36.239.485.38.125.137.216.295.273.472.06.174.09.372.09.594 0 .232-.039.441-.117.629a1.311 1.311 0 01-.332.48 1.536 1.536 0 01-.528.309c-.205.07-.437.105-.695.105a2.05 2.05 0 01-.66-.11 1.805 1.805 0 01-.582-.327 1.607 1.607 0 01-.418-.54 1.71 1.71 0 01-.156-.75h.718c0 .196.029.364.086.504a.94.94 0 00.239.344.986.986 0 00.347.203c.133.042.275.063.426.063.208 0 .383-.037.523-.11a.717.717 0 00.321-.312.998.998 0 00.109-.48zm5.984 0c0-.133-.015-.25-.046-.352a.713.713 0 00-.164-.281 1.288 1.288 0 00-.329-.239 4.07 4.07 0 00-.535-.23 4.67 4.67 0 01-.636-.277 2.203 2.203 0 01-.489-.356 1.428 1.428 0 01-.308-.457 1.497 1.497 0 01-.11-.59c0-.221.038-.426.114-.613a1.459 1.459 0 01.843-.816c.201-.079.425-.118.672-.118.37 0 .681.082.934.246.255.162.448.374.578.637.13.26.195.54.195.836h-.719c0-.213-.035-.402-.105-.566a.818.818 0 00-.32-.39c-.144-.097-.331-.145-.563-.145-.208 0-.38.04-.515.12a.751.751 0 00-.297.329 1.127 1.127 0 00-.094.472c0 .12.021.23.062.329a.848.848 0 00.192.27c.088.082.198.16.328.23.133.07.289.138.469.203.278.09.517.192.715.304.197.112.359.239.484.38.125.137.216.295.273.472.06.174.09.372.09.594 0 .232-.039.441-.117.629a1.288 1.288 0 01-.332.48 1.541 1.541 0 01-.527.309c-.206.07-.438.105-.696.105a2.05 2.05 0 01-.66-.11 1.827 1.827 0 01-.582-.327 1.62 1.62 0 01-.418-.54 1.71 1.71 0 01-.156-.75h.719c0 .196.028.364.086.504a.926.926 0 00.238.344.982.982 0 00.348.203c.132.042.274.063.425.063.209 0 .383-.037.524-.11a.714.714 0 00.32-.312.998.998 0 00.109-.48zm2.411-4.25V13h-.719V7.312h.719zm4.812 2.855v2.121a2.838 2.838 0 01-.285.313 1.66 1.66 0 01-.527.332c-.227.096-.524.144-.891.144-.294 0-.564-.05-.809-.148a1.692 1.692 0 01-.628-.446c-.175-.2-.31-.449-.407-.746a3.45 3.45 0 01-.144-1.05V9.62c0-.398.04-.747.121-1.047.081-.3.2-.548.359-.746.162-.198.361-.346.598-.445.239-.1.518-.149.836-.149.367 0 .679.07.937.207.258.138.457.338.598.598.143.26.224.573.242.938h-.719a1.662 1.662 0 00-.148-.602.874.874 0 00-.344-.387 1.065 1.065 0 00-.566-.136 1.27 1.27 0 00-.555.109.915.915 0 00-.371.328 1.58 1.58 0 00-.207.55c-.042.222-.063.48-.063.774v1.075c0 .302.03.565.09.789.06.223.145.408.254.554.112.146.246.255.403.328.156.07.332.106.527.106.221 0 .396-.024.523-.07a.91.91 0 00.293-.16l.168-.145v-1.313h-1.043v-.609h1.758zm4.883-2.855V13h-.723l-2.277-4.387V13h-.719V7.312h.719l2.289 4.399V7.312h.711zm1.992 0V13h-.719V7.312h.719zm1.969 0V13h-.719V7.312h.719zm1.918 2.558v.617h-2.055v-.617h2.055zm.324-2.559v.618h-2.379v-.617h2.379zm1.641 0V13h-.719V7.312h.719zm4.097 3.88h.719c-.018.39-.098.727-.238 1.011-.138.281-.34.498-.606.649-.263.15-.592.226-.988.226-.284 0-.54-.056-.769-.168a1.68 1.68 0 01-.59-.48 2.28 2.28 0 01-.371-.758 3.535 3.535 0 01-.129-.992V9.629c0-.365.043-.694.129-.988.088-.295.214-.546.379-.754.166-.211.368-.373.605-.485.24-.112.51-.168.812-.168.37 0 .683.075.938.223.258.146.456.36.594.645.14.28.218.626.234 1.035h-.719a2.384 2.384 0 00-.14-.73.821.821 0 00-.336-.419c-.146-.09-.336-.136-.571-.136-.208 0-.389.041-.543.125a1.02 1.02 0 00-.374.359 1.76 1.76 0 00-.219.559 3.428 3.428 0 00-.071.726v1.059c0 .25.02.483.059.699.042.216.107.406.195.57.091.162.21.288.356.38a.983.983 0 00.531.136c.263 0 .471-.043.625-.13a.767.767 0 00.34-.41c.075-.187.125-.432.148-.734zm3.536-3.376L186.883 13h-.735l1.832-5.688h.461l-.003.504zM189.695 13l-1.554-5.184-.008-.503h.465L190.43 13h-.735zm0-2.105v.617h-2.742v-.617h2.742zm5.235-3.582V13h-.723l-2.277-4.387V13h-.719V7.312h.719l2.289 4.399V7.312h.711zm2.953 0V13h-.711V7.312h.711zm1.496 0v.617h-3.699v-.617h3.699zm2.523 0h1.59c.37 0 .68.065.93.195.252.13.443.323.57.578.13.253.196.564.196.934 0 .26-.043.498-.129.714a1.488 1.488 0 01-.375.547c-.164.149-.364.26-.598.332l-.195.082h-1.418l-.008-.613h1.019a.992.992 0 00.547-.14.895.895 0 00.328-.387c.073-.162.11-.34.11-.535 0-.22-.033-.41-.098-.575a.762.762 0 00-.312-.379c-.141-.09-.33-.136-.567-.136h-.871V13h-.719V7.312zM204.633 13l-1.133-2.578.746-.004 1.156 2.535V13h-.769zm2.265-5.688V13h-.718V7.312h.718zm3.739 4.25c0-.132-.016-.25-.047-.351a.701.701 0 00-.164-.281 1.28 1.28 0 00-.328-.239 4.09 4.09 0 00-.536-.23 4.67 4.67 0 01-.636-.277 2.196 2.196 0 01-.488-.356 1.43 1.43 0 01-.309-.457 1.497 1.497 0 01-.109-.59c0-.221.037-.426.113-.613a1.459 1.459 0 01.844-.816c.2-.079.424-.118.671-.118.37 0 .681.082.934.246.255.162.448.374.578.637.13.26.195.54.195.836h-.718c0-.213-.035-.402-.106-.566a.812.812 0 00-.32-.39c-.143-.097-.331-.145-.563-.145-.208 0-.38.04-.515.12a.751.751 0 00-.297.329 1.127 1.127 0 00-.094.472c0 .12.021.23.063.329a.83.83 0 00.191.27c.089.082.198.16.328.23.133.07.289.138.469.203.279.09.517.192.715.304.198.112.359.239.484.38.125.137.216.295.274.472.06.174.089.372.089.594 0 .232-.039.441-.117.629a1.288 1.288 0 01-.332.48 1.532 1.532 0 01-.527.309c-.206.07-.438.105-.695.105-.224 0-.444-.036-.661-.11a1.827 1.827 0 01-.582-.327 1.633 1.633 0 01-.418-.54 1.71 1.71 0 01-.156-.75h.719c0 .196.029.364.086.504a.938.938 0 00.586.547c.133.042.275.063.426.063.208 0 .382-.037.523-.11a.714.714 0 00.32-.312.998.998 0 00.11-.48zm2.379-4.25V13h-.719V7.312h.719zm2.859 0l-1.957 2.653-1.145 1.379-.128-.805.839-1.101 1.532-2.126h.859zM215.16 13l-1.676-2.773.426-.598L216.016 13h-.856zm7.039-3.336v.988c0 .401-.044.754-.133 1.059a2.083 2.083 0 01-.378.758 1.592 1.592 0 01-.602.457 1.976 1.976 0 01-.793.152c-.284 0-.543-.05-.777-.152a1.612 1.612 0 01-.606-.457 2.168 2.168 0 01-.394-.758 3.672 3.672 0 01-.137-1.059v-.988c0-.401.045-.753.137-1.055.091-.304.221-.558.39-.761a1.62 1.62 0 01.606-.457 1.89 1.89 0 01.777-.157c.294 0 .559.052.793.157.237.101.438.254.602.457.166.203.294.457.382.761.089.302.133.654.133 1.055zm-.711.988v-.996c0-.312-.026-.58-.078-.804a1.564 1.564 0 00-.23-.555.934.934 0 00-.375-.317 1.196 1.196 0 00-.516-.105c-.185 0-.351.035-.5.105a.962.962 0 00-.375.317 1.604 1.604 0 00-.242.555 3.416 3.416 0 00-.082.804v.996c0 .315.027.586.082.813.057.224.138.409.242.555.107.143.234.25.383.32.148.068.314.101.496.101.195 0 .367-.033.516-.101a.925.925 0 00.375-.32c.101-.146.177-.331.226-.555.052-.227.078-.498.078-.813zm2.543-3.34V13h-.719V7.312h.719zm1.918 2.56v.616h-2.054v-.617h2.054zm.324-2.56v.618h-2.378v-.617h2.378zm5.676 5.075V13h-2.359v-.613h2.359zm-2.23-5.075V13H229V7.312h.719zm6.527 2.352v.988c0 .401-.044.754-.133 1.059a2.069 2.069 0 01-.379.758 1.58 1.58 0 01-.601.457 1.98 1.98 0 01-.793.152 1.94 1.94 0 01-.778-.152 1.617 1.617 0 01-.605-.457 2.186 2.186 0 01-.395-.758 3.71 3.71 0 01-.136-1.059v-.988c0-.401.045-.753.136-1.055.092-.304.222-.558.391-.761.169-.203.371-.356.606-.457a1.89 1.89 0 01.777-.157c.294 0 .559.052.793.157.237.101.437.254.601.457.167.203.295.457.383.761.089.302.133.654.133 1.055zm-.711.988v-.996c0-.312-.026-.58-.078-.804a1.564 1.564 0 00-.23-.555.934.934 0 00-.375-.317 1.196 1.196 0 00-.516-.105c-.185 0-.352.035-.5.105a.962.962 0 00-.375.317 1.604 1.604 0 00-.242.555 3.416 3.416 0 00-.082.804v.996c0 .315.027.586.082.813.057.224.138.409.242.555.107.143.234.25.383.32.148.068.314.101.496.101.195 0 .367-.033.515-.101a.912.912 0 00.375-.32 1.53 1.53 0 00.227-.555c.052-.227.078-.498.078-.813zm4.313.91c0-.132-.016-.25-.047-.351a.701.701 0 00-.164-.281 1.28 1.28 0 00-.328-.239 4.09 4.09 0 00-.536-.23 4.67 4.67 0 01-.636-.277 2.227 2.227 0 01-.489-.356 1.444 1.444 0 01-.308-.457 1.497 1.497 0 01-.11-.59c0-.221.038-.426.114-.613a1.459 1.459 0 01.844-.816c.2-.079.424-.118.671-.118.37 0 .681.082.934.246.255.162.448.374.578.637.13.26.195.54.195.836h-.718c0-.213-.036-.402-.106-.566a.818.818 0 00-.32-.39c-.143-.097-.331-.145-.563-.145-.208 0-.38.04-.515.12a.751.751 0 00-.297.329 1.127 1.127 0 00-.094.472c0 .12.021.23.063.329a.83.83 0 00.191.27c.089.082.198.16.328.23.133.07.289.138.469.203.279.09.517.192.715.304.198.112.359.239.484.38.125.137.216.295.274.472.059.174.089.372.089.594 0 .232-.039.441-.117.629a1.288 1.288 0 01-.332.48 1.532 1.532 0 01-.527.309c-.206.07-.438.105-.695.105-.224 0-.444-.036-.661-.11a1.827 1.827 0 01-.582-.327 1.633 1.633 0 01-.418-.54 1.71 1.71 0 01-.156-.75h.719c0 .196.029.364.086.504a.938.938 0 00.586.547c.133.042.274.063.426.063.208 0 .382-.037.523-.11a.714.714 0 00.32-.312.998.998 0 00.11-.48zm4.148 0c0-.132-.016-.25-.047-.351a.701.701 0 00-.164-.281 1.263 1.263 0 00-.328-.239 4.13 4.13 0 00-.535-.23 4.685 4.685 0 01-.637-.277 2.196 2.196 0 01-.488-.356 1.43 1.43 0 01-.309-.457 1.497 1.497 0 01-.109-.59c0-.221.038-.426.113-.613a1.474 1.474 0 01.844-.816c.2-.079.424-.118.672-.118.37 0 .681.082.933.246.256.162.448.374.579.637.13.26.195.54.195.836h-.719c0-.213-.035-.402-.105-.566a.82.82 0 00-.321-.39c-.143-.097-.33-.145-.562-.145-.209 0-.38.04-.516.12a.751.751 0 00-.297.329 1.142 1.142 0 00-.093.472c0 .12.02.23.062.329a.86.86 0 00.191.27c.089.082.198.16.329.23.132.07.289.138.468.203.279.09.517.192.715.304.198.112.36.239.485.38.125.137.216.295.273.472.06.174.09.372.09.594 0 .232-.039.441-.117.629a1.311 1.311 0 01-.332.48 1.536 1.536 0 01-.528.309c-.205.07-.437.105-.695.105a2.05 2.05 0 01-.66-.11 1.805 1.805 0 01-.582-.327 1.607 1.607 0 01-.418-.54 1.71 1.71 0 01-.156-.75h.718c0 .196.029.364.086.504a.94.94 0 00.239.344.986.986 0 00.347.203c.133.042.275.063.426.063.208 0 .383-.037.523-.11a.717.717 0 00.321-.312.998.998 0 00.109-.48zm1.609 1.055a.44.44 0 01.114-.308c.078-.086.19-.13.336-.13.146 0 .256.044.332.13a.434.434 0 01.117.308.43.43 0 01-.117.305c-.076.083-.186.125-.332.125-.146 0-.258-.042-.336-.125a.436.436 0 01-.114-.305z" fill="#000"/></svg>