<svg width="144" height="31" viewBox="0 0 144 31" fill="none" xmlns="http://www.w3.org/2000/svg"><rect width="144" height="31" rx="15.5" fill="#14964F"/><path d="M28.328 13.248v-2.166h-8.005v2.166h2.731V20.5h2.543v-7.252h2.731zm1.273-2.153V20.5h2.53v-2.866h1.506l1.83 2.866h2.92l-2.113-3.202c1.305-.444 1.857-1.4 1.857-2.933 0-2.3-1.224-3.27-4.292-3.27H29.6zm2.53 2.274h1.829c1.117 0 1.534.35 1.534 1.157 0 .821-.417 1.157-1.534 1.157h-1.83V13.37zM49.822 20.5l-3.754-9.418h-3.323L39.033 20.5h3.027l.606-1.641h3.525l.605 1.641h3.027zm-6.498-3.66l1.09-2.933 1.09 2.933h-2.18zm7.771-5.745V20.5h4.037c2.784 0 5.045-2.032 5.045-4.696 0-2.677-2.26-4.722-5.045-4.722l-4.037.013zm2.53 2.26h1.412c1.4 0 2.543 1.05 2.543 2.436 0 1.4-1.143 2.449-2.543 2.449h-1.412v-4.884zm15.927 0v-2.273h-7.71V20.5h7.791v-2.274h-5.26v-1.412h4.816V14.66h-4.817v-1.305h5.18zm12.251-.107v-2.166H73.8v2.166h2.731V20.5h2.543v-7.252h2.731zm5.537-2.287c-2.785 0-5.046 2.166-5.046 4.843 0 2.664 2.26 4.83 5.046 4.83 2.785 0 5.045-2.166 5.045-4.83 0-2.677-2.26-4.843-5.045-4.843zm0 2.368c1.413 0 2.408 1.103 2.408 2.475 0 1.36-.995 2.463-2.408 2.463-1.413 0-2.395-1.104-2.395-2.463 0-1.372.982-2.475 2.395-2.475zm6.72-2.234V20.5h4.036c2.785 0 5.046-2.032 5.046-4.696 0-2.677-2.261-4.722-5.046-4.722l-4.036.013zm2.53 2.26h1.412c1.4 0 2.543 1.05 2.543 2.436 0 1.4-1.144 2.449-2.543 2.449H96.59v-4.884zm17.614 7.145l-3.754-9.418h-3.323l-3.714 9.418h3.027l.606-1.641h3.525l.605 1.641h3.028zm-6.499-3.66l1.09-2.933 1.09 2.933h-2.18zm11.635.431l3.754-6.19h-3.001l-2.004 3.513-1.991-3.512h-3.028l3.741 6.216V20.5h2.529v-3.229z" fill="#fff"/></svg>