<svg width="123" height="26" viewBox="0 0 123 26" fill="none" xmlns="http://www.w3.org/2000/svg"><rect width="123" height="26" rx="13" fill="#14964F"/><path d="M24.977 10.924V9.11H18.27v1.815h2.289V17h2.13v-6.076h2.288zm1.067-1.803V17h2.119v-2.401h1.263L30.957 17h2.446l-1.77-2.683c1.094-.372 1.556-1.172 1.556-2.457 0-1.928-1.026-2.74-3.596-2.74h-3.55zm2.119 1.905h1.533c.935 0 1.285.293 1.285.97 0 .687-.35.968-1.285.968h-1.533v-1.938zM42.986 17l-3.145-7.89h-2.784L33.946 17h2.536l.508-1.375h2.953L40.45 17h2.536zm-5.444-3.066l.913-2.457.913 2.457h-1.826zm6.51-4.813V17h3.382c2.334 0 4.227-1.702 4.227-3.934 0-2.243-1.893-3.957-4.227-3.957l-3.381.012zm2.12 1.893h1.184c1.172 0 2.13.88 2.13 2.04 0 1.173-.958 2.052-2.13 2.052h-1.184v-4.091zm13.344 0V9.11h-6.459V17h6.527v-1.905h-4.408v-1.184h4.036v-1.803h-4.036v-1.094h4.34zm10.264-.09V9.11h-6.707v1.815h2.288V17h2.13v-6.076h2.29zm4.639-1.916c-2.334 0-4.227 1.815-4.227 4.058 0 2.232 1.894 4.047 4.227 4.047s4.227-1.815 4.227-4.047c0-2.243-1.894-4.058-4.227-4.058zm0 1.984c1.183 0 2.018.924 2.018 2.074 0 1.138-.835 2.063-2.018 2.063-1.184 0-2.007-.925-2.007-2.063 0-1.15.823-2.074 2.007-2.074zm5.63-1.871V17h3.382c2.333 0 4.227-1.702 4.227-3.934 0-2.243-1.894-3.957-4.227-3.957l-3.382.012zm2.12 1.893h1.183c1.172 0 2.13.88 2.13 2.04 0 1.173-.958 2.052-2.13 2.052h-1.184v-4.091zM96.925 17L93.78 9.11h-2.785L87.886 17h2.535l.508-1.375h2.953L94.39 17h2.537zm-5.445-3.066l.913-2.457.913 2.457h-1.826zm9.748.36l3.145-5.185h-2.514l-1.679 2.943-1.669-2.943h-2.536l3.134 5.208V17h2.119v-2.705z" fill="#fff"/></svg>