<svg width="103" height="36" viewBox="0 0 103 36" fill="none" xmlns="http://www.w3.org/2000/svg"><path d="M69.017 14.315h-5.356C62.193 6 56.045.95 46.75.95c-10.447 0-17.202 6.916-17.202 17.604 0 10.688 6.544 17.45 17.202 17.396 8.688 0 14.852-4.747 16.685-12.524h3.628l1.108-3.04h-4.255a24.633 24.633 0 00.066-3.04h3.978l1.057-3.041v.01zm-14.977 6.08h-5.707l-1.107 3.04h6.509c-.732 4.553-2.701 7.703-6.775 7.703-5.381 0-7.49-5.662-7.49-12.678 0-7.016 1.688-12.629 7.124-12.679 4.275 0 6.484 3.538 7.216 8.539h-4.63l-1.057 3.04h5.943c.01.363.02.727.02 1.1 0 .662-.015 1.308-.046 1.94v-.005zM0 35.114h9.34V23.222h15.884v-7.703H9.34V9.857h17.572v-8.12H0v33.377zM94.983 23.48c4.169-1.781 6.91-5.19 6.91-10.27v-.104c0-3.25-1.003-5.867-2.957-7.757-2.265-2.254-5.857-3.613-10.973-3.613H72.029v33.378h9.34V24.998h4.114l6.754 10.116H103L94.978 23.48h.005zm-2.43-9.697c0 2.463-1.844 3.98-5.011 3.98h-6.178V9.697h6.123c3.167 0 5.066 1.364 5.066 3.981v.104z" fill="#fff"/></svg>