<svg width="728" height="13" viewBox="0 0 728 13" fill="none" xmlns="http://www.w3.org/2000/svg"><path fill="#fff" d="M0 0h728v13H0z"/><path d="M258.711 9.31V10h-2.654v-.69h2.654zm-2.509-5.708V10h-.808V3.602h.808zm6.913 5.708V10h-2.778v-.69h2.778zm-2.633-5.708V10h-.808V3.602h.808zm2.259 2.75v.69h-2.404v-.69h2.404zm.33-2.75v.694h-2.734v-.694h2.734zm2.834 5.427l1.538-5.427h.879L266.336 10h-.62l.189-.971zm-1.38-5.427l1.525 5.427.202.971h-.619l-1.987-6.398h.879zm8.108 5.708V10h-2.777v-.69h2.777zm-2.632-5.708V10h-.809V3.602h.809zm2.259 2.75v.69h-2.404v-.69h2.404zm.329-2.75v.694h-2.733v-.694h2.733zm1.081 0h1.789c.416 0 .765.073 1.046.22.284.146.498.363.641.65.147.284.22.634.22 1.05 0 .293-.048.561-.145.804a1.66 1.66 0 01-.422.615 1.762 1.762 0 01-.672.374l-.22.092h-1.595l-.009-.69h1.147c.246 0 .451-.052.615-.158a1.01 1.01 0 00.37-.435c.082-.182.123-.382.123-.602a1.75 1.75 0 00-.11-.646.858.858 0 00-.352-.426c-.158-.103-.37-.154-.637-.154h-.98V10h-.809V3.602zM276.742 10l-1.274-2.9.839-.005 1.301 2.852V10h-.866zm3.779-5.832L278.772 10h-.826l2.061-6.398h.519l-.005.566zM281.937 10l-1.749-5.832-.009-.566h.523L282.763 10h-.826zm0-2.369v.695h-3.085V7.63h3.085zm5.66-.817V9.2c-.071.094-.178.211-.321.352-.141.14-.338.265-.593.373-.255.109-.589.163-1.002.163-.331 0-.635-.056-.91-.167a1.918 1.918 0 01-.708-.501 2.394 2.394 0 01-.457-.84 3.882 3.882 0 01-.162-1.182v-1.2c0-.448.045-.84.136-1.177.091-.337.226-.617.404-.84.182-.222.406-.389.673-.5.269-.112.583-.167.94-.167.413 0 .765.077 1.055.233.29.155.514.379.672.672.161.293.252.644.273 1.055h-.809a1.867 1.867 0 00-.167-.677.986.986 0 00-.387-.435c-.167-.103-.379-.154-.637-.154-.246 0-.454.041-.624.123-.17.082-.309.205-.417.37-.106.163-.183.37-.233.619-.047.249-.071.539-.071.87v1.208c0 .34.034.636.102.888.067.252.162.46.285.624.126.164.277.287.453.37.176.078.373.118.593.118.249 0 .445-.026.589-.08.143-.052.253-.112.33-.18.079-.067.142-.12.188-.162V7.5h-1.173v-.686h1.978zm4.75 2.496V10h-2.777v-.69h2.777zm-2.632-5.708V10h-.809V3.602h.809zm2.259 2.75v.69h-2.404v-.69h2.404zm.329-2.75v.694h-2.733v-.694h2.733zM294.83 10h-1.09l.009-.69h1.081c.384 0 .696-.073.936-.22.24-.15.418-.369.532-.659.114-.293.171-.655.171-1.085V6.25c0-.34-.032-.632-.096-.878a1.602 1.602 0 00-.29-.607 1.16 1.16 0 00-.488-.351 1.844 1.844 0 00-.69-.12h-1.187v-.693h1.187c.36 0 .685.057.975.17.29.112.539.28.747.506.208.223.367.5.475.83.111.332.167.716.167 1.152v1.086c0 .436-.056.82-.167 1.151a2.162 2.162 0 01-.479.83 2.034 2.034 0 01-.769.506 2.92 2.92 0 01-1.024.167zm-.642-6.398V10h-.808V3.602h.808zm8.28 0V10h-.8V3.602h.8zm1.683 0v.694h-4.162v-.694h4.162zm.949 0h1.789c.416 0 .764.073 1.046.22.284.146.498.363.641.65.147.284.22.634.22 1.05 0 .293-.048.561-.145.804-.097.24-.237.445-.422.615a1.777 1.777 0 01-.672.374l-.22.092h-1.595l-.009-.69h1.147c.246 0 .451-.052.615-.158.164-.108.287-.253.369-.435.082-.182.123-.382.123-.602a1.73 1.73 0 00-.11-.646.856.856 0 00-.351-.426c-.158-.103-.371-.154-.637-.154h-.98V10h-.809V3.602zM308.172 10l-1.275-2.9.84-.005 1.301 2.852V10h-.866zm3.779-5.832L310.202 10h-.826l2.061-6.398h.519l-.005.566zM313.366 10l-1.749-5.832-.009-.566h.523L314.192 10h-.826zm0-2.369v.695h-3.085V7.63h3.085zM316.521 10h-1.089l.008-.69h1.081c.384 0 .696-.073.937-.22.24-.15.417-.369.531-.659.115-.293.172-.655.172-1.085V6.25c0-.34-.033-.632-.097-.878a1.573 1.573 0 00-.29-.607 1.16 1.16 0 00-.488-.351 1.837 1.837 0 00-.69-.12h-1.186v-.693h1.186c.361 0 .686.057.976.17.29.112.539.28.747.506.208.223.366.5.474.83.112.332.167.716.167 1.152v1.086c0 .436-.055.82-.167 1.151a2.162 2.162 0 01-.479.83c-.21.223-.467.392-.769.506-.298.111-.64.167-1.024.167zm-.641-6.398V10h-.809V3.602h.809zm5.177 0V10h-.809V3.602h.809zm5.589 0V10h-.813l-2.562-4.935V10h-.808V3.602h.808l2.576 4.948V3.602h.799zm5.406 3.212V9.2c-.071.094-.177.211-.321.352-.141.14-.338.265-.593.373-.255.109-.589.163-1.002.163-.331 0-.635-.056-.91-.167a1.906 1.906 0 01-.707-.501 2.362 2.362 0 01-.457-.84 3.85 3.85 0 01-.163-1.182v-1.2c0-.448.045-.84.136-1.177.091-.337.226-.617.404-.84.182-.222.406-.389.673-.5.269-.112.583-.167.94-.167.413 0 .765.077 1.055.233.29.155.514.379.672.672.161.293.252.644.273 1.055h-.809a1.867 1.867 0 00-.167-.677.986.986 0 00-.387-.435c-.167-.103-.379-.154-.637-.154-.246 0-.454.041-.624.123-.17.082-.309.205-.417.37-.106.163-.183.37-.233.619-.047.249-.07.539-.07.87v1.208c0 .34.033.636.101.888.067.252.162.46.285.624.126.164.277.287.453.37.176.078.373.118.593.118.249 0 .445-.026.589-.08.144-.052.253-.112.33-.18.079-.067.142-.12.189-.162V7.5h-1.174v-.686h1.978zm4.219-3.212V10h-.809V3.602h.809zm5.589 0V10h-.813l-2.562-4.935V10h-.808V3.602h.808l2.576 4.948V3.602h.799zm3.156 5.427l1.538-5.427h.879L345.446 10h-.619l.189-.971zm-1.38-5.427l1.525 5.427.202.971h-.62l-1.986-6.398h.879zm8.767 2.645V7.36c0 .451-.05.848-.15 1.19-.096.34-.238.625-.426.853-.187.229-.413.4-.677.514a2.22 2.22 0 01-.892.172c-.319 0-.611-.057-.874-.171a1.813 1.813 0 01-.681-.515 2.43 2.43 0 01-.444-.852 4.15 4.15 0 01-.154-1.191V6.247c0-.451.051-.847.154-1.186.102-.343.249-.629.439-.857.191-.229.418-.4.681-.515.264-.117.556-.175.875-.175.331 0 .628.058.892.175.267.115.492.286.677.515.187.228.331.514.43.857.1.34.15.735.15 1.186zm-.8 1.112v-1.12c0-.352-.029-.654-.088-.906a1.743 1.743 0 00-.259-.624 1.043 1.043 0 00-.422-.356 1.34 1.34 0 00-.58-.119 1.3 1.3 0 00-.563.119 1.081 1.081 0 00-.421.356c-.118.161-.208.37-.273.624a3.891 3.891 0 00-.092.905v1.12c0 .355.031.66.092.915.065.252.155.46.273.624.12.161.263.281.43.36.167.077.353.115.558.115.22 0 .413-.038.58-.115.17-.079.311-.199.422-.36.115-.164.199-.372.255-.624.059-.255.088-.56.088-.914zm5.37 1.951V10h-2.654v-.69h2.654zm-2.509-5.708V10h-.809V3.602h.809zm4.456 5.427l1.538-5.427h.879L359.351 10h-.62l.189-.971zm-1.38-5.427l1.525 5.427.202.971h-.62l-1.986-6.398h.879zm8.108 5.708V10h-2.777v-.69h2.777zm-2.632-5.708V10h-.809V3.602h.809zm2.258 2.75v.69h-2.403v-.69h2.403zm.33-2.75v.694h-2.733v-.694h2.733zm3.876 4.78c0-.149-.018-.28-.053-.395a.786.786 0 00-.184-.316 1.436 1.436 0 00-.369-.268 4.62 4.62 0 00-.603-.26 5.299 5.299 0 01-.716-.311 2.467 2.467 0 01-.549-.4 1.6 1.6 0 01-.347-.515 1.686 1.686 0 01-.123-.663c0-.25.042-.48.127-.69a1.654 1.654 0 01.949-.918 2.07 2.07 0 01.756-.132c.416 0 .766.092 1.05.277.288.181.504.42.651.716.146.293.22.606.22.94h-.809c0-.24-.04-.452-.119-.637a.918.918 0 00-.36-.44c-.161-.108-.372-.162-.633-.162-.234 0-.428.045-.58.136a.848.848 0 00-.334.37c-.07.155-.105.332-.105.531a.94.94 0 00.07.37c.047.108.119.209.215.302.1.094.223.18.369.26.15.079.326.155.528.228.313.103.581.217.804.343.223.126.404.268.545.426.141.156.243.333.308.532.067.196.101.419.101.668 0 .26-.044.497-.132.708a1.46 1.46 0 01-.374.54c-.164.15-.362.265-.593.347-.232.08-.492.119-.782.119-.252 0-.5-.041-.743-.123a2.053 2.053 0 01-.655-.37 1.819 1.819 0 01-.47-.606 1.924 1.924 0 01-.176-.843h.809c0 .22.032.408.097.566.064.156.153.285.268.387.114.103.244.179.391.229.149.047.309.07.479.07.234 0 .43-.041.589-.123a.804.804 0 00.36-.352c.082-.152.123-.332.123-.54zm6.732 0c0-.149-.017-.28-.052-.395a.788.788 0 00-.185-.316 1.436 1.436 0 00-.369-.268 4.599 4.599 0 00-.602-.26 5.19 5.19 0 01-.716-.311 2.497 2.497 0 01-.55-.4 1.616 1.616 0 01-.347-.515 1.686 1.686 0 01-.123-.663c0-.25.043-.48.128-.69.087-.211.21-.394.369-.55a1.69 1.69 0 01.58-.368c.225-.088.477-.132.756-.132.416 0 .766.092 1.05.277.287.181.504.42.65.716.147.293.22.606.22.94h-.809c0-.24-.039-.452-.118-.637a.92.92 0 00-.361-.44c-.161-.108-.372-.162-.632-.162-.235 0-.428.045-.58.136a.842.842 0 00-.334.37 1.265 1.265 0 00-.106.531.94.94 0 00.07.37c.047.108.119.209.216.302.099.094.222.18.369.26.149.079.325.155.527.228.314.103.582.217.804.343.223.126.405.268.545.426.141.156.243.333.308.532.067.196.101.419.101.668 0 .26-.044.497-.132.708-.085.21-.209.39-.373.54-.164.15-.362.265-.594.347-.231.08-.492.119-.782.119-.252 0-.499-.041-.743-.123a2.037 2.037 0 01-.654-.37 1.821 1.821 0 01-.471-.606 1.924 1.924 0 01-.175-.843h.808c0 .22.033.408.097.566.064.156.154.285.268.387.114.103.245.179.391.229.15.047.309.07.479.07.235 0 .431-.041.589-.123a.804.804 0 00.36-.352c.082-.152.123-.332.123-.54zm2.712-4.78V10h-.809V3.602h.809zm5.414 3.212V9.2c-.07.094-.177.211-.321.352-.141.14-.338.265-.593.373-.255.109-.589.163-1.002.163a2.41 2.41 0 01-.91-.167 1.906 1.906 0 01-.707-.501 2.362 2.362 0 01-.457-.84 3.85 3.85 0 01-.163-1.182v-1.2c0-.448.045-.84.136-1.177.091-.337.226-.617.405-.84.181-.222.405-.389.672-.5.269-.112.583-.167.94-.167.413 0 .765.077 1.055.233.29.155.514.379.672.672.162.293.252.644.273 1.055h-.809a1.867 1.867 0 00-.167-.677.984.984 0 00-.386-.435c-.167-.103-.38-.154-.638-.154-.246 0-.454.041-.624.123-.17.082-.309.205-.417.37-.106.163-.183.37-.233.619-.047.249-.07.539-.07.87v1.208c0 .34.033.636.101.888.067.252.162.46.285.624.126.164.277.287.453.37.176.078.374.118.593.118.249 0 .446-.026.589-.08.144-.052.254-.112.33-.18.079-.067.142-.12.189-.162V7.5h-1.174v-.686h1.978zm5.493-3.212V10h-.813l-2.562-4.935V10h-.809V3.602h.809l2.575 4.948V3.602h.8zm2.241 0V10h-.808V3.602h.808zm2.215 0V10h-.808V3.602h.808zm2.158 2.878v.694h-2.312V6.48h2.312zm.365-2.878v.694h-2.677v-.694h2.677zm1.845 0V10h-.808V3.602h.808zm4.61 4.363h.809c-.021.44-.11.82-.268 1.139-.156.316-.383.56-.681.729-.296.17-.667.255-1.112.255-.32 0-.608-.063-.866-.19a1.902 1.902 0 01-.664-.54 2.592 2.592 0 01-.417-.852 3.968 3.968 0 01-.145-1.116V6.208c0-.41.048-.781.145-1.112.1-.331.242-.614.426-.848.188-.238.415-.42.681-.545.27-.126.575-.19.914-.19.416 0 .768.084 1.055.251.29.164.513.406.668.725.158.317.246.705.264 1.165h-.809c-.02-.337-.073-.611-.158-.822a.919.919 0 00-.378-.47c-.164-.103-.378-.154-.642-.154-.234 0-.438.047-.61.14-.17.094-.311.23-.422.405a1.98 1.98 0 00-.246.628c-.053.244-.08.516-.08.818v1.19c0 .282.022.544.066.787.047.243.121.457.22.642.103.182.236.324.4.426.164.103.363.154.598.154.296 0 .53-.048.703-.145.173-.097.3-.25.382-.462.085-.21.141-.486.167-.826zm3.977-3.797L405.493 10h-.826l2.061-6.398h.519l-.005.566zM408.657 10l-1.749-5.832-.009-.566h.523L409.483 10h-.826zm0-2.369v.695h-3.085V7.63h3.085zm5.889-4.03V10h-.813l-2.562-4.935V10h-.809V3.602h.809l2.575 4.948V3.602h.8zm3.322 0V10h-.8V3.602h.8zm1.683 0v.695h-4.161v-.694h4.161zm2.839 0h1.789c.416 0 .764.074 1.046.22.284.147.498.364.641.65.147.285.22.635.22 1.051 0 .293-.048.561-.145.804-.097.24-.237.445-.422.615a1.777 1.777 0 01-.672.374l-.22.092h-1.595l-.009-.69h1.147c.246 0 .451-.052.615-.158.164-.108.287-.253.369-.435.082-.182.123-.382.123-.602a1.73 1.73 0 00-.11-.646.856.856 0 00-.351-.426c-.158-.103-.371-.154-.637-.154h-.98V10h-.809V3.602zM425.462 10l-1.274-2.9.839-.005 1.301 2.852V10h-.866zm2.549-6.398V10h-.809V3.602h.809zm4.205 4.78c0-.149-.017-.28-.052-.395a.8.8 0 00-.185-.316 1.436 1.436 0 00-.369-.268 4.599 4.599 0 00-.602-.26 5.19 5.19 0 01-.716-.311 2.497 2.497 0 01-.55-.4 1.616 1.616 0 01-.347-.515 1.686 1.686 0 01-.123-.663c0-.25.042-.48.127-.69a1.642 1.642 0 01.95-.918c.225-.088.477-.132.755-.132.417 0 .767.092 1.051.277.287.181.504.42.65.716.147.293.22.606.22.94h-.809c0-.24-.039-.452-.118-.637a.926.926 0 00-.361-.44c-.161-.108-.372-.162-.633-.162a1.12 1.12 0 00-.58.136.854.854 0 00-.334.37c-.07.155-.105.332-.105.531a.94.94 0 00.07.37c.047.108.119.209.216.302.099.094.222.18.369.26.149.079.325.155.527.228.314.103.582.217.804.343.223.126.405.268.545.426.141.156.243.333.308.532.067.196.101.419.101.668 0 .26-.044.497-.132.708-.085.21-.209.39-.373.54-.165.15-.362.265-.594.347-.231.08-.492.119-.782.119-.252 0-.499-.041-.743-.123a2.037 2.037 0 01-.654-.37 1.821 1.821 0 01-.471-.606 1.924 1.924 0 01-.175-.843h.808c0 .22.032.408.097.566.064.156.154.285.268.387.114.103.245.179.391.229.149.047.309.07.479.07.234 0 .431-.041.589-.123a.804.804 0 00.36-.352c.082-.152.123-.332.123-.54zm2.677-4.78V10h-.809V3.602h.809zm3.216 0l-2.201 2.983-1.288 1.552-.145-.906.945-1.239 1.723-2.39h.966zM437.305 10l-1.885-3.12.479-.672L438.268 10h-.963zm7.919-3.753V7.36c0 .451-.05.848-.149 1.19a2.33 2.33 0 01-.427.853c-.187.229-.413.4-.676.514a2.223 2.223 0 01-.892.172c-.32 0-.611-.057-.875-.171a1.813 1.813 0 01-.681-.515 2.447 2.447 0 01-.444-.852 4.185 4.185 0 01-.154-1.191V6.247c0-.451.052-.847.154-1.186a2.39 2.39 0 01.44-.857c.19-.229.417-.4.681-.515.263-.117.555-.175.874-.175.331 0 .629.058.892.175.267.115.492.286.677.515.188.228.331.514.431.857.099.34.149.735.149 1.186zm-.8 1.112v-1.12c0-.352-.029-.654-.088-.906a1.743 1.743 0 00-.259-.624 1.043 1.043 0 00-.422-.356 1.34 1.34 0 00-.58-.119c-.208 0-.395.04-.562.119a1.084 1.084 0 00-.422.356c-.117.161-.208.37-.273.624a3.891 3.891 0 00-.092.905v1.12c0 .355.031.66.092.915.065.252.156.46.273.624.12.161.263.281.43.36.167.077.354.115.559.115.219 0 .413-.038.58-.115.17-.079.31-.199.422-.36.114-.164.199-.372.254-.624.059-.255.088-.56.088-.914zm2.861-3.757V10h-.808V3.602h.808zm2.158 2.878v.694h-2.312V6.48h2.312zm.365-2.878v.694h-2.677v-.694h2.677zm6.385 5.708V10h-2.654v-.69h2.654zm-2.509-5.708V10h-.809V3.602h.809zm7.343 2.645V7.36c0 .451-.05.848-.15 1.19-.096.34-.238.625-.426.853-.187.229-.413.4-.677.514a2.22 2.22 0 01-.892.172c-.319 0-.611-.057-.874-.171a1.813 1.813 0 01-.681-.515 2.43 2.43 0 01-.444-.852 4.15 4.15 0 01-.154-1.191V6.247c0-.451.051-.847.154-1.186.102-.343.249-.629.439-.857.191-.229.418-.4.681-.515.264-.117.556-.175.875-.175.331 0 .628.058.892.175.267.115.492.286.677.515.187.228.331.514.43.857.1.34.15.735.15 1.186zm-.8 1.112v-1.12c0-.352-.029-.654-.088-.906a1.743 1.743 0 00-.259-.624 1.043 1.043 0 00-.422-.356 1.34 1.34 0 00-.58-.119 1.3 1.3 0 00-.563.119 1.081 1.081 0 00-.421.356c-.118.161-.208.37-.273.624a3.891 3.891 0 00-.092.905v1.12c0 .355.031.66.092.915.065.252.155.46.273.624.12.161.263.281.43.36.167.077.353.115.558.115.22 0 .413-.038.58-.115.17-.079.311-.199.422-.36.115-.164.199-.372.255-.624.059-.255.088-.56.088-.914zm4.852 1.024c0-.15-.018-.281-.053-.396a.788.788 0 00-.185-.316 1.436 1.436 0 00-.369-.268 4.599 4.599 0 00-.602-.26 5.244 5.244 0 01-.716-.311 2.497 2.497 0 01-.55-.4 1.616 1.616 0 01-.347-.515 1.686 1.686 0 01-.123-.663c0-.25.043-.48.128-.69a1.654 1.654 0 01.949-.918c.226-.088.477-.132.756-.132.416 0 .766.092 1.05.277.287.181.504.42.65.716.147.293.22.606.22.94h-.808c0-.24-.04-.452-.119-.637a.918.918 0 00-.36-.44c-.162-.108-.372-.162-.633-.162-.235 0-.428.045-.58.136a.842.842 0 00-.334.37 1.265 1.265 0 00-.106.531.94.94 0 00.071.37c.046.108.118.209.215.302.1.094.223.18.369.26.149.079.325.155.527.228.314.103.582.217.805.343.222.126.404.268.545.426.14.156.243.333.307.532.068.196.101.419.101.668 0 .26-.044.497-.132.708-.085.21-.209.39-.373.54-.164.15-.362.265-.593.347-.232.08-.493.119-.783.119-.252 0-.499-.041-.742-.123a2.031 2.031 0 01-.655-.37 1.819 1.819 0 01-.47-.606 1.91 1.91 0 01-.176-.843h.808c0 .22.033.408.097.566a1.062 1.062 0 00.659.616c.15.047.309.07.479.07.235 0 .431-.041.589-.123a.812.812 0 00.361-.352c.082-.152.123-.332.123-.54zm4.667 0c0-.15-.018-.281-.053-.396a.788.788 0 00-.185-.316 1.436 1.436 0 00-.369-.268 4.599 4.599 0 00-.602-.26 5.244 5.244 0 01-.716-.311 2.497 2.497 0 01-.55-.4 1.616 1.616 0 01-.347-.515 1.686 1.686 0 01-.123-.663c0-.25.043-.48.128-.69a1.654 1.654 0 01.949-.918c.226-.088.477-.132.756-.132.416 0 .766.092 1.05.277.287.181.504.42.65.716.147.293.22.606.22.94h-.808c0-.24-.04-.452-.119-.637a.918.918 0 00-.36-.44c-.162-.108-.372-.162-.633-.162-.235 0-.428.045-.58.136a.842.842 0 00-.334.37 1.265 1.265 0 00-.106.531.94.94 0 00.071.37c.046.108.118.209.215.302.1.094.223.18.369.26.149.079.325.155.527.228.314.103.582.217.805.343.222.126.404.268.545.426.14.156.243.333.307.532.068.196.101.419.101.668 0 .26-.044.497-.132.708-.085.21-.209.39-.373.54-.164.15-.362.265-.593.347-.232.08-.493.119-.783.119-.252 0-.499-.041-.742-.123a2.031 2.031 0 01-.655-.37 1.819 1.819 0 01-.47-.606 1.91 1.91 0 01-.176-.843h.808c0 .22.033.408.097.566a1.062 1.062 0 00.659.616c.15.047.309.07.479.07.235 0 .431-.041.589-.123a.812.812 0 00.361-.352c.082-.152.123-.332.123-.54zm1.81 1.186c0-.137.043-.253.128-.347.087-.097.213-.145.378-.145.164 0 .288.048.373.145.088.094.132.21.132.347a.482.482 0 01-.132.343c-.085.094-.209.14-.373.14-.165 0-.291-.046-.378-.14a.492.492 0 01-.128-.343z" fill="#000"/></svg>