<svg width="140" height="32" viewBox="0 0 140 32" fill="none" xmlns="http://www.w3.org/2000/svg"><rect width="140" height="32" rx="16" fill="#14964F"/><path d="M30.547 13.928v-1.963h-7.254v1.963h2.475V20.5h2.304v-6.572h2.476zm1.154-1.951V20.5h2.292v-2.597h1.366l1.658 2.597h2.646l-1.914-2.902c1.182-.402 1.682-1.268 1.682-2.658 0-2.085-1.11-2.963-3.89-2.963h-3.84zm2.292 2.06h1.658c1.012 0 1.39.318 1.39 1.05 0 .743-.378 1.048-1.39 1.048h-1.658v-2.097zM50.028 20.5l-3.402-8.535h-3.012L40.249 20.5h2.743l.549-1.488h3.194l.55 1.488h2.743zm-5.89-3.317l.988-2.658.988 2.658h-1.976zm7.043-5.206V20.5h3.658c2.524 0 4.572-1.841 4.572-4.255 0-2.427-2.048-4.28-4.572-4.28l-3.658.012zm2.292 2.048h1.28c1.269 0 2.305.951 2.305 2.207 0 1.268-1.036 2.22-2.304 2.22h-1.28v-4.427zm14.435 0v-2.06h-6.987V20.5h7.06v-2.06h-4.767v-1.28h4.365v-1.952h-4.365v-1.183h4.694zm11.102-.097v-1.963h-7.255v1.963h2.476V20.5h2.304v-6.572h2.475zm5.018-2.073c-2.524 0-4.572 1.963-4.572 4.39 0 2.414 2.048 4.377 4.572 4.377s4.572-1.963 4.572-4.377c0-2.427-2.048-4.39-4.572-4.39zm0 2.146c1.28 0 2.183 1 2.183 2.244 0 1.231-.903 2.23-2.183 2.23-1.28 0-2.17-.999-2.17-2.23 0-1.244.89-2.244 2.17-2.244zm6.09-2.024V20.5h3.658c2.524 0 4.572-1.841 4.572-4.255 0-2.427-2.048-4.28-4.572-4.28l-3.658.012zm2.292 2.048h1.28c1.269 0 2.305.951 2.305 2.207 0 1.268-1.036 2.22-2.304 2.22h-1.28v-4.427zm15.963 6.475l-3.401-8.535h-3.012L98.595 20.5h2.743l.549-1.488h3.194l.549 1.488h2.743zm-5.889-3.317l.988-2.658.987 2.658h-1.975zm10.544.39l3.402-5.608h-2.719l-1.817 3.182-1.804-3.182h-2.744l3.39 5.633V20.5h2.292v-2.926z" fill="#fff"/></svg>