<svg width="185" height="64" viewBox="0 0 185 64" fill="none" xmlns="http://www.w3.org/2000/svg"><path d="M123.358 24.693h-9.568C111.167 9.727 100.184.636 83.58.636c-18.664 0-30.73 12.45-30.73 31.688s11.69 31.41 30.73 31.311c15.52 0 26.531-8.544 29.807-22.543h6.48l1.979-5.472h-7.6a44.424 44.424 0 00.117-5.473h7.107l1.888-5.472v.018zM96.603 35.638H86.408L84.43 41.11h11.627c-1.306 8.195-4.824 13.864-12.102 13.864-9.613 0-13.382-10.192-13.382-22.82 0-12.629 3.017-22.732 12.729-22.821 7.635 0 11.583 6.368 12.89 15.369H87.92l-1.889 5.472h10.616c.018.654.036 1.308.036 1.98 0 1.19-.027 2.355-.08 3.493v-.01zM.065 62.13H16.75V40.726h28.375V26.86H16.75V16.668h31.392V2.051H.065v60.08zM169.743 41.19c7.448-3.206 12.344-9.34 12.344-18.485v-.188c0-5.849-1.79-10.56-5.281-13.964-4.046-4.057-10.464-6.502-19.603-6.502h-28.465v60.08h16.685V43.922h7.349l12.066 18.209h19.227l-14.331-20.94h.009zm-4.341-17.455c0 4.433-3.294 7.165-8.951 7.165h-11.037V16.38h10.938c5.658 0 9.05 2.454 9.05 7.166v.188z" fill="#fff"/></svg>