<svg width="118" height="27" viewBox="0 0 118 27" fill="none" xmlns="http://www.w3.org/2000/svg"><rect width="118" height="27" rx="13.5" fill="#14964F"/><path d="M27.49 11.284V9.726h-5.758v1.558h1.965V16.5h1.829v-5.216h1.964zm.915-1.548V16.5h1.82v-2.061h1.084l1.316 2.061h2.1l-1.52-2.303c.939-.32 1.336-1.007 1.336-2.11 0-1.655-.881-2.351-3.087-2.351h-3.049zm1.82 1.635h1.316c.803 0 1.103.252 1.103.832 0 .59-.3.833-1.103.833h-1.316V11.37zM42.95 16.5l-2.7-6.774h-2.39L35.19 16.5h2.177l.435-1.18h2.536l.435 1.18h2.177zm-4.674-2.632l.784-2.11.784 2.11h-1.568zm5.59-4.132V16.5h2.903c2.003 0 3.63-1.461 3.63-3.377 0-1.926-1.627-3.397-3.63-3.397l-2.903.01zm1.82 1.625H46.7c1.007 0 1.83.755 1.83 1.752 0 1.006-.823 1.761-1.83 1.761h-1.016v-3.513zm11.455 0V9.726h-5.545V16.5H57.2v-1.635h-3.783v-1.017h3.464V12.3h-3.464v-.939h3.725zm8.812-.077V9.726h-5.758v1.558h1.964V16.5h1.83v-5.216h1.964zm3.982-1.645c-2.003 0-3.629 1.558-3.629 3.484 0 1.916 1.626 3.474 3.63 3.474 2.002 0 3.628-1.558 3.628-3.474 0-1.926-1.626-3.484-3.629-3.484zm0 1.703c1.016 0 1.732.794 1.732 1.78 0 .978-.716 1.772-1.732 1.772s-1.722-.794-1.722-1.771c0-.987.706-1.78 1.722-1.78zm4.834-1.606V16.5h2.903c2.003 0 3.629-1.461 3.629-3.377 0-1.926-1.626-3.397-3.63-3.397l-2.903.01zm1.819 1.625h1.016c1.006 0 1.829.755 1.829 1.752 0 1.006-.823 1.761-1.83 1.761h-1.015v-3.513zM89.257 16.5l-2.7-6.774h-2.39L81.496 16.5h2.177l.436-1.18h2.535l.435 1.18h2.178zm-4.674-2.632l.784-2.11.783 2.11h-1.567zm8.368.31l2.7-4.452h-2.158l-1.442 2.526-1.432-2.526h-2.177l2.69 4.47V16.5h1.82v-2.322z" fill="#fff"/></svg>